<svg xmlns="http://www.w3.org/2000/svg" fill="none" viewBox="0 0 737 250">
  <path fill="#6B7280" d="M450.145 171.99c0-62.518-96.06-48.371-96.06-76.0555 0-10.3435 12.767-13.5378 23.711-13.5378 21.076.3332 41.667 6.3785 59.582 17.4927V58.2111C417.897 48.3864 396.418 43.1816 374.604 43c-35.719 0-70.83 13.0815-70.83 52.4782 0 60.8438 96.061 48.9798 96.061 76.0558 0 9.583-11.703 12.777-30.399 12.777-22.868-.072-45.292-6.326-64.902-18.101v40.765c20.827 11.127 44.191 16.632 67.79 15.972 40.735 0 77.213-12.473 77.213-52.478l.608 1.521Zm286.815 45.937V111.602c0-30.4222-15.2-67.3851-63.534-67.3851-21.494.5694-41.884 9.6507-56.694 25.2504-5.806-8.32-13.648-15.0103-22.776-19.4312-9.128-4.4208-19.236-6.4244-29.358-5.8192-10.261.0566-20.392 2.2966-29.721 6.5713-9.329 4.2748-17.643 10.4864-24.39 18.2227V49.2365h-43.014V219.448h49.246V107.343c4.185-5.909 9.628-10.816 15.936-14.3669 6.307-3.5508 13.324-5.6575 20.543-6.1682 3.656-.1697 7.307.4493 10.703 1.8151 3.397 1.3658 6.46 3.4464 8.983 6.1007 2.522 2.6544 4.445 5.8203 5.638 9.2833 1.193 3.464 1.628 7.143 1.275 10.789v104.652h48.942V103.844c4.114-4.952 9.21-8.9961 14.966-11.8762 5.756-2.8801 12.046-4.5335 18.473-4.8557 3.657-.1697 7.307.4494 10.704 1.8151 3.396 1.3658 6.459 3.4464 8.982 6.1008 2.523 2.6543 4.445 5.82 5.638 9.284 1.193 3.463 1.628 7.142 1.275 10.788v104.348l48.183-1.521Z"/>
  <path fill="url(#a)" d="M54.8372 9.87292 9.67263 55.1686C3.3958 61.6088-.0808268 70.2722.00142697 79.2682V236.351c-.001429 3.553 1.38204303 6.967 3.85628303 9.516 2.47425 2.548 5.84413 4.03 9.39329 4.131h24.3714c2.2413.019 4.464-.407 6.5393-1.254 2.0752-.848 3.9617-2.099 5.5497-3.682l44.8744-45.005V17.1318c0-2.2496.4428-4.4773 1.3031-6.5557.8602-2.07845 2.1211-3.96697 3.7107-5.55774 1.5894-1.59076 3.4764-2.85262 5.5534-3.71354 2.077-.860914 4.303-1.30402168 6.551-1.30402168H78.8217C69.8365-.0605459 61.1874 3.41565 54.7405 9.67936"/>
  <path fill="url(#b)" d="M49.8107 245.062c-1.5881 1.583-3.4745 2.834-5.5498 3.682-2.0752.847-4.298 1.273-6.5392 1.254H170.314c8.991.093 17.652-3.388 24.081-9.678l33.076-33.101c3.2-3.212 4.998-7.562 4.998-12.098 0-4.536-1.798-8.887-4.998-12.098l-58.028-58.072L49.8107 245.062Z"/>
  <path fill="url(#c)" d="M95.7606 0c-4.54 0-8.894 1.80487-12.1043 5.01756-3.2102 3.2127-5.0137 7.57004-5.0137 12.11344v32.8104L211.428 183.022c3.201 3.211 4.999 7.562 4.999 12.098 0 4.536-1.798 8.886-4.999 12.098l12.089-12.098c3.121-3.18 5.583-6.947 7.243-11.083 1.659-4.136 2.485-8.56 2.428-13.017V13.7436c.013-1.7922-.327-3.5693-1-5.22986-.674-1.66059-1.668-3.17214-2.925-4.44836-1.257-1.27621-2.754-2.2921-4.403-2.98964C223.21.378201 221.439.0126651 219.649 0H95.7606Z"/>
  <defs>
    <linearGradient id="a" x1="20.4545" x2="75.1625" y1="186.702" y2="279.619" gradientUnits="userSpaceOnUse">
      <stop stop-color="#6B7280"/>
      <stop offset="1"/>
    </linearGradient>
    <linearGradient id="b" x1="301.809" x2="148.974" y1="64.2594" y2="227.515" gradientUnits="userSpaceOnUse">
      <stop/>
      <stop offset="1" stop-color="#6B7280"/>
    </linearGradient>
    <linearGradient id="c" x1="15.7036" x2="155.513" y1="-9.5522" y2="22.5779" gradientUnits="userSpaceOnUse">
      <stop/>
      <stop offset="1" stop-color="#6B7280"/>
    </linearGradient>
  </defs>
</svg>
