<svg fill="none" viewBox="0 0 346 76">
  <g fill="#6B7280" clip-path="url(#a)">
    <path d="M156.359 38.3175c-.007-3.0422-.007-6.0861 0-9.13-2.734-.0179-5.461-.013-8.195-.0065-.007-3.3186-.014-6.6388.013-9.9508-3.613.0179-7.234.0114-10.846.0065v9.9378h-4.496c-.007 3.0455 0 6.091 0 9.143h4.49v.0065h.006c.012 2.779-.003 5.5613-.005 8.3419h-.001c-.002.2308 0 .4616 0 .6923 0 .1739-.002.3494-.002.5233h.002c0 1.6203.005 3.2406.027 4.8608.091 4.3814 1.757 9.0749 5.612 11.6491 3.393 2.3223 7.62 2.7562 11.677 2.7042-3.337-3.3266-5.339-8.1875-6.144-12.0911l-.024-.1137-.015-.1154c-.109-.8565-.245-2.233-.23-3.6858-.025-.3104-.044-.6192-.057-.9231-.012-.7898-.012-1.5797-.016-2.3679-.015-3.1609.019-6.3185.009-9.4746 2.727.0065 5.461.0065 8.195-.0065ZM130.808 22.0854c-.021-3.0504-.021-6.0992 0-9.1496-5.351-.8597-11.514-.52-15.802 3.0196-3.836 3.299-4.59 8.545-4.452 13.227h-4.687c.005 3.0472.005 6.096 0 9.1447h3.958c.251-.0016.503-.0032.754-.0032v.0032h.022v4.9974h-.017c.009 7.4805.012 14.9643-.005 22.4448h5.037c1.99 0 3.982.0017 5.972-.0048-.005-7.5927-.01-15.1838.002-22.7732v-4.6739h7.343c-.007-3.0504-.007-6.0959 0-9.1415h-7.397c.098-2.0574-.15-4.5179 1.62-6.0423 2.131-1.7129 5.101-1.1554 7.652-1.0482ZM90.8971 65.7676h4.8907c.9255 0 1.851-.0016 2.7782 0h3.091c-.067-7.8364.064-15.6729-.067-23.5109-.084-4.5992-1.9083-9.7005-6.49-11.8587-6.5515-3.1187-14.2289-2.415-21.2186-1.3424-.0255 3.325-.0068 6.6566-.0119 9.9898 4.4968-.9345 9.4011-1.908 13.8537-.3137 2.0717.6826 2.8461 2.7725 3.1671 4.6609-3.1145-.3754-6.2748-1.0856-9.4164-.4761-3.7241.4388-7.4142 2.1842-9.5199 5.2394-3.3963 4.8625-2.4267 12.2163 2.6033 15.7314 4.7209 3.4437 11.5798 3.0732 16.3788-.0438-.0068.4794-.0255 1.4366-.039 1.9241Zm-.4535-7.9177c-2.7867.8224-6.1881 1.7324-8.7455-.1316-2.335-1.5748-2.0327-5.3711.4975-6.6127 2.583-1.305 5.5989-.8484 8.3414-.3267.248 2.3532.2276 4.7243-.0934 7.071M34.62 16.1496c4.3864.0244 8.7727.0065 13.1591.0065-6.4259 8.2704-12.7074 16.6464-19.1723 24.8859 5.7568 8.233 11.4218 16.5147 17.2245 24.7152-4.5494.0325-9.1005-.0114-13.6448.026-5.0673-7.3603-10.1482-14.7141-15.1918-22.0874-.0119 7.3603-.0119 14.7206.0068 22.0809-3.9211-.0195-7.84215-.0065-11.76322-.0065.01359-16.5342.01359-33.0685 0-49.6027 3.92107-.0179 7.83702 0 11.75642-.0179-.0068 7.8056-.0187 15.6112.0068 23.4167C22.85 31.7429 28.7579 23.9617 34.62 16.1496ZM48.5596 29.2951c3.6918-.0179 7.3887 0 11.0873-.0179-.0136 2.3337-.0187 4.6674-.0594 6.9963 1.7915-3.8663 5.6651-6.382 9.9665-7.0467.0068 3.4632.0527 6.9329-.0458 10.3961-4.7141.5395-9.559 3.9036-9.7305 8.7725-.1308 5.7855-.0255 11.5841-.0323 17.3761-3.7309 0-7.4617 0-11.1858-.0081.0068-12.1594.0068-24.3139 0-36.4683ZM245.39 58.3562c-1.547.5916-1.856.8873-3.71 1.4789-1.856.5932-4.021.5932-5.878 0-5.875-2.3662-2.163-10.9503-2.163-10.9503 24.122-5.623 20.721-18.0537 14.226-18.6469-4.022 0-18.556.5932-25.361 16.5749-.927 2.3678-7.423 19.2385 7.114 20.4216 3.092 0 6.495-.2958 9.588-1.7747 2.783-1.4805 4.948-3.2568 6.802-5.6246 1.547-2.6636-.618-1.4789-.618-1.4789Zm-3.401-23.6784c1.854.5916-2.783 9.4714-2.783 9.4714-1.856.5915-3.713 1.1847-4.949 1.1847.618-1.1847 4.02-12.4307 7.732-10.6561ZM301.677 61.6119c-.309-.2957-.927-.2957-1.236-.5915-1.856-1.1847-.311-4.4399 0-6.2162l5.567-18.9411c.309-1.1847 2.474-7.3993-6.187-6.2161-7.422 1.1847-12.68 5.623-12.68 5.623.62-1.7747 1.238-4.4383 0-5.0315-1.545-.5915-10.515 2.0721-12.68 3.8483-.618 0-1.545.8874-.618 1.7763.927 1.1831 1.238 2.0705.618 4.1425-1.236 3.5526-4.947 15.9833-5.876 18.3512-.927 2.3678-2.165 6.8077 0 8.2866 1.547 1.1847 8.041-1.4789 8.97-2.0721.927-.2957 1.854-.8873 2.163-1.1831 1.238-1.1847-.618-1.7763 1.238-7.9924 0-.2958 2.166-6.5104 3.711-11.8376 1.238-4.4399 5.566-6.512 7.114-6.8077 2.474-.2958 1.856 1.7762 1.547 3.2551-2.166 6.512-4.64 16.2791-5.567 18.647-.929 2.3678-2.474 7.1035 0 7.9908 2.163 1.4805 12.06-2.6636 12.989-3.2552 1.855-1.1847 1.855-1.7763.927-1.7763Z"/>
    <path d="M263.947 61.6117c-.618-.2958-.927-.2958-1.238-.5916-1.854-1.1847-.618-4.4399 0-6.2161l5.877-18.9411c.309-2.0721 1.546-4.7357 0-5.6247-1.856-.5915-10.825 2.0721-12.989 3.8484-.311 0-1.238.8873-.311 1.7763.929 1.1831.929 2.0704.311 4.1425-.929 3.5525-5.259 16.2791-6.186 18.6469-.928 2.3678-2.166 7.1035.618 7.9908 2.165 1.4806 11.444-2.3678 12.68-3.2551 2.165-.889 2.165-1.7763 1.238-1.7763ZM262.091 25.7987c.618 1.1831 6.185-1.1831 8.97-2.6636.309-.2958 1.545-1.1847 1.854-2.072.62-2.0721.929-2.9594 1.238-4.4399.309-.5916.309-1.4789-.618-1.7763-1.238-.2958-8.661.5931-10.517 3.5525-.618 1.1831-2.783 6.8078-.927 7.3993ZM344.976 46.5177c-.928-3.2552-6.496-4.1441-8.659-2.3679-1.238 1.1831-1.856 3.551-1.547 4.1442 5.257-1.4805 6.184 2.9594 5.257 4.734-1.856 2.6653-2.474 3.5526-4.948 3.5526h-16.391c-.309-.2958-.62-.5916 0-1.1847.927-1.1832 17.009-22.1963 17.629-23.0852.309-.5916 1.236-2.0721-.929-2.0721H317.45c-1.854 0-2.783.5915-4.329 2.0721-1.238 1.4805-2.783 5.9187-3.712 8.8798 0 0 0 1.1831 1.856-.2958.309-.2974.927-1.4805 1.856-1.4805h10.824c3.402 0-14.536 16.2791-20.102 24.8615-.928 1.4805.618 1.4805 1.547 1.4805h23.504c5.876 0 4.948.8873 8.041-3.2568 0 0 9.586-11.8376 8.041-15.9817ZM215.7 56.5806l6.496-23.9742c4.328-14.5028 6.803-15.0944 8.35-16.5749H220.34c-3.711 0-6.496 5.0315-7.114 8.2883l-4.33 15.0943h-9.277s5.566-19.2384 6.184-21.3105c.309-.8873.309-2.0721-1.545-2.0721-.311 0-19.794-.5915-25.98 1.4805-2.784.8874-6.803 3.2552-8.041 6.8078-.927 2.072-2.165 5.9188.62 13.0223.309.8873.927 1.4805 1.236 1.7763.927.5915 8.968-.5916 8.659-.5916.62 0 .929-.2974.309-1.4805-.618-1.4805-2.472-4.1441-2.783-6.8077-1.237-10.3587 6.495-11.8392 7.732-12.135 1.856-.2958 3.403-.2958 5.257 0 .62 0 2.165.2958 2.474.889.62 1.1831-.309 3.2551-.927 5.623-.618 1.7762-5.876 20.1258-7.423 25.1572-.927 3.8484-4.948 12.135-8.968 13.3197-.929.2958-2.165.2958-3.403 0-1.236-.2958-2.474-.8889-3.401-1.4805-2.474-2.3678-4.021-7.1035-4.331-10.6544-.309-4.4399.62-7.6951-.309-7.6951-1.613 0-7.003 2.0379-9.188 3.5396-.004.0032-.007.0032-.011.0065-.886.6061-.944.7231-.944.7231-.044.0423-.08.0846-.103.1236-.571.9312-.532 4.2416-.269 6.2616.929 4.4399 3.403 9.4714 7.114 11.8392 9.897 6.5104 27.217-5.3272 29.071-6.5119 2.783-2.3679 4.639-5.623 5.257-7.9909.929-2.9594 2.475-7.9908 2.475-7.9908h9.278s-3.712 13.3181-4.639 16.5732c-.927 2.6636-1.547 7.1035.927 6.8078 9.279 0 12.991-3.2552 13.3-3.551.309-.2958.309-.8889 0-1.1847-.618-.2958-2.783-2.3679-1.547-5.3272Z"/>
  </g>
  <defs>
    <clipPath id="a">
      <path fill="#fff" d="M0 0h339.906v55.16H0z" transform="translate(5.23828 12.5391)"/>
    </clipPath>
  </defs>
</svg>
