<svg width="1107" height="220" viewBox="0 0 1107 220" fill="none" xmlns="http://www.w3.org/2000/svg">
<path fill-rule="evenodd" clip-rule="evenodd" d="M59.296 0.599475C43.0132 3.81423 29.5575 11.248 18.6982 23.0296C10.2045 32.2445 5.24258 41.4237 1.61323 54.6337C-0.717487 63.1178 -0.484938 81.545 2.06614 90.4864C9.43021 116.297 29.2631 135.528 54.8418 141.661C63.5759 143.755 77.9 143.919 86.891 142.028C114.691 136.179 136.773 113.298 142.211 84.7058C143.821 76.2399 143.301 61.2818 141.118 53.2219C134.399 28.4218 114.172 8.36158 89.3445 1.87284C82.6198 0.115215 65.4372 -0.612918 59.296 0.599475ZM218.248 33.7034C210.166 34.7442 199.565 38.2647 192.995 42.09C184.23 47.1939 175.431 56.5803 171.327 65.2038C166.749 74.8237 165.559 80.2316 165.629 91.1091C165.727 106.447 169.954 116.856 179.889 126.228C189.773 135.552 201.366 140.25 230.522 146.75C255.183 152.248 261.604 156.922 260.748 168.752C260.457 172.774 259.834 174.504 257.737 177.105C252.052 184.157 239.194 187.762 225.788 186.063C211.499 184.251 202.651 178.263 197.387 166.844C195.242 162.188 194.221 160.829 193.124 161.168C192.333 161.411 183.848 163.415 174.27 165.621C164.693 167.825 156.679 169.808 156.46 170.026C155.681 170.806 158.292 178.749 161.439 185.174C163.847 190.091 166.475 193.553 172.064 199.172C185.935 213.118 200.68 218.862 224.905 219.754C244.896 220.491 257.44 218.308 270.942 211.742C283.811 205.484 292.497 196.939 298.391 184.739C311.375 157.862 302.563 129.406 276.604 114.375C270.586 110.892 256.09 106.412 237.845 102.4C219.341 98.3295 213.264 95.9343 209.75 91.3286C207.734 88.6852 207.361 87.3465 207.361 82.7487C207.361 76.6554 208.845 73.8543 213.887 70.4218C218.363 67.376 223.163 66.35 232.619 66.418C247.331 66.5225 255.902 71.3755 261.215 82.6058L263.528 87.4946L280.735 81.788C290.199 78.649 298.249 75.8044 298.624 75.4665C298.999 75.1285 297.472 71.1883 295.23 66.7097C287.704 51.6768 274.3 40.9046 257.393 36.3024C245.578 33.0867 230.71 32.0999 218.248 33.7034ZM90.6702 38.0278C96.5274 41.0448 99.9617 46.0337 100.48 52.2803C100.698 54.9098 100.627 58.0514 100.324 59.2621C99.568 62.273 95.1382 67.1461 91.9618 68.4621C88.7671 69.7851 88.6373 70.7101 91.5437 71.44C92.7535 71.744 95.3046 73.4023 97.212 75.1259C101.249 78.7727 103.811 85.8041 102.805 90.4707C101.174 98.0247 94.8412 104.983 88.0372 106.696C85.7884 107.262 75.7809 107.658 63.7005 107.658H43.183V71.4574V35.2563L64.7666 35.5298C85.9469 35.7972 86.4311 35.8442 90.6702 38.0278ZM458.637 126.384V217.4H469.359H480.082L481.17 213.156C482.401 208.349 486.761 198.723 488.075 197.911C488.553 197.616 490.193 199.322 491.721 201.702C495.893 208.205 503.9 215.188 509.776 217.449C516.701 220.114 531.523 220.76 540.016 218.768C566.469 212.561 581.297 187.999 581.417 150.18C581.525 116.259 568.391 90.2164 547.447 82.8245C528.999 76.3131 508.961 82.0632 500.613 96.2618L498.266 100.254L498.038 67.8106L497.81 35.3669H478.223H458.637V126.384ZM810.51 66.0434V96.7191L805.501 91.5891C799.12 85.0524 792.304 81.7601 782.944 80.6923C748.268 76.7372 727.616 102.827 727.473 150.771C727.427 165.703 728.609 174.439 732.184 185.61C735.406 195.679 739.996 203.366 746.237 209.148C754.983 217.252 764.649 220.503 778.088 219.861C785.008 219.53 786.762 219.091 792.508 216.25C799.499 212.796 805.153 207.394 809.474 200.045L811.816 196.061L812.061 206.731L812.306 217.4H830.569H848.832V126.384V35.3669H829.671H810.51V66.0434ZM1009.09 126.384V217.4H1028.69H1048.28V126.384V35.3669H1028.69H1009.09V126.384ZM1067.45 126.384V217.4H1087.04H1106.64V126.384V35.3669H1087.04H1067.45V126.384ZM60.6024 56.3495V64.2675L69.8243 63.9705C78.6838 63.6849 79.1298 63.5777 81.1469 61.2296C83.4315 58.5722 83.7903 55.8017 82.2809 52.4876C80.8325 49.3095 77.9235 48.4315 68.8357 48.4315H60.6024V56.3495ZM60.6024 85.9974V94.8212L69.786 94.4127C77.2101 94.0826 79.4207 93.6681 81.3194 92.2501C86.3789 88.4727 85.6847 80.7158 80.0774 78.3729C78.3206 77.6387 73.9841 77.1736 68.9046 77.1736H60.6024V85.9974ZM370.86 80.6836C347.057 83.1067 329.946 92.6708 322.388 107.778C319.71 113.133 317.585 121.058 318.565 122.039C318.766 122.239 325.379 122.998 333.259 123.724C341.14 124.451 349.254 125.273 351.289 125.55C354.883 126.04 354.992 125.984 355.01 123.606C355.036 120.386 357.715 114.677 360.331 112.273C366.978 106.161 380.427 104.406 388.569 108.587C394.872 111.823 396.935 115.977 397.103 125.765L397.233 133.338L382.427 134.835C350.747 138.036 335.887 143.04 325.1 154.139C313.266 166.315 310.592 185.827 318.659 201.131C325.142 213.429 338.356 219.971 356.768 220C373.212 220.025 385.067 214.514 394.857 202.291L398.975 197.151L399.52 205.375C400.403 218.71 398.131 217.4 420.372 217.4C430.879 217.4 439.466 217.106 439.454 216.747C439.443 216.388 438.993 214.526 438.454 212.61C437.814 210.332 437.288 192.089 436.934 159.916C436.401 111.455 436.363 110.631 434.421 105.788C432.163 100.154 427.074 93.9903 421.535 90.1798C410.778 82.7783 389.483 78.7875 370.86 80.6836ZM646.331 80.742C618.204 83.3105 599.079 96.7225 594.354 117.193C593.796 119.609 593.507 121.753 593.71 121.955C593.914 122.159 600.741 122.947 608.883 123.705C617.025 124.464 625.066 125.269 626.751 125.494C629.805 125.903 629.82 125.889 630.873 121.456C632.297 115.461 635.338 111.748 641.154 108.902C650.239 104.458 663.801 106.02 668.918 112.102C671.768 115.489 672.885 119.78 672.891 127.36L672.896 133.562L665.71 134.15C651.48 135.314 636.611 137.339 629.347 139.104C601.737 145.811 586.381 165.035 590.006 188.356C592.51 204.455 602.061 214.523 618.873 218.785C626.687 220.766 642.491 220.096 649.815 217.474C657.042 214.887 663.757 210.021 669.412 203.273L674.202 197.557L674.738 203.776C675.032 207.198 675.557 211.662 675.903 213.698L676.533 217.4H695.719H714.906L714.251 215.005C713.893 213.688 713.332 190.269 713.005 162.964C712.448 116.261 712.307 113.005 710.641 108.007C705.275 91.9104 691.269 83.354 665.928 80.6871C656.829 79.7299 657.432 79.7282 646.331 80.742ZM920.087 80.6549C908.585 82.0754 899.977 85.4801 889.995 92.5567C879.301 100.139 870.05 114.912 866.087 130.738C863.33 141.751 863.338 162.311 866.105 172.439C871.221 191.166 882.639 205.456 898.814 213.375C907.886 217.817 914.061 219.223 926.784 219.742C940.675 220.309 949.782 218.457 960.633 212.858C970.374 207.832 981.094 197.116 986.15 187.352C990.332 179.272 992.077 173.865 990.512 173.827C989.952 173.813 982.439 173.234 973.817 172.539C965.194 171.844 957.504 171.267 956.727 171.257C955.754 171.245 955.145 172.291 954.774 174.614C953.944 179.805 949.288 185.927 943.868 188.953C940.095 191.059 937.853 191.649 932.42 191.964C926.58 192.302 925.033 192.064 920.999 190.209C911.01 185.616 906.092 177.134 905.958 164.271L905.881 156.868L948.776 156.642L991.672 156.415V149.135C991.672 127.74 984.033 108.36 970.755 96.0667C958.081 84.333 938.507 78.3781 920.087 80.6549ZM939.224 107.268C946.882 110.467 951.009 117.385 952.837 130.085L953.37 133.787H929.311H905.251L905.826 130.521C908.752 113.879 916.581 105.916 930.017 105.916C933.442 105.916 937.365 106.492 939.224 107.268ZM525.266 107.753C530.608 109.221 535.664 115.01 537.893 122.215C541.887 135.117 541.826 165.541 537.782 177.77C532.525 193.666 516.469 198.19 505.487 186.869C498.924 180.104 498.26 176.808 498.296 151.206C498.327 127.953 498.967 123.575 503.45 115.925C507.827 108.456 516.288 105.287 525.266 107.753ZM797.171 108.582C801.108 110.067 805.153 114.61 807.049 119.678C809.457 126.112 810.839 144.112 810.152 160.09C809.47 175.99 808.138 180.627 802.695 186.069C791.231 197.532 775.783 192.152 770.785 174.957C767.591 163.969 767.866 135.766 771.273 124.896C773.564 117.591 777.599 112.156 782.618 109.617C786.837 107.483 793.077 107.038 797.171 108.582ZM397.662 159.263C397.647 173.737 394.41 183.398 387.555 189.432C375.471 200.069 358.97 196.353 355.822 182.285C353.32 171.107 360.193 161.943 374.568 157.288C377.583 156.312 393.532 153.219 396.58 153.02C397.358 152.968 397.667 154.75 397.662 159.263ZM672.718 163.669C672.36 172.953 671.988 175.083 669.942 179.564C664.506 191.469 653.385 197.716 642.744 194.845C635.136 192.793 631.131 186.909 631.122 177.771C631.112 165.552 640.541 158.494 662.009 154.65C666.799 153.792 671.261 153.059 671.925 153.02C672.912 152.961 673.056 154.895 672.718 163.669Z" fill="#6B7280"/>
</svg>
