<svg width="1146" height="200" viewBox="0 0 1146 200" fill="none" xmlns="http://www.w3.org/2000/svg">
<path fill-rule="evenodd" clip-rule="evenodd" d="M79.1439 1.38134C53.6429 4.89471 24.2317 17.0873 13.1384 28.7481C0.964001 41.5411 -3.08875 59.2432 2.40845 75.6046C6.84992 88.8239 15.2728 97.7047 30.2786 104.99C46.2573 112.748 65.1732 116.408 125.412 123.398C147.068 125.91 167.456 128.979 170.72 130.214C179.915 133.698 184.854 142.771 182.33 151.54C176.334 172.375 119.653 179.179 72.6393 164.709C48.8863 157.4 37.0845 146.837 31.0813 127.512C30.0923 124.322 27.2195 123.502 17.0531 123.502H4.27152L4.90635 158.452L5.54117 193.402H19.3417C32.8087 193.402 33.1606 193.244 33.892 186.866C34.7477 179.425 33.1514 179.326 64.0255 188.729C104.392 201.025 140.253 201.967 175.895 191.672C216.183 180.036 235.133 159.35 231.265 131.23C226.133 93.9117 197.279 79.5282 110.195 70.8742C59.4138 65.8276 48.0928 62.3784 48.0928 51.9483C48.0928 36.8314 64.6074 29.1056 99.8447 27.7374C149.561 25.8077 184.18 38.8253 194.519 63.341C197.401 70.1729 198.514 70.7894 207.979 70.7894H218.299V39.8497V8.91H205.81C194.622 8.91 193.235 9.44858 192.529 14.0666C191.618 20.0116 192.262 20.0689 171.147 12.1736C143.542 1.84887 106.92 -2.44602 79.1439 1.38134ZM381.605 1.17507C329.766 11.2477 296.994 31.8329 281.74 63.9071C275.364 77.3097 274.651 81.0087 274.651 100.634C274.651 120.6 275.284 123.735 282.09 137.507C295.653 164.958 322.797 184.845 360.573 195.007C385.329 201.664 430.783 201.664 455.539 195.007C491.77 185.26 519.833 165.362 531.858 140.894C559.938 83.7543 527.539 24.664 457.508 5.28891C445.012 1.83283 392.793 -0.997583 381.605 1.17507ZM570.212 22.661V34.1201H583.849C605.5 34.1201 604.714 31.5808 604.714 101.434C604.714 145.132 603.959 162.298 601.953 164.296C600.435 165.809 593.19 167.046 585.853 167.046H572.512V178.505V189.965H624.264H676.016V178.505V167.046H659.012C645.627 167.046 641.71 166.274 640.611 163.421C639.843 161.427 639.215 138.183 639.215 111.77V63.7421L709.942 126.781L780.67 189.823L798.466 189.894L816.259 189.965L816.867 112.615L817.471 35.2661L832.997 34.5877L848.523 33.9116V22.5556V11.2018H796.771H745.019V22.661V34.1201H759.689C768.643 34.1201 775.267 35.2363 776.693 36.9849C778.002 38.5869 779.41 57.7214 779.89 80.4014C780.741 120.68 780.718 120.928 776.178 117.071C773.664 114.935 746.042 90.2425 714.798 62.1951L657.99 11.2018H614.1H570.212V22.661ZM871.523 22.661V34.1201H885.476C893.149 34.1201 901.431 35.1904 903.883 36.4968C906.335 37.8031 924.897 57.5885 945.135 80.4633L981.928 122.051V141.797C981.928 154.102 980.888 162.582 979.167 164.296C977.606 165.852 970.121 167.046 961.917 167.046H947.426V178.542V190.04L1008.95 189.428L1070.48 188.819V178.505V168.192L1054.38 167.046L1038.28 165.9L1037.62 142.478L1036.97 119.055L1071.82 79.4526C1090.99 57.671 1108.3 38.5617 1110.29 36.9849C1112.39 35.3279 1120.51 34.1201 1129.57 34.1201H1145.23V22.661V11.2018H1094.63H1044.03V22.661V34.1201H1053.09C1058.08 34.1201 1062.76 35.085 1063.49 36.263C1065.18 38.9857 1023.06 89.0989 1019.62 88.4572C1016.61 87.8957 975.027 39.3432 975.027 36.3913C975.027 35.2867 979.427 34.0674 984.803 33.6778L994.578 32.9742L995.28 22.088L995.981 11.2018H933.752H871.523V22.661ZM433.357 29.9582C486.183 42.9139 503.275 117.112 461.993 154.272C445.824 168.829 434.558 172.682 408.056 172.719C387.963 172.746 383.457 171.992 372.405 166.753C346.602 154.519 333.133 133.842 331.537 104.021C330.75 89.2799 331.507 83.1814 335.399 72.9002C349.501 35.6534 387.917 18.813 433.357 29.9582Z" fill="#6B7280"/>
</svg>
