<svg class="text-gray-500" width="925" height="200" viewBox="0 0 925 200"  xmlns="http://www.w3.org/2000/svg">
<path d="M245.91 70.143C241.888 70.143 239.877 68.4389 239.877 65.0305V54.8056C239.877 51.3973 241.888 49.6931 245.91 49.6931H252.863V46.1144C252.863 43.0469 253.579 40.2521 255.01 37.7299L262.884 23.9262C264.383 21.3359 266.156 20.0408 268.201 20.0408H275.358C279.448 20.0408 281.493 22.0858 281.493 26.1757V49.6931H298.057C302.079 49.6931 304.09 51.3973 304.09 54.8056V65.0305C304.09 68.4389 302.079 70.143 298.057 70.143H281.493V120.859C281.493 127.812 281.97 132.822 282.924 135.889C283.947 138.889 286.537 140.388 290.695 140.388C292.809 140.388 295.194 140.048 297.853 139.366C300.511 138.616 302.59 137.9 304.09 137.219C306.476 136.128 308.044 136.912 308.794 139.57L311.861 151.227C312.475 153.545 311.588 155.249 309.203 156.339C306.953 157.362 303.852 158.282 299.898 159.1C296.012 159.986 292.093 160.429 288.139 160.429C278.391 160.429 270.075 158.418 263.19 154.397C256.306 150.375 252.863 142.093 252.863 129.55V70.143H245.91Z" fill="#0084FE"/>
<path d="M316.982 103.374C316.982 86.128 321.276 72.5288 329.865 62.5765C338.522 52.6243 350.724 47.6481 366.47 47.6481C384.739 47.6481 398.304 52.3516 407.166 61.7586C416.027 71.1655 420.458 86.2984 420.458 107.157C420.458 111.247 418.55 113.292 414.732 113.292H347.248C348.338 124.608 351.133 131.731 355.632 134.662C360.131 137.594 365.346 139.059 371.276 139.059C376.934 139.059 381.263 138.309 384.262 136.81C387.261 135.31 389.783 133.265 391.828 130.675C394.146 127.675 397.009 127.198 400.417 129.243L410.642 135.48C414.664 137.934 415.243 140.866 412.381 144.274C408.222 149.25 403.348 152.965 397.759 155.419C392.169 157.873 383.342 159.1 371.276 159.1C351.712 159.1 337.772 154.124 329.456 144.172C321.14 134.219 316.982 120.62 316.982 103.374ZM347.35 92.8424H391.828C391.828 85.4804 389.988 79.4818 386.307 74.8465C382.626 70.143 376.764 67.7913 368.72 67.7913C362.312 67.7913 357.234 70.0408 353.485 74.5397C349.736 78.9706 347.691 85.0714 347.35 92.8424Z" fill="#0084FE"/>
<path d="M440.507 157.055C436.417 157.055 434.372 155.01 434.372 150.92V55.8281C434.372 51.7381 436.417 49.6931 440.507 49.6931H456.663C460.753 49.6931 462.798 51.7381 462.798 55.8281V64.2125H463.207C464.979 59.8499 467.944 55.9985 472.102 52.6583C476.261 49.3182 481.169 47.6481 486.826 47.6481C490.712 47.6481 493.916 48.1253 496.438 49.0796C498.824 49.9658 499.744 51.6018 499.198 53.9876L496.336 66.1553C495.722 68.8819 493.882 69.6999 490.814 68.6093C489.042 67.9958 487.338 67.689 485.702 67.689C479.158 67.689 473.738 71.6086 469.444 79.4477C465.149 87.2868 463.002 98.7047 463.002 113.701V150.92C463.002 155.01 460.957 157.055 456.867 157.055H440.507Z" fill="#0084FE"/>
<path d="M500.638 128.425C500.638 114.792 507.148 104.908 520.168 98.7729C533.188 92.6379 548.048 89.3659 564.749 88.9569V84.8669C564.749 78.5956 563.181 74.1648 560.045 71.5745C556.909 68.9842 552.547 67.689 546.957 67.689C543.004 67.689 539.493 68.2684 536.426 69.4273C533.426 70.5179 530.802 71.8131 528.552 73.3127C526.371 74.7442 524.394 76.2098 522.622 77.7095C519.486 80.4361 516.896 80.5725 514.851 78.1185L506.364 67.689C504.251 65.0987 504.762 62.4402 507.898 59.7136C510.284 57.6004 513.044 55.7599 516.18 54.1921C519.384 52.6243 523.61 51.1587 528.859 49.7954C534.108 48.3639 540.924 47.6481 549.309 47.6481C563.488 47.6481 574.36 50.9201 581.927 57.4641C589.561 64.008 593.378 73.6536 593.378 86.4007V150.92C593.378 155.01 591.333 157.055 587.243 157.055H570.475C566.794 157.055 564.953 155.01 564.953 150.92V147.853H564.749C560.727 151.738 555.887 154.601 550.229 156.442C544.64 158.214 539.493 159.1 534.79 159.1C523.61 159.1 515.124 156.373 509.329 150.92C503.535 145.399 500.638 137.9 500.638 128.425ZM530.904 127.812C530.904 130.198 531.381 132.277 532.336 134.049C533.29 135.753 534.79 137.014 536.835 137.832C538.879 138.65 541.163 139.059 543.685 139.059C547.162 139.059 550.536 138.582 553.808 137.628C557.08 136.673 560.727 134.424 564.749 130.879V108.691C553.297 109.986 545.628 111.656 541.742 113.701C537.857 115.746 535.062 117.859 533.358 120.041C531.722 122.222 530.904 124.812 530.904 127.812Z" fill="#0084FE"/>
<path d="M619.051 197.955C614.961 197.955 612.916 195.91 612.916 191.82V55.8281C612.916 51.7381 614.961 49.6931 619.051 49.6931H635.207C638.615 49.6931 640.455 51.7381 640.728 55.8281L641.137 61.7586H641.546C645.091 55.8962 649.044 52.0789 653.407 50.3066C657.77 48.5343 663.019 47.6481 669.154 47.6481C685.173 47.6481 696.42 53.2037 702.896 64.3148C709.44 75.3577 712.712 88.3775 712.712 103.374C712.712 118.371 709.44 131.425 702.896 142.536C696.42 153.579 685.173 159.1 669.154 159.1C663.019 159.1 657.77 158.214 653.407 156.442C649.044 154.669 645.091 150.852 641.546 144.99H641.137C641.41 147.716 641.546 150.443 641.546 153.17V191.82C641.546 195.91 639.501 197.955 635.411 197.955H619.051ZM641.546 107.975C641.546 117.178 643.353 124.676 646.965 130.47C650.646 136.196 655.043 139.059 660.156 139.059C669.358 139.059 675.357 135.855 678.151 129.448C681.014 122.972 682.446 114.281 682.446 103.374C682.446 92.4675 681.014 83.8104 678.151 77.4027C675.357 70.9269 669.358 67.689 660.156 67.689C655.043 67.689 650.646 70.5861 646.965 76.3802C643.353 82.1062 641.546 89.5704 641.546 98.7729V107.975Z" fill="#0084FE"/>
<path d="M732.556 157.055C728.466 157.055 726.421 155.01 726.421 150.92V55.8281C726.421 51.7381 728.466 49.6931 732.556 49.6931H748.916C753.006 49.6931 755.051 51.7381 755.051 55.8281V150.92C755.051 155.01 753.006 157.055 748.916 157.055H732.556ZM732.556 33.9467C728.466 33.9467 726.421 31.9017 726.421 27.8117V14.7238C726.421 10.6338 728.466 8.58882 732.556 8.58882H748.916C753.006 8.58882 755.051 10.6338 755.051 14.7238V27.8117C755.051 31.9017 753.006 33.9467 748.916 33.9467H732.556Z" fill="#0084FE"/>
<path d="M770.908 70.143C766.886 70.143 764.875 68.4389 764.875 65.0305V54.8056C764.875 51.3973 766.886 49.6931 770.908 49.6931H776.634V35.3782C776.634 22.8356 780.213 14.4852 787.37 10.3271C794.528 6.16892 803.049 4.08984 812.933 4.08984C817.636 4.08984 821.658 4.36251 824.998 4.90784C828.406 5.45317 831.406 6.13483 833.996 6.95283C836.45 7.77083 837.336 9.47498 836.655 12.0653L833.587 23.6195C832.974 25.869 831.406 26.5506 828.884 25.6645C827.384 25.1192 825.271 24.7442 822.544 24.5397C819.886 24.2671 817.772 24.1307 816.205 24.1307C811.229 24.1307 808.161 25.869 807.002 29.3455C805.843 32.8219 805.264 38.2412 805.264 45.6031V49.6931H818.761C822.783 49.6931 824.794 51.3973 824.794 54.8056V65.0305C824.794 68.4389 822.783 70.143 818.761 70.143H805.264V150.92C805.264 155.01 803.219 157.055 799.129 157.055H782.769C778.679 157.055 776.634 155.01 776.634 150.92V70.143H770.908Z" fill="#0084FE"/>
<path d="M829.198 57.6686C827.358 52.3516 828.483 49.6931 832.573 49.6931H850.875C854.011 49.6931 856.056 51.4314 857.01 54.9078L872.45 112.065C873.2 114.724 873.847 118.166 874.393 122.392C875.006 126.551 875.313 129.209 875.313 130.368H875.927C876.745 126.755 877.324 123.892 877.665 121.779C878.074 119.598 879.13 115.405 880.834 109.202L895.456 54.9078C896.41 51.4314 898.455 49.6931 901.591 49.6931H919.894C923.916 49.6931 925.04 52.3516 923.268 57.6686L888.81 161.35C884.788 173.483 879.846 182.958 873.984 189.775C868.121 196.592 859.976 200 849.546 200C843.82 200 838.708 199.523 834.209 198.568C831.618 198.023 830.63 196.251 831.243 193.251L833.493 182.004C834.106 179.073 835.845 178.05 838.708 178.936C840.821 179.618 842.798 179.959 844.638 179.959C850.16 179.959 854.352 177.335 857.215 172.086C860.146 166.837 862.089 162.338 863.043 158.589L863.35 157.055L829.198 57.6686Z" fill="#0084FE"/>
<path d="M13.0879 75.5556C13.0879 33.8274 46.9153 0 88.6434 0H133.851C175.579 0 209.407 33.8274 209.407 75.5556V103.313C209.407 145.041 175.58 178.868 133.851 178.868H88.6435C46.9153 178.868 13.0879 145.041 13.0879 103.313V75.5556Z" fill="#0084FE"/>
<circle cx="78.5277" cy="69.8021" r="17.4506" fill="white"/>
<circle cx="143.968" cy="69.8021" r="17.4506" fill="white"/>
<path d="M111.247 143.967C109.066 143.967 82.8901 141.786 82.8901 117.791C98.1594 126.516 124.335 126.516 139.605 117.791C139.605 139.604 115.61 143.967 111.247 143.967Z" fill="white"/>
<path d="M28.3572 113.43C27.6301 119.247 20.9407 140.478 0 178.869C37.0825 178.869 63.2583 163.6 63.2583 157.056C63.2583 152.12 38.5367 126.518 28.3572 113.43Z" fill="#0085FE"/>
</svg>
