<svg width="365" height="61" viewBox="0 0 365 61" fill="none" xmlns="http://www.w3.org/2000/svg">
<path d="M36.7864 18.7059C36.7864 10.2118 29.3862 3.30127 20.2901 3.30127C11.1922 3.30127 3.79037 10.2118 3.79028 18.7059C3.79028 27.1991 11.1921 34.1089 20.2901 34.1089C29.3862 34.1089 36.7864 27.1991 36.7864 18.7059ZM4.86661 18.7059C4.8667 10.7658 11.7857 4.30625 20.2901 4.30625C28.7927 4.30625 35.7101 10.7658 35.7101 18.7059C35.7101 26.645 28.7928 33.104 20.2901 33.104C11.7856 33.104 4.86661 26.645 4.86661 18.7059Z" fill="#FAFAFA"/>
<path d="M36.0255 36.4046H26.7746C34.6473 33.8826 40.3218 26.9015 40.3218 18.7056C40.3218 13.709 38.2381 9.01157 34.4545 5.47857C30.671 1.94564 25.6406 0 20.2902 0C14.9382 0 9.90668 1.94564 6.12267 5.47857C2.33875 9.01141 0.254883 13.7088 0.254883 18.7056C0.254883 23.7015 2.33875 28.3987 6.12258 31.9317C8.31596 33.9797 10.9287 35.493 13.7797 36.4046H4.55132C4.25407 36.4046 4.01315 36.6296 4.01315 36.9071C4.01315 37.1845 4.25407 37.4095 4.55132 37.4095H20.1679C20.2087 37.4098 20.2494 37.411 20.2902 37.411C20.3294 37.411 20.3683 37.4098 20.4074 37.4095H36.0255C36.3227 37.4095 36.5637 37.1845 36.5637 36.9071C36.5637 36.6296 36.3228 36.4046 36.0255 36.4046ZM1.33121 18.7056C1.3313 8.94541 9.83627 1.0049 20.2902 1.0049C30.7422 1.0049 39.2455 8.94541 39.2455 18.7056C39.2455 28.429 30.8056 36.3453 20.4075 36.4046H20.173C9.77277 36.3453 1.33121 28.429 1.33121 18.7056Z" fill="#FAFAFA"/>
<path d="M31.0484 39.9594H9.5284C9.23115 39.9594 8.99023 40.1844 8.99023 40.4619C8.99023 40.7393 9.23115 40.9643 9.5284 40.9643H31.0484C31.3456 40.9643 31.5866 40.7393 31.5866 40.4619C31.5866 40.1844 31.3456 39.9594 31.0484 39.9594Z" fill="#FAFAFA"/>
<path d="M16.4137 9.47505C16.3324 9.47505 16.2522 9.47891 16.1725 9.48485C15.7926 9.36333 15.3952 9.30103 14.9895 9.30103C13.1204 9.30103 11.5759 10.6205 11.3662 12.3142C10.8282 12.6078 10.4141 13.0567 10.1777 13.5816C9.01545 14.1841 8.29709 15.314 8.29709 16.5596C8.29709 17.0603 8.41782 17.5525 8.64511 18.003C8.11322 18.595 7.79211 19.3574 7.79211 20.1887C7.79211 21.0666 8.14013 21.8845 8.77579 22.5163C8.72915 22.7333 8.70439 22.9576 8.70439 23.1872C8.70439 25.0279 9.93141 26.3969 11.6718 26.569C12.122 27.4773 13.1068 28.1094 14.2475 28.1094C14.7017 28.1094 15.1451 28.0088 15.5447 27.8165C15.8237 27.8957 16.1149 27.9357 16.4137 27.9357C18.0855 27.9357 19.4456 26.6672 19.4456 25.1082C19.4456 25.0999 19.4447 25.0918 19.4443 25.0836C19.4446 25.0754 19.4456 25.0674 19.4456 25.0591V12.0996C19.4456 12.0472 19.437 11.9967 19.4211 11.9493C19.2339 10.5564 17.9571 9.47505 16.4137 9.47505ZM9.9872 15.0027C10.1084 15.744 10.5598 16.385 11.1963 16.7908C10.5769 16.8292 9.99966 17.0123 9.50258 17.3045C9.41809 17.065 9.37333 16.8138 9.37333 16.5594C9.37333 15.9764 9.59739 15.4294 9.9872 15.0027ZM16.4137 26.9305C16.1621 26.9305 15.9202 26.8868 15.6946 26.8006C15.5319 26.7384 15.347 26.7543 15.1991 26.8433C14.9156 27.014 14.5865 27.1042 14.2474 27.1042C13.2766 27.1042 12.4869 26.3669 12.4869 25.4608C12.4869 24.6458 13.1367 23.946 13.9984 23.833C14.2927 23.7945 14.4978 23.5404 14.4566 23.2656C14.4152 22.9909 14.1434 22.7991 13.8488 22.8379C12.4587 23.0201 11.4106 24.1477 11.4106 25.4608C11.4106 25.4743 11.4115 25.4877 11.4116 25.5013C10.4263 25.2392 9.78063 24.3607 9.78063 23.187C9.78063 21.8628 10.9345 20.7854 12.3527 20.7854C12.6499 20.7854 12.8909 20.5604 12.8909 20.2829C12.8909 20.0055 12.6499 19.7804 12.3527 19.7804C11.0318 19.7804 9.87266 20.4393 9.23224 21.4235C8.99527 21.0555 8.86835 20.6331 8.86835 20.1885C8.86835 18.8644 10.0221 17.7872 11.4402 17.7872C11.7374 17.7872 11.9784 17.5622 11.9784 17.2847C11.9784 17.2317 11.9694 17.1805 11.953 17.1324C12.2182 17.2092 12.4998 17.2506 12.7916 17.2506C13.0887 17.2506 13.3297 17.0255 13.3297 16.7481C13.3297 16.4706 13.0887 16.2456 12.7916 16.2456C11.8208 16.2456 11.0311 15.5079 11.0311 14.6014C11.0311 14.2066 11.1858 13.8314 11.4515 13.5389C11.85 15.0167 13.2849 16.1139 14.9894 16.1139C15.2866 16.1139 15.5276 15.8889 15.5276 15.6115C15.5276 15.334 15.2866 15.109 14.9894 15.109C13.5712 15.109 12.4174 14.0316 12.4174 12.7074C12.4174 11.6624 13.1361 10.7717 14.136 10.4423C13.6692 10.94 13.3854 11.5908 13.3854 12.3027C13.3854 12.5802 13.6264 12.8052 13.9236 12.8052C14.2208 12.8052 14.4618 12.5802 14.4618 12.3027C14.4618 11.2977 15.3374 10.4799 16.4137 10.4799C17.492 10.4799 18.3693 11.2977 18.3693 12.3027V25.0588C18.3693 25.0671 18.3702 25.0751 18.3706 25.0833C18.3703 25.0915 18.3693 25.0996 18.3693 25.1078C18.3693 26.1128 17.492 26.9305 16.4137 26.9305Z" fill="#FAFAFA"/>
<path d="M21.1349 12.3057V25.0586C21.1349 25.0668 21.1358 25.0749 21.1363 25.0831C21.1358 25.0913 21.1349 25.0993 21.1349 25.1076C21.1349 26.6667 22.4934 27.9351 24.1634 27.9351C24.4622 27.9351 24.7534 27.8951 25.0325 27.816C25.4322 28.0083 25.8756 28.1088 26.3297 28.1088C27.4704 28.1088 28.4552 27.4768 28.9054 26.5685C30.6457 26.3962 31.8726 25.0274 31.8726 23.1867C31.8726 22.9571 31.8478 22.7329 31.8012 22.5159C32.4368 21.8841 32.7849 21.066 32.7849 20.1882C32.7849 19.3568 32.4638 18.5944 31.9319 18.0024C32.1591 17.5518 32.2799 17.0596 32.2799 16.559C32.2799 15.3134 31.5618 14.1835 30.3997 13.5809C30.1633 13.0553 29.7491 12.6063 29.2106 12.3133C29.0007 10.6198 27.4564 9.30054 25.5873 9.30054C25.1819 9.30054 24.7846 9.36293 24.4044 9.48436C24.3247 9.4785 24.2445 9.47457 24.1633 9.47457C22.6213 9.47457 21.3458 10.5563 21.1591 11.9496C21.1433 11.9968 21.1348 12.0471 21.1348 12.0991V12.2959C21.1348 12.2981 21.1346 12.3002 21.1346 12.3023C21.1347 12.3035 21.1349 12.3045 21.1349 12.3057ZM31.0743 17.3042C30.5771 17.012 29.9998 16.8288 29.3804 16.7904C30.0171 16.3846 30.4685 15.7435 30.5895 15.002C30.9795 15.4288 31.2035 15.9759 31.2035 16.5591C31.2035 16.8134 31.1587 17.0646 31.0743 17.3042ZM24.1633 10.4796C25.2394 10.4796 26.115 11.2974 26.115 12.3024C26.115 12.5799 26.356 12.8049 26.6532 12.8049C26.9503 12.8049 27.1913 12.5799 27.1913 12.3024C27.1913 11.5905 26.9075 10.9397 26.4409 10.442C27.4407 10.7715 28.1594 11.6622 28.1594 12.7071C28.1594 14.0313 27.0056 15.1087 25.5873 15.1087C25.2902 15.1087 25.0492 15.3337 25.0492 15.6111C25.0492 15.8886 25.2902 16.1136 25.5873 16.1136C27.2923 16.1136 28.7273 15.0159 29.1255 13.5376C29.3911 13.8298 29.5457 14.2053 29.5457 14.6011C29.5457 15.5077 28.756 16.2453 27.7852 16.2453C27.488 16.2453 27.247 16.4703 27.247 16.7478C27.247 17.0252 27.488 17.2503 27.7852 17.2503C28.077 17.2503 28.3585 17.2088 28.6236 17.1321C28.6071 17.1802 28.5983 17.2313 28.5983 17.2844C28.5983 17.5619 28.8393 17.7869 29.1364 17.7869C30.5548 17.7869 31.7086 18.8641 31.7086 20.1882C31.7086 20.6328 31.5817 21.0553 31.3446 21.4233C30.7043 20.4391 29.5451 19.7801 28.2241 19.7801C27.9269 19.7801 27.6859 20.0052 27.6859 20.2826C27.6859 20.5601 27.9269 20.7851 28.2241 20.7851C29.6424 20.7851 30.7962 21.8625 30.7962 23.1867C30.7962 24.3603 30.1508 25.2389 29.1654 25.5009C29.1657 25.4874 29.1666 25.474 29.1666 25.4605C29.1666 24.1467 28.1181 23.0192 26.7278 22.8375C26.4335 22.7995 26.1615 22.9907 26.1203 23.2656C26.0791 23.5404 26.2843 23.7944 26.5787 23.8328C27.4404 23.9454 28.0903 24.6451 28.0903 25.4605C28.0903 26.3666 27.3006 27.1039 26.3298 27.1039C25.9909 27.1039 25.6617 27.0137 25.3779 26.8429C25.23 26.754 25.045 26.738 24.8826 26.8003C24.657 26.8864 24.4151 26.9302 24.1635 26.9302C23.0871 26.9302 22.2113 26.1125 22.2113 25.1076C22.2113 25.0993 22.2104 25.0913 22.21 25.0831C22.2104 25.0749 22.2113 25.0668 22.2113 25.0586V12.296C22.2149 11.2938 23.0891 10.4796 24.1633 10.4796Z" fill="#FAFAFA"/>
<path d="M5.39014 57.7487H6.50254V54.2255C6.50254 53.4554 7.04201 52.9196 7.67448 52.9196C8.29207 52.9196 8.71992 53.3289 8.71992 53.9502V57.7487H9.8286V54.1064C9.8286 53.4182 10.249 52.9196 10.9745 52.9196C11.5623 52.9196 12.046 53.247 12.046 54.0209V57.7487H13.1584V53.9167C13.1584 52.6108 12.4292 51.9597 11.3949 51.9597C10.5727 51.9597 9.9551 52.3541 9.67979 52.9643H9.62026C9.37099 52.3392 8.84641 51.9597 8.08372 51.9597C7.32848 51.9597 6.76669 52.3355 6.52859 52.9643H6.4579V52.0342H5.39014V57.7487Z" fill="#FAFAFA"/>
<path d="M17.1123 57.8641C18.3586 57.8641 19.2403 57.2502 19.4933 56.3201L18.4405 56.1303C18.2396 56.6698 17.7559 56.9451 17.1234 56.9451C16.171 56.9451 15.5311 56.3275 15.5013 55.2263H19.564V54.8319C19.564 52.7671 18.3288 51.9597 17.0341 51.9597C15.4418 51.9597 14.3926 53.1726 14.3926 54.9286C14.3926 56.7033 15.4269 57.8641 17.1123 57.8641ZM15.505 54.3929C15.5497 53.5819 16.1375 52.8787 17.0416 52.8787C17.9047 52.8787 18.4702 53.5186 18.4739 54.3929H15.505Z" fill="#FAFAFA"/>
<path d="M21.9107 54.3557C21.9107 53.4442 22.4687 52.9233 23.2426 52.9233C23.9978 52.9233 24.4555 53.4182 24.4555 54.2478V57.7487H25.5679V54.1139C25.5679 52.7001 24.7903 51.9597 23.6221 51.9597C22.7627 51.9597 22.2009 52.3578 21.9367 52.9643H21.866V52.0342H20.7983V57.7487H21.9107V54.3557Z" fill="#FAFAFA"/>
<path d="M29.7273 52.0342H28.5554V50.665H27.443V52.0342H26.6059V52.9271H27.443V56.3015C27.4392 57.3395 28.2317 57.8417 29.1097 57.8231C29.4631 57.8194 29.7013 57.7524 29.8315 57.7041L29.6306 56.7851C29.5562 56.8 29.4185 56.8335 29.2399 56.8335C28.879 56.8335 28.5554 56.7145 28.5554 56.0708V52.9271H29.7273V52.0342Z" fill="#FAFAFA"/>
<path d="M33.3594 57.8641C34.6057 57.8641 35.4874 57.2502 35.7404 56.3201L34.6876 56.1303C34.4867 56.6698 34.003 56.9451 33.3705 56.9451C32.4181 56.9451 31.7782 56.3275 31.7484 55.2263H35.8111V54.8319C35.8111 52.7671 34.5759 51.9597 33.2812 51.9597C31.6889 51.9597 30.6397 53.1726 30.6397 54.9286C30.6397 56.7033 31.674 57.8641 33.3594 57.8641ZM31.7521 54.3929C31.7968 53.5819 32.3846 52.8787 33.2887 52.8787C34.1518 52.8787 34.7173 53.5186 34.721 54.3929H31.7521Z" fill="#FAFAFA"/>
<path d="M121.037 7.85609C121.869 7.85609 122.682 7.62572 123.374 7.1941C124.066 6.76248 124.605 6.149 124.923 5.43125C125.242 4.71349 125.325 3.92369 125.163 3.16172C125 2.39976 124.6 1.69985 124.011 1.1505C123.423 0.601153 122.673 0.227043 121.857 0.0754781C121.041 -0.0760865 120.195 0.00170199 119.427 0.299006C118.658 0.596311 118.001 1.09978 117.539 1.74574C117.076 2.39171 116.83 3.15115 116.83 3.92805C116.83 4.96983 117.273 5.96894 118.062 6.7056C118.851 7.44225 119.921 7.85609 121.037 7.85609V7.85609ZM121.037 1.1223C121.631 1.1223 122.212 1.28685 122.706 1.59515C123.2 1.90345 123.585 2.34165 123.813 2.85433C124.04 3.36702 124.1 3.93116 123.984 4.47542C123.868 5.01968 123.582 5.51962 123.161 5.91201C122.741 6.3044 122.206 6.57162 121.623 6.67988C121.04 6.78814 120.436 6.73258 119.887 6.52022C119.338 6.30786 118.868 5.94824 118.538 5.48684C118.208 5.02543 118.032 4.48297 118.032 3.92805C118.032 3.18392 118.348 2.47026 118.912 1.94408C119.475 1.41791 120.24 1.1223 121.037 1.1223V1.1223Z" fill="#FAFAFA"/>
<path d="M137.263 9.53942H132.522L136.608 7.62028C136.891 7.48803 137.144 7.30493 137.351 7.08149C137.558 6.85804 137.715 6.59864 137.815 6.31816C137.914 6.03768 137.953 5.74164 137.93 5.44702C137.906 5.1524 137.821 4.86499 137.678 4.60128C137.391 4.07017 136.89 3.66722 136.285 3.48098C135.68 3.29474 135.02 3.34044 134.451 3.60804L121.824 9.53942H120.322L107.695 3.60804C107.126 3.34044 106.466 3.29474 105.861 3.48098C105.256 3.66722 104.755 4.07017 104.467 4.60128C104.181 5.13264 104.132 5.7485 104.331 6.31354C104.531 6.87858 104.962 7.34656 105.531 7.61466L109.618 9.53942H104.81C104.172 9.53942 103.561 9.7759 103.11 10.1968C102.659 10.6178 102.406 11.1887 102.406 11.784C102.406 12.3793 102.659 12.9503 103.11 13.3712C103.561 13.7921 104.172 14.0286 104.81 14.0286H115.628V20.5997L106.379 33.9944C106.21 34.2442 106.096 34.5224 106.043 34.8134C105.99 35.1043 105.999 35.4021 106.069 35.6898C106.14 35.9775 106.27 36.2495 106.453 36.4901C106.636 36.7307 106.868 36.9352 107.136 37.092L107.641 37.3894C108.024 37.6157 108.467 37.7363 108.921 37.7373C109.099 37.7369 109.276 37.7181 109.45 37.6812C109.758 37.6159 110.049 37.4946 110.307 37.3242C110.565 37.1537 110.784 36.9376 110.952 36.6879L115.628 29.7409V38.7193C115.628 39.3146 115.881 39.8856 116.332 40.3065C116.783 40.7274 117.394 40.9639 118.032 40.9639H119.234C119.575 40.9635 119.912 40.8953 120.223 40.7637C120.534 40.6321 120.811 40.4402 121.037 40.2008C121.262 40.4402 121.539 40.6321 121.85 40.7637C122.161 40.8953 122.498 40.9635 122.84 40.9639H124.042C124.679 40.9639 125.291 40.7274 125.742 40.3065C126.192 39.8856 126.446 39.3146 126.446 38.7193V29.7409L131.115 36.6655C131.284 36.9151 131.503 37.1313 131.761 37.3017C132.019 37.4722 132.31 37.5935 132.618 37.6587C132.793 37.6961 132.973 37.7149 133.153 37.7149C133.604 37.7128 134.046 37.5923 134.427 37.3669L134.938 37.0695C135.206 36.9123 135.438 36.7072 135.621 36.4659C135.804 36.2246 135.934 35.952 136.004 35.6637C136.074 35.3753 136.082 35.077 136.028 34.7857C135.974 34.4944 135.859 34.216 135.689 33.9664L126.446 20.5997V14.0286H137.263C137.901 14.0286 138.513 13.7921 138.963 13.3712C139.414 12.9503 139.667 12.3793 139.667 11.784C139.667 11.1887 139.414 10.6178 138.963 10.1968C138.513 9.7759 137.901 9.53942 137.263 9.53942ZM134.992 4.60689C135.133 4.5403 135.287 4.5004 135.445 4.48947C135.602 4.47854 135.761 4.4968 135.911 4.5432C136.061 4.58959 136.2 4.66322 136.32 4.75985C136.44 4.85649 136.538 4.97423 136.608 5.10632C136.693 5.26102 136.736 5.43225 136.735 5.60574C136.735 5.81608 136.672 6.02231 136.553 6.2009C136.434 6.37949 136.264 6.52326 136.062 6.61581L129.847 9.53942H124.498L134.992 4.60689ZM106.066 6.6102C105.869 6.51617 105.703 6.37314 105.588 6.1969C105.472 6.02065 105.411 5.81802 105.411 5.61135C105.41 5.43611 105.453 5.26315 105.537 5.10632C105.608 4.97423 105.706 4.85649 105.826 4.75985C105.945 4.66322 106.084 4.58959 106.234 4.5432C106.385 4.4968 106.543 4.47854 106.701 4.48947C106.859 4.5004 107.013 4.5403 107.154 4.60689L117.647 9.53942H112.298L106.066 6.6102ZM109.936 36.0875C109.765 36.3366 109.495 36.5123 109.186 36.5764C108.876 36.6405 108.552 36.5878 108.284 36.4298L107.773 36.1324C107.504 35.9741 107.313 35.723 107.242 35.4338C107.172 35.1446 107.226 34.841 107.394 34.5892L115.628 22.6704V27.659L109.936 36.0875ZM134.673 34.5836C134.758 34.7082 134.815 34.847 134.842 34.9922C134.869 35.1375 134.865 35.2863 134.831 35.4301C134.796 35.5739 134.731 35.71 134.64 35.8305C134.549 35.951 134.434 36.0536 134.301 36.1324L133.784 36.4354C133.515 36.5929 133.19 36.6448 132.881 36.5796C132.571 36.5144 132.302 36.3375 132.131 36.0875L126.446 27.659V22.6704L134.673 34.5836ZM137.263 12.9063H125.244V38.7193C125.244 39.017 125.117 39.3024 124.892 39.5129C124.666 39.7234 124.36 39.8416 124.042 39.8416H122.84C122.521 39.8416 122.215 39.7234 121.99 39.5129C121.764 39.3024 121.638 39.017 121.638 38.7193V23.5682H120.436V38.7193C120.436 39.017 120.309 39.3024 120.084 39.5129C119.858 39.7234 119.553 39.8416 119.234 39.8416H118.032C117.713 39.8416 117.407 39.7234 117.182 39.5129C116.956 39.3024 116.83 39.017 116.83 38.7193V12.9063H104.81C104.491 12.9063 104.185 12.7881 103.96 12.5776C103.735 12.3671 103.608 12.0817 103.608 11.784C103.608 11.4864 103.735 11.2009 103.96 10.9904C104.185 10.78 104.491 10.6617 104.81 10.6617H137.263C137.582 10.6617 137.888 10.78 138.113 10.9904C138.339 11.2009 138.465 11.4864 138.465 11.784C138.465 12.0817 138.339 12.3671 138.113 12.5776C137.888 12.7881 137.582 12.9063 137.263 12.9063Z" fill="#FAFAFA"/>
<path d="M106.439 56.5801C107.789 56.5801 108.663 55.7691 108.786 54.6567H107.704C107.562 55.2743 107.082 55.6389 106.446 55.6389C105.505 55.6389 104.898 54.8539 104.898 53.6075C104.898 52.3835 105.516 51.6134 106.446 51.6134C107.153 51.6134 107.584 52.0598 107.704 52.5956H108.786C108.667 51.4422 107.726 50.6758 106.427 50.6758C104.816 50.6758 103.775 51.8887 103.775 53.6336C103.775 55.3561 104.779 56.5801 106.439 56.5801Z" fill="#FAFAFA"/>
<path d="M113.596 54.0949C113.599 55.0659 112.878 55.5273 112.253 55.5273C111.564 55.5273 111.088 55.0287 111.088 54.2512V50.7502H109.976V54.3851C109.976 55.8026 110.753 56.5392 111.851 56.5392C112.71 56.5392 113.294 56.0853 113.559 55.4752H113.618V56.4648H114.712V50.7502H113.596V54.0949Z" fill="#FAFAFA"/>
<path d="M118.67 56.5801C119.916 56.5801 120.798 55.9663 121.051 55.0362L119.998 54.8464C119.797 55.3859 119.313 55.6612 118.681 55.6612C117.728 55.6612 117.088 55.0436 117.059 53.9424H121.121V53.548C121.121 51.4832 119.886 50.6758 118.591 50.6758C116.999 50.6758 115.95 51.8887 115.95 53.6447C115.95 55.4194 116.984 56.5801 118.67 56.5801ZM117.062 53.109C117.107 52.2979 117.695 51.5948 118.599 51.5948C119.462 51.5948 120.027 52.2347 120.031 53.109H117.062Z" fill="#FAFAFA"/>
<path d="M122.356 56.4648H123.468V52.9751C123.468 52.2273 124.045 51.6878 124.833 51.6878C125.064 51.6878 125.324 51.7287 125.414 51.7548V50.6907C125.302 50.6758 125.083 50.6647 124.941 50.6647C124.272 50.6647 123.699 51.0442 123.49 51.658H123.431V50.7502H122.356V56.4648Z" fill="#FAFAFA"/>
<path d="M126.376 58.6078H127.489V55.5756H127.556C127.757 55.9402 128.166 56.5764 129.208 56.5764C130.592 56.5764 131.596 55.4677 131.596 53.6187C131.596 51.7659 130.577 50.6758 129.196 50.6758C128.136 50.6758 127.753 51.3232 127.556 51.6766H127.463V50.7502H126.376V58.6078ZM127.466 53.6075C127.466 52.4133 127.987 51.6208 128.958 51.6208C129.967 51.6208 130.473 52.4728 130.473 53.6075C130.473 54.7534 129.952 55.6277 128.958 55.6277C128.002 55.6277 127.466 54.8092 127.466 53.6075Z" fill="#FAFAFA"/>
<path d="M135.25 56.5801C136.861 56.5801 137.913 55.4008 137.913 53.6336C137.913 51.8552 136.861 50.6758 135.25 50.6758C133.639 50.6758 132.586 51.8552 132.586 53.6336C132.586 55.4008 133.639 56.5801 135.25 56.5801ZM135.253 55.6463C134.2 55.6463 133.709 54.7274 133.709 53.6299C133.709 52.536 134.2 51.6059 135.253 51.6059C136.299 51.6059 136.79 52.536 136.79 53.6299C136.79 54.7274 136.299 55.6463 135.253 55.6463Z" fill="#FAFAFA"/>
<path d="M224.748 9.55829H222.984C221.226 9.55829 219.574 10.1974 218.331 11.3581L209.807 19.3166C209.67 19.4446 209.593 19.6183 209.593 19.7993C209.593 19.9803 209.67 20.154 209.807 20.282L213.463 23.6957C213.749 23.9624 214.212 23.9624 214.497 23.6957L221.292 17.3511V24.4631L215.483 40.057C215.406 40.2657 215.441 40.4967 215.578 40.6771C215.716 40.8571 215.938 40.9641 216.174 40.9641H222.755C223.066 40.9641 223.343 40.7801 223.445 40.5057L228.645 26.5483L234.504 40.5301C234.614 40.7918 234.884 40.9641 235.185 40.9641H241.766C242.008 40.9641 242.234 40.8528 242.37 40.6664C242.507 40.4797 242.535 40.2427 242.447 40.0327L235.917 24.4498V17.3511L242.712 23.6957C242.997 23.9624 243.46 23.9624 243.746 23.6957L247.402 20.282C247.539 20.154 247.616 19.9803 247.616 19.7993C247.616 19.6183 247.539 19.4446 247.402 19.3166L238.878 11.3581C237.635 10.1974 235.983 9.55829 234.225 9.55829H232.461C233.68 8.55657 234.454 7.09367 234.454 5.46188C234.454 2.45025 231.83 0 228.604 0C225.379 0 222.755 2.45025 222.755 5.46188C222.755 7.09367 223.529 8.55657 224.748 9.55829ZM234.225 10.9238C235.592 10.9238 236.877 11.4208 237.844 12.3236L245.851 19.7993L243.229 22.2476L235.702 15.2202C235.493 15.0248 235.179 14.9672 234.905 15.0722C234.632 15.1779 234.454 15.4269 234.454 15.7029V24.5785C234.454 24.6635 234.471 24.7478 234.504 24.8272L240.695 39.5986H235.684L229.286 24.3298C229.176 24.0677 228.905 23.8957 228.604 23.8957C228.6 23.8957 228.595 23.8957 228.59 23.8957C228.285 23.9014 228.015 24.0841 227.914 24.3541L222.235 39.5986H217.202L222.714 24.8028C222.741 24.7305 222.755 24.6548 222.755 24.5785V15.7029C222.755 15.4269 222.577 15.1779 222.304 15.0722C222.03 14.9668 221.716 15.0248 221.507 15.2202L213.98 22.2476L211.358 19.7993L219.365 12.3236C220.332 11.4208 221.617 10.9238 222.984 10.9238H234.225ZM228.604 1.36547C231.024 1.36547 232.992 3.20299 232.992 5.46188C232.992 7.72077 231.024 9.55829 228.604 9.55829C226.185 9.55829 224.217 7.72077 224.217 5.46188C224.217 3.20299 226.185 1.36547 228.604 1.36547Z" fill="#FAFAFA"/>
<path d="M228.101 20.9778C228.243 21.1028 228.423 21.1651 228.605 21.1651C228.786 21.1651 228.967 21.1028 229.108 20.9778L232.244 18.1991C232.726 17.772 232.992 17.2013 232.992 16.5922C232.992 15.9832 232.726 15.4124 232.244 14.9854C231.275 14.1279 229.698 14.1266 228.729 14.9854C228.728 14.9854 228.728 14.9854 228.728 14.9857L228.605 15.0951L228.48 14.9854C227.513 14.1273 225.935 14.1266 224.966 14.9854C224.483 15.4124 224.217 15.9832 224.217 16.5922C224.217 17.2013 224.483 17.772 224.965 18.1991L228.101 20.9778ZM225.972 15.9762C226.179 15.7925 226.451 15.7008 226.723 15.7008C226.995 15.7008 227.267 15.7925 227.474 15.9758L228.101 16.5316C228.384 16.7816 228.825 16.7816 229.108 16.5316L229.735 15.9758C230.149 15.6091 230.823 15.6094 231.238 15.9762C231.426 16.1428 231.529 16.3615 231.529 16.5922C231.529 16.8229 231.426 17.0416 231.237 17.2083L228.605 19.5413L225.971 17.2083C225.783 17.0416 225.68 16.8229 225.68 16.5922C225.68 16.3615 225.783 16.1428 225.972 15.9762Z" fill="#FAFAFA"/>
<path d="M243.763 6.64142C243.405 6.30006 243.032 5.96937 242.656 5.65869L241.688 6.68209C242.037 6.97077 242.384 7.27879 242.719 7.59681L243.763 6.64142Z" fill="#FAFAFA"/>
<path d="M244.556 9.62269L245.737 8.81663C245.436 8.43326 245.118 8.05656 244.791 7.69653L243.676 8.57928C243.98 8.91463 244.277 9.26566 244.556 9.62269Z" fill="#FAFAFA"/>
<path d="M238.926 3.18891C238.482 2.95721 238.024 2.73851 237.565 2.53882L236.947 3.77633C237.373 3.96202 237.8 4.16538 238.213 4.38108L238.926 3.18891Z" fill="#FAFAFA"/>
<path d="M246.064 11.8717L247.356 11.2323C247.118 10.8126 246.861 10.397 246.593 9.99695L245.353 10.7216C245.603 11.094 245.842 11.481 246.064 11.8717Z" fill="#FAFAFA"/>
<path d="M248.319 19.4904L249.78 19.4178C249.752 18.9417 249.707 18.464 249.644 17.9976L248.193 18.1676C248.251 18.6016 248.294 19.0467 248.319 19.4904Z" fill="#FAFAFA"/>
<path d="M247.208 14.3002L248.586 13.8415C248.416 13.3954 248.226 12.9494 248.021 12.5156L246.682 13.067C246.873 13.4701 247.05 13.8852 247.208 14.3002Z" fill="#FAFAFA"/>
<path d="M247.698 29.1001L246.383 28.5048C246.178 28.8988 245.954 29.2935 245.717 29.6779L246.983 30.3599C247.238 29.9472 247.479 29.5235 247.698 29.1001Z" fill="#FAFAFA"/>
<path d="M248.826 26.4529L247.432 26.0415C247.289 26.4642 247.129 26.8846 246.955 27.2903L248.313 27.7964C248.5 27.3593 248.673 26.9073 248.826 26.4529Z" fill="#FAFAFA"/>
<path d="M246.173 31.5678L244.962 30.8024C244.699 31.1651 244.417 31.5254 244.123 31.8738L245.271 32.7192C245.587 32.3448 245.891 31.9575 246.173 31.5678Z" fill="#FAFAFA"/>
<path d="M242.208 33.8363L243.216 34.8257C243.582 34.5003 243.941 34.1576 244.284 33.8069L243.203 32.8868C242.884 33.2135 242.55 33.5329 242.208 33.8363Z" fill="#FAFAFA"/>
<path d="M247.966 16.8565L249.4 16.5898C249.301 16.1224 249.181 15.6553 249.047 15.2013L247.637 15.566C247.762 15.9877 247.873 16.4217 247.966 16.8565Z" fill="#FAFAFA"/>
<path d="M249.534 23.6809L248.09 23.4615C248.014 23.8966 247.921 24.3343 247.812 24.7627L249.235 25.078C249.352 24.618 249.452 24.148 249.534 23.6809Z" fill="#FAFAFA"/>
<path d="M249.806 20.8422L248.344 20.8188C248.336 21.2595 248.31 21.7052 248.268 22.1436L249.725 22.2656C249.77 21.7946 249.797 21.3159 249.806 20.8422Z" fill="#FAFAFA"/>
<path d="M241.477 4.75349C241.077 4.46747 240.658 4.18978 240.232 3.9281L239.429 5.06951C239.826 5.31286 240.216 5.57154 240.589 5.83756L241.477 4.75349Z" fill="#FAFAFA"/>
<path d="M208.939 22.1215C208.898 21.6855 208.873 21.2391 208.865 20.7947L207.403 20.818C207.412 21.2947 207.438 21.7735 207.483 22.2415L208.939 22.1215Z" fill="#FAFAFA"/>
<path d="M209.019 18.1441L207.568 17.972C207.505 18.4381 207.459 18.9158 207.431 19.3919L208.89 19.4666C208.917 19.0228 208.96 18.5778 209.019 18.1441Z" fill="#FAFAFA"/>
<path d="M209.579 15.5429L208.169 15.1782C208.035 15.6309 207.916 16.0973 207.814 16.5647L209.248 16.8347C209.342 16.399 209.453 15.9646 209.579 15.5429Z" fill="#FAFAFA"/>
<path d="M220.285 3.76681L219.668 2.52869C219.207 2.72871 218.749 2.94672 218.307 3.17675L219.018 4.36953C219.43 4.15585 219.856 3.95316 220.285 3.76681Z" fill="#FAFAFA"/>
<path d="M211.87 10.7013L210.63 9.97583C210.361 10.3776 210.103 10.7926 209.866 11.21L211.157 11.8508C211.378 11.4624 211.618 11.0757 211.87 10.7013Z" fill="#FAFAFA"/>
<path d="M210.536 13.0449L209.198 12.4939C208.991 12.9329 208.8 13.3786 208.632 13.8186L210.009 14.2773C210.165 13.8686 210.343 13.4539 210.536 13.0449Z" fill="#FAFAFA"/>
<path d="M215.541 6.66659L214.573 5.64319C214.19 5.95888 213.818 6.2889 213.465 6.62459L214.509 7.58066C214.838 7.2683 215.185 6.96061 215.541 6.66659Z" fill="#FAFAFA"/>
<path d="M214.99 33.8271C214.643 33.5177 214.309 33.1981 213.996 32.8767L212.914 33.7948C213.25 34.1401 213.609 34.4831 213.981 34.8145L214.99 33.8271Z" fill="#FAFAFA"/>
<path d="M213.549 8.56165L212.435 7.67688C212.106 8.03792 211.787 8.41463 211.488 8.79634L212.668 9.6031C212.946 9.24806 213.243 8.89769 213.549 8.56165Z" fill="#FAFAFA"/>
<path d="M210.247 27.2745C210.072 26.8641 209.912 26.4431 209.77 26.0231L208.375 26.4338C208.528 26.8848 208.7 27.3371 208.887 27.7778L210.247 27.2745Z" fill="#FAFAFA"/>
<path d="M217.801 5.05718L217 3.91443C216.579 4.17178 216.16 4.44913 215.754 4.73782L216.64 5.82389C217.018 5.55454 217.409 5.29652 217.801 5.05718Z" fill="#FAFAFA"/>
<path d="M207.671 23.6569C207.751 24.1226 207.852 24.5937 207.97 25.057L209.392 24.7423C209.283 24.311 209.189 23.8729 209.115 23.4402L207.671 23.6569Z" fill="#FAFAFA"/>
<path d="M211.484 29.6638C211.25 29.2838 211.026 28.8887 210.819 28.4894L209.503 29.0848C209.725 29.5131 209.965 29.9372 210.217 30.3452L211.484 29.6638Z" fill="#FAFAFA"/>
<path d="M213.076 31.8619C212.786 31.5182 212.504 31.1579 212.238 30.7902L211.027 31.5549C211.312 31.9499 211.616 32.3376 211.928 32.7073L213.076 31.8619Z" fill="#FAFAFA"/>
<path d="M229.366 40.2684C229.875 40.2511 230.388 40.2164 230.891 40.1651L230.731 38.8077C230.264 38.8557 229.787 38.8877 229.313 38.9037L229.366 40.2684Z" fill="#FAFAFA"/>
<path d="M227.838 40.2688L227.892 38.9041C227.421 38.8881 226.944 38.8557 226.473 38.8077L226.315 40.1651C226.82 40.2164 227.333 40.2514 227.838 40.2688Z" fill="#FAFAFA"/>
<path d="M204.471 58.7046C205.718 58.7046 206.599 58.0908 206.852 57.1607L205.799 56.9709C205.599 57.5104 205.115 57.7857 204.482 57.7857C203.53 57.7857 202.89 57.1681 202.86 56.0669H206.923V55.6725C206.923 53.6077 205.688 52.8003 204.393 52.8003C202.801 52.8003 201.752 54.0132 201.752 55.7692C201.752 57.5439 202.786 58.7046 204.471 58.7046ZM202.864 55.2335C202.909 54.4224 203.496 53.7193 204.401 53.7193C205.264 53.7193 205.829 54.3592 205.833 55.2335H202.864Z" fill="#FAFAFA"/>
<path d="M208.157 58.5893H209.27V55.0661C209.27 54.2959 209.809 53.7602 210.442 53.7602C211.059 53.7602 211.487 54.1694 211.487 54.7907V58.5893H212.596V54.947C212.596 54.2587 213.016 53.7602 213.742 53.7602C214.329 53.7602 214.813 54.0876 214.813 54.8614V58.5893H215.925V54.7573C215.925 53.4514 215.196 52.8003 214.162 52.8003C213.34 52.8003 212.722 53.1947 212.447 53.8048H212.387C212.138 53.1798 211.614 52.8003 210.851 52.8003C210.096 52.8003 209.534 53.1761 209.296 53.8048H209.225V52.8747H208.157V58.5893Z" fill="#FAFAFA"/>
<path d="M219.824 58.7046C221.434 58.7046 222.487 57.5253 222.487 55.7581C222.487 53.9797 221.434 52.8003 219.824 52.8003C218.213 52.8003 217.16 53.9797 217.16 55.7581C217.16 57.5253 218.213 58.7046 219.824 58.7046ZM219.827 57.7708C218.774 57.7708 218.283 56.8519 218.283 55.7543C218.283 54.6605 218.774 53.7304 219.827 53.7304C220.873 53.7304 221.364 54.6605 221.364 55.7543C221.364 56.8519 220.873 57.7708 219.827 57.7708Z" fill="#FAFAFA"/>
<path d="M226.136 58.7046C227.487 58.7046 228.361 57.8936 228.484 56.7812H227.401C227.26 57.3988 226.78 57.7634 226.144 57.7634C225.202 57.7634 224.596 56.9784 224.596 55.732C224.596 54.508 225.214 53.7379 226.144 53.7379C226.851 53.7379 227.282 54.1843 227.401 54.7201H228.484C228.365 53.5667 227.423 52.8003 226.125 52.8003C224.514 52.8003 223.472 54.0132 223.472 55.7581C223.472 57.4806 224.477 58.7046 226.136 58.7046Z" fill="#FAFAFA"/>
<path d="M229.673 58.5893H230.786V52.8747H229.673V58.5893ZM230.235 51.993C230.618 51.993 230.938 51.6954 230.938 51.3308C230.938 50.9661 230.618 50.6648 230.235 50.6648C229.848 50.6648 229.532 50.9661 229.532 51.3308C229.532 51.6954 229.848 51.993 230.235 51.993Z" fill="#FAFAFA"/>
<path d="M234.689 58.7046C236.3 58.7046 237.353 57.5253 237.353 55.7581C237.353 53.9797 236.3 52.8003 234.689 52.8003C233.078 52.8003 232.026 53.9797 232.026 55.7581C232.026 57.5253 233.078 58.7046 234.689 58.7046ZM234.693 57.7708C233.64 57.7708 233.149 56.8519 233.149 55.7543C233.149 54.6605 233.64 53.7304 234.693 53.7304C235.739 53.7304 236.23 54.6605 236.23 55.7543C236.23 56.8519 235.739 57.7708 234.693 57.7708Z" fill="#FAFAFA"/>
<path d="M239.707 55.1963C239.707 54.2848 240.265 53.7639 241.039 53.7639C241.795 53.7639 242.252 54.2587 242.252 55.0884V58.5893H243.365V54.9544C243.365 53.5407 242.587 52.8003 241.419 52.8003C240.559 52.8003 239.998 53.1984 239.733 53.8048H239.663V52.8747H238.595V58.5893H239.707V55.1963Z" fill="#FAFAFA"/>
<path d="M247.319 58.7046C248.566 58.7046 249.447 58.0908 249.7 57.1607L248.648 56.9709C248.447 57.5104 247.963 57.7857 247.331 57.7857C246.378 57.7857 245.738 57.1681 245.708 56.0669H249.771V55.6725C249.771 53.6077 248.536 52.8003 247.241 52.8003C245.649 52.8003 244.6 54.0132 244.6 55.7692C244.6 57.5439 245.634 58.7046 247.319 58.7046ZM245.712 55.2335C245.757 54.4224 246.345 53.7193 247.249 53.7193C248.112 53.7193 248.677 54.3592 248.681 55.2335H245.712Z" fill="#FAFAFA"/>
<path d="M255.288 54.2699C255.057 53.3807 254.361 52.8003 253.126 52.8003C251.835 52.8003 250.92 53.4812 250.92 54.4931C250.92 55.3042 251.411 55.8436 252.482 56.0817L253.45 56.2938C254 56.4166 254.257 56.6621 254.257 57.0193C254.257 57.462 253.785 57.808 253.055 57.808C252.389 57.808 251.962 57.5215 251.828 56.9598L250.752 57.1235C250.938 58.1354 251.779 58.7046 253.063 58.7046C254.443 58.7046 255.399 57.9717 255.399 56.9374C255.399 56.1301 254.886 55.6316 253.837 55.3897L252.929 55.1814C252.3 55.0326 252.028 54.8205 252.032 54.4336C252.028 53.9946 252.505 53.6821 253.137 53.6821C253.829 53.6821 254.149 54.0653 254.279 54.4485L255.288 54.2699Z" fill="#FAFAFA"/>
<path d="M321.854 32.0885H324.047V40.2812C324.047 40.4623 324.124 40.6359 324.262 40.764C324.399 40.892 324.585 40.9639 324.779 40.9639H332.091C332.284 40.9639 332.47 40.892 332.608 40.764C332.745 40.6359 332.822 40.4623 332.822 40.2812V32.0885H335.015C335.209 32.0885 335.395 32.0165 335.532 31.8885C335.669 31.7605 335.747 31.5868 335.747 31.4057V26.3085C335.745 25.184 335.288 24.1017 334.469 23.2778C333.649 22.4539 332.527 21.9492 331.326 21.8646C331.818 21.2742 332.087 20.5478 332.091 19.7994C332.091 18.894 331.705 18.0258 331.02 17.3856C330.334 16.7454 329.404 16.3857 328.435 16.3857C327.465 16.3857 326.535 16.7454 325.849 17.3856C325.164 18.0258 324.779 18.894 324.779 19.7994C324.782 20.5478 325.051 21.2742 325.543 21.8646C324.343 21.9492 323.22 22.4539 322.401 23.2778C321.581 24.1017 321.125 25.184 321.123 26.3085V31.4057C321.123 31.5868 321.2 31.7605 321.337 31.8885C321.474 32.0165 321.66 32.0885 321.854 32.0885ZM328.435 17.7512C328.868 17.7512 329.293 17.8713 329.653 18.0964C330.014 18.3214 330.295 18.6413 330.461 19.0156C330.627 19.3898 330.671 19.8017 330.586 20.199C330.501 20.5963 330.292 20.9612 329.986 21.2477C329.679 21.5341 329.288 21.7292 328.863 21.8082C328.437 21.8872 327.996 21.8467 327.595 21.6917C327.194 21.5366 326.852 21.2741 326.611 20.9373C326.37 20.6005 326.241 20.2045 326.241 19.7994C326.241 19.2562 326.472 18.7352 326.883 18.3511C327.295 17.967 327.853 17.7512 328.435 17.7512V17.7512ZM322.585 26.3085C322.586 25.4878 322.936 24.701 323.557 24.1207C324.179 23.5403 325.021 23.2139 325.9 23.213H330.969C331.848 23.2139 332.691 23.5403 333.312 24.1207C333.934 24.701 334.283 25.4878 334.284 26.3085V30.723H332.822V25.2612H331.359V39.5985H329.166V32.0885H327.703V39.5985H325.51V25.2612H324.047V30.723H322.585V26.3085Z" fill="#FAFAFA"/>
<path d="M364.513 2.77208L356.47 0.0411687C356.36 0.00362664 356.241 -0.00848895 356.125 0.00584909C356.008 0.0201871 355.897 0.060556 355.801 0.123533C355.704 0.18651 355.626 0.270239 355.571 0.367619C355.517 0.465 355.489 0.573161 355.489 0.682933V12.972H351.102C350.908 12.972 350.722 13.044 350.585 13.172C350.448 13.3 350.37 13.4737 350.37 13.6548V19.7993C350.37 19.9804 350.448 20.1541 350.585 20.2821C350.722 20.4101 350.908 20.4821 351.102 20.4821H361.338C361.532 20.4821 361.718 20.4101 361.855 20.2821C361.993 20.1541 362.07 19.9804 362.07 19.7993V13.6548C362.07 13.4737 361.993 13.3 361.855 13.172C361.718 13.044 361.532 12.972 361.338 12.972H356.951V6.62267L364.513 4.05561C364.654 4.00777 364.776 3.92052 364.863 3.8057C364.949 3.69087 364.995 3.55406 364.995 3.41385C364.995 3.27363 364.949 3.13682 364.863 3.022C364.776 2.90718 364.654 2.81992 364.513 2.77208ZM360.607 14.3375V19.1166H351.833V14.3375H355.489V17.0684H356.951V14.3375H360.607ZM356.951 5.16982V1.65787L362.124 3.41385L356.951 5.16982Z" fill="#FAFAFA"/>
<path d="M348.908 36.1851H336.478V37.5505H348.908C351.041 37.5505 353.087 36.7593 354.595 35.3509C356.104 33.9425 356.951 32.0323 356.951 30.0406C356.951 28.0488 356.104 26.1386 354.595 24.7302C353.087 23.3218 351.041 22.5306 348.908 22.5306H340.865C340.089 22.5306 339.345 22.2429 338.797 21.7307C338.248 21.2186 337.94 20.524 337.94 19.7997C337.94 19.0754 338.248 18.3808 338.797 17.8687C339.345 17.3565 340.089 17.0688 340.865 17.0688H346.157L343.322 19.2754L344.258 20.324L348.645 16.9104C348.727 16.8463 348.793 16.7662 348.839 16.6756C348.884 16.5849 348.908 16.4861 348.908 16.3861C348.908 16.286 348.884 16.1872 348.839 16.0966C348.793 16.006 348.727 15.9258 348.645 15.8617L344.258 12.4481L343.322 13.4968L346.157 15.7034H340.865C339.701 15.7034 338.586 16.1349 337.763 16.9031C336.94 17.6714 336.478 18.7133 336.478 19.7997C336.478 20.8861 336.94 21.928 337.763 22.6963C338.586 23.4645 339.701 23.896 340.865 23.896H348.908C350.653 23.896 352.327 24.5434 353.561 25.6957C354.796 26.8481 355.489 28.4109 355.489 30.0406C355.489 31.6702 354.796 33.2331 353.561 34.3854C352.327 35.5377 350.653 36.1851 348.908 36.1851Z" fill="#FAFAFA"/>
<path d="M317.483 61H318.596V57.9679H318.663C318.864 58.3325 319.273 58.9687 320.315 58.9687C321.699 58.9687 322.703 57.86 322.703 56.0109C322.703 54.1582 321.684 53.0681 320.303 53.0681C319.243 53.0681 318.86 53.7154 318.663 54.0689H318.57V53.1425H317.483V61ZM318.573 55.9998C318.573 54.8055 319.094 54.0131 320.065 54.0131C321.074 54.0131 321.58 54.865 321.58 55.9998C321.58 57.1457 321.059 58.02 320.065 58.02C319.109 58.02 318.573 57.2015 318.573 55.9998Z" fill="#FAFAFA"/>
<path d="M323.949 58.857H325.062V55.3673C325.062 54.6195 325.639 54.08 326.427 54.08C326.658 54.08 326.918 54.1209 327.008 54.147V53.0829C326.896 53.0681 326.677 53.0569 326.535 53.0569C325.866 53.0569 325.293 53.4364 325.084 54.0503H325.025V53.1425H323.949V58.857Z" fill="#FAFAFA"/>
<path d="M330.173 58.9724C331.784 58.9724 332.837 57.793 332.837 56.0258C332.837 54.2474 331.784 53.0681 330.173 53.0681C328.562 53.0681 327.509 54.2474 327.509 56.0258C327.509 57.793 328.562 58.9724 330.173 58.9724ZM330.177 58.0386C329.124 58.0386 328.633 57.1196 328.633 56.0221C328.633 54.9283 329.124 53.9982 330.177 53.9982C331.222 53.9982 331.713 54.9283 331.713 56.0221C331.713 57.1196 331.222 58.0386 330.177 58.0386Z" fill="#FAFAFA"/>
<path d="M334.078 61H335.191V57.9679H335.258C335.459 58.3325 335.868 58.9687 336.91 58.9687C338.294 58.9687 339.298 57.86 339.298 56.0109C339.298 54.1582 338.279 53.0681 336.898 53.0681C335.838 53.0681 335.455 53.7154 335.258 54.0689H335.165V53.1425H334.078V61ZM335.168 55.9998C335.168 54.8055 335.689 54.0131 336.66 54.0131C337.669 54.0131 338.175 54.865 338.175 55.9998C338.175 57.1457 337.654 58.02 336.66 58.02C335.704 58.02 335.168 57.2015 335.168 55.9998Z" fill="#FAFAFA"/>
<path d="M342.952 58.9724C344.563 58.9724 345.615 57.793 345.615 56.0258C345.615 54.2474 344.563 53.0681 342.952 53.0681C341.341 53.0681 340.288 54.2474 340.288 56.0258C340.288 57.793 341.341 58.9724 342.952 58.9724ZM342.955 58.0386C341.902 58.0386 341.411 57.1196 341.411 56.0221C341.411 54.9283 341.902 53.9982 342.955 53.9982C344.001 53.9982 344.492 54.9283 344.492 56.0221C344.492 57.1196 344.001 58.0386 342.955 58.0386ZM342.494 52.3798H343.383L344.536 50.6647H343.365L342.494 52.3798Z" fill="#FAFAFA"/>
<path d="M351.139 54.5376C350.909 53.6485 350.213 53.0681 348.978 53.0681C347.687 53.0681 346.772 53.7489 346.772 54.7609C346.772 55.5719 347.263 56.1114 348.334 56.3495L349.301 56.5615C349.852 56.6843 350.109 56.9299 350.109 57.287C350.109 57.7298 349.636 58.0758 348.907 58.0758C348.241 58.0758 347.813 57.7893 347.679 57.2275L346.604 57.3912C346.79 58.4032 347.631 58.9724 348.914 58.9724C350.295 58.9724 351.251 58.2395 351.251 57.2052C351.251 56.3978 350.737 55.8993 349.688 55.6575L348.781 55.4491C348.152 55.3003 347.88 55.0883 347.884 54.7013C347.88 54.2623 348.356 53.9498 348.989 53.9498C349.681 53.9498 350.001 54.333 350.131 54.7162L351.139 54.5376Z" fill="#FAFAFA"/>
<path d="M352.474 58.857H353.586V53.1425H352.474V58.857ZM353.036 52.2607C353.419 52.2607 353.739 51.9631 353.739 51.5985C353.739 51.2339 353.419 50.9325 353.036 50.9325C352.649 50.9325 352.333 51.2339 352.333 51.5985C352.333 51.9631 352.649 52.2607 353.036 52.2607Z" fill="#FAFAFA"/>
<path d="M357.75 53.1425H356.579V51.7734H355.466V53.1425H354.629V54.0354H355.466V57.4098C355.462 58.4478 356.255 58.9501 357.133 58.9315C357.486 58.9277 357.724 58.8608 357.855 58.8124L357.654 57.8935C357.579 57.9083 357.442 57.9418 357.263 57.9418C356.902 57.9418 356.579 57.8228 356.579 57.1791V54.0354H357.75V53.1425Z" fill="#FAFAFA"/>
<path d="M361.327 58.9724C362.938 58.9724 363.991 57.793 363.991 56.0258C363.991 54.2474 362.938 53.0681 361.327 53.0681C359.716 53.0681 358.663 54.2474 358.663 56.0258C358.663 57.793 359.716 58.9724 361.327 58.9724ZM361.33 58.0386C360.278 58.0386 359.786 57.1196 359.786 56.0221C359.786 54.9283 360.278 53.9982 361.33 53.9982C362.376 53.9982 362.867 54.9283 362.867 56.0221C362.867 57.1196 362.376 58.0386 361.33 58.0386Z" fill="#FAFAFA"/>
</svg>
