<svg width="1436" height="318" viewBox="0 0 1436 318" fill="none" xmlns="http://www.w3.org/2000/svg">
<path d="M160.09 316.522C131.025 316.563 102.499 308.764 77.5803 293.964C52.6613 279.164 32.292 257.924 18.6637 232.527C5.03532 207.131 -1.33651 178.539 0.233425 149.828C1.80336 121.117 11.2557 93.372 27.5738 69.5781L32.3302 72.7678C12.2352 102.129 3.10578 137.498 6.51079 172.796C9.9158 208.094 25.6426 241.116 50.9884 266.188C76.3342 291.259 109.716 306.814 145.397 310.178C181.077 313.543 216.829 304.508 246.506 284.625L249.707 289.331C223.265 307.076 192.042 316.55 160.09 316.522V316.522Z" fill="#7D65AB"/>
<path d="M290.594 249.582L286.021 246.301C307.124 216.931 317.028 181.115 313.978 145.207C310.927 109.3 295.117 75.6222 269.354 50.149C243.591 24.6757 209.54 9.05383 173.242 6.05466C136.944 3.0555 100.745 12.873 71.0675 33.7654L67.7517 29.1278C98.5395 7.53575 136.057 -2.58316 173.662 0.562517C211.267 3.70819 246.535 19.9155 273.221 46.3153C299.906 72.715 316.289 107.604 319.469 144.806C322.649 182.008 312.42 219.124 290.594 249.582Z" fill="#7D65AB"/>
<path d="M126.612 300.573C99.2767 294.295 74.3173 280.437 54.6613 260.623C35.0054 240.809 21.468 215.861 15.637 188.706L21.2394 187.529C26.8424 213.63 39.8553 237.609 58.7506 256.65C77.646 275.692 101.64 289.006 127.916 295.03L126.612 300.573Z" fill="#939393"/>
<path d="M299.901 134.661C295.126 106.889 282.007 81.1822 262.254 60.8902C242.501 40.5981 217.028 26.661 189.155 20.894L190.321 15.3516C219.325 21.3428 245.832 35.8395 266.386 56.9519C286.94 78.0644 300.587 104.813 305.549 133.711L299.901 134.661Z" fill="#939393"/>
<path d="M260.708 55.2861L201.112 114.285L205.172 118.299L264.768 59.2998L260.708 55.2861Z" fill="#939393"/>
<path d="M115.256 199.258L55.6282 258.227L59.686 262.242L119.314 203.274L115.256 199.258Z" fill="#939393"/>
<path opacity="0.1" d="M205.025 159.226C205.025 150.434 202.389 141.84 197.452 134.53C192.514 127.219 185.496 121.522 177.286 118.157C169.075 114.793 160.04 113.912 151.324 115.628C142.607 117.343 134.601 121.577 128.317 127.793C122.033 134.01 117.753 141.931 116.019 150.554C114.285 159.177 115.175 168.115 118.576 176.237C121.977 184.36 127.737 191.303 135.126 196.187C142.515 201.072 151.203 203.679 160.09 203.679C165.992 203.682 171.836 202.534 177.289 200.301C182.742 198.068 187.697 194.794 191.87 190.666C196.043 186.537 199.353 181.636 201.61 176.241C203.867 170.846 205.028 165.065 205.025 159.226V159.226Z" fill="#231F20"/>
<path d="M159.999 222.276C147.335 222.276 134.956 218.561 124.426 211.601C113.897 204.641 105.69 194.748 100.844 183.174C95.9976 171.6 94.7298 158.864 97.2003 146.577C99.6709 134.289 105.769 123.003 114.723 114.144C123.678 105.286 135.087 99.253 147.507 96.8089C159.928 94.3649 172.802 95.6192 184.501 100.413C196.201 105.208 206.201 113.326 213.236 123.743C220.272 134.16 224.027 146.406 224.027 158.934C224.027 175.734 217.281 191.845 205.274 203.724C193.266 215.603 176.98 222.276 159.999 222.276V222.276ZM159.999 101.293C148.47 101.293 137.201 104.675 127.615 111.011C118.029 117.347 110.558 126.353 106.147 136.89C101.735 147.426 100.581 159.021 102.83 170.206C105.079 181.392 110.63 191.667 118.782 199.731C126.934 207.796 137.32 213.288 148.627 215.513C159.934 217.738 171.654 216.596 182.305 212.231C192.956 207.867 202.059 200.476 208.464 190.993C214.869 181.51 218.288 170.362 218.288 158.957C218.269 143.669 212.122 129.012 201.195 118.202C190.268 107.392 175.452 101.311 159.999 101.293Z" fill="#522E88"/>
<path d="M99.6974 156.129H15.3625V161.807H99.6974V156.129Z" fill="#522E88"/>
<path d="M59.6879 55.4362L55.6294 59.4512L115.247 118.43L119.305 114.415L59.6879 55.4362Z" fill="#522E88"/>
<path d="M160.067 240.283C145.011 240.29 130.238 236.239 117.335 228.564C104.431 220.889 93.8861 209.88 86.8322 196.722C79.7783 183.563 76.4823 168.751 77.2986 153.879C78.1149 139.006 83.0125 124.634 91.4651 112.309L96.2216 115.498C86.1665 130.186 81.5967 147.88 83.2976 165.539C84.9984 183.198 92.8638 199.72 105.542 212.265C118.22 224.81 134.919 232.595 152.769 234.281C170.62 235.967 188.506 231.45 203.355 221.506L206.58 226.189C192.86 235.406 176.651 240.317 160.067 240.283V240.283Z" fill="#522E88"/>
<path d="M227.686 205.604L222.998 202.324C233.499 187.632 238.411 169.74 236.867 151.811C235.323 133.882 227.422 117.07 214.56 104.347C201.699 91.6233 184.705 83.8072 166.582 82.2797C148.459 80.7522 130.373 85.6118 115.522 95.9996L112.206 91.4751C128.159 80.2744 147.605 75.0215 167.099 76.6471C186.593 78.2727 204.875 86.6719 218.708 100.357C232.541 114.041 241.032 132.128 242.675 151.413C244.318 170.697 239.008 189.935 227.686 205.717V205.604Z" fill="#522E88"/>
<path d="M53.368 81.9276L47.7427 80.7513L53.5738 53.3557L81.2891 47.5645L82.4782 53.1295L58.4217 58.1517L53.368 81.9276Z" fill="#522E88"/>
<path d="M62.5378 90.9999L56.9353 89.8235L62.7665 62.428L90.4818 56.6367L91.6708 62.2018L67.6144 67.2239L62.5378 90.9999Z" fill="#522E88"/>
<path d="M205.247 199.325L201.188 203.34L260.806 262.318L264.864 258.303L205.247 199.325Z" fill="#522E88"/>
<path d="M239.188 270.144L237.999 264.579L262.056 259.557L267.132 235.781L272.735 236.958L266.904 264.353L239.188 270.144Z" fill="#522E88"/>
<path d="M228.921 259.965L227.732 254.422L251.788 249.4L256.842 225.602L262.467 226.778L256.613 254.196L228.921 259.965Z" fill="#522E88"/>
<path d="M163.086 26.707H157.346V98.7589H163.086V26.707Z" fill="#522E88"/>
<path d="M160.25 30.6898L136.514 15.3972L139.647 10.6465L160.25 23.9257L180.831 10.6465L183.964 15.3972L160.25 30.6898Z" fill="#522E88"/>
<path d="M163.154 218.928H157.415V290.98H163.154V218.928Z" fill="#522E88"/>
<path d="M180.831 307.065L160.227 293.786L139.647 307.065L136.514 302.314L160.227 287.021L183.964 302.314L180.831 307.065Z" fill="#522E88"/>
<path d="M29.2888 158.955C29.2888 160.745 28.7523 162.494 27.7472 163.982C26.7422 165.471 25.3136 166.63 23.6422 167.315C21.9709 168 20.1317 168.179 18.3574 167.83C16.583 167.481 14.9532 166.619 13.674 165.354C12.3948 164.088 11.5236 162.476 11.1706 160.721C10.8177 158.965 10.9988 157.146 11.6912 155.492C12.3835 153.839 13.5559 152.426 15.0601 151.431C16.5643 150.437 18.3328 149.906 20.1419 149.906C22.5678 149.906 24.8943 150.86 26.6097 152.557C28.3251 154.254 29.2888 156.555 29.2888 158.955Z" fill="#522E88"/>
<path d="M20.2332 170.742C17.8769 170.742 15.5734 170.051 13.6142 168.756C11.655 167.461 10.128 165.62 9.22623 163.466C8.3245 161.313 8.08856 158.943 8.54826 156.657C9.00796 154.37 10.1426 152.27 11.8088 150.622C13.475 148.974 15.5978 147.851 17.9089 147.396C20.22 146.942 22.6155 147.175 24.7925 148.067C26.9695 148.959 28.8301 150.47 30.1393 152.408C31.4484 154.346 32.1471 156.625 32.1471 158.956C32.1411 162.08 30.8839 165.075 28.6509 167.284C26.418 169.493 23.3912 170.736 20.2332 170.742V170.742ZM20.2332 152.848C19.0131 152.853 17.8216 153.215 16.8093 153.888C15.797 154.562 15.0092 155.518 14.5454 156.634C14.0816 157.751 13.9625 158.978 14.2033 160.162C14.4442 161.345 15.034 162.431 15.8984 163.283C16.7627 164.135 17.8629 164.715 19.0599 164.948C20.257 165.182 21.4972 165.06 22.6241 164.597C23.751 164.134 24.7139 163.351 25.3913 162.347C26.0687 161.343 26.4303 160.163 26.4303 158.956C26.4303 158.152 26.2698 157.356 25.9581 156.613C25.6464 155.871 25.1896 155.197 24.6138 154.629C24.0381 154.062 23.3548 153.612 22.603 153.307C21.8513 153.001 21.046 152.845 20.2332 152.848Z" fill="#522E88"/>
<path d="M305.481 156.129H221.146V161.807H305.481V156.129Z" fill="#522E88"/>
<path d="M291.554 158.955C291.554 157.165 292.091 155.416 293.096 153.928C294.101 152.44 295.53 151.28 297.201 150.595C298.872 149.91 300.712 149.731 302.486 150.08C304.26 150.429 305.89 151.291 307.169 152.557C308.448 153.822 309.32 155.434 309.673 157.19C310.026 158.945 309.844 160.765 309.152 162.418C308.46 164.071 307.287 165.485 305.783 166.479C304.279 167.473 302.51 168.004 300.701 168.004C298.275 168.004 295.949 167.051 294.234 165.354C292.518 163.657 291.554 161.355 291.554 158.955Z" fill="#522E88"/>
<path d="M300.61 170.742C298.254 170.742 295.95 170.051 293.991 168.756C292.032 167.461 290.505 165.62 289.603 163.466C288.701 161.313 288.466 158.943 288.925 156.657C289.385 154.37 290.52 152.27 292.186 150.622C293.852 148.974 295.975 147.851 298.286 147.396C300.597 146.942 302.992 147.175 305.169 148.067C307.346 148.959 309.207 150.47 310.516 152.408C311.825 154.346 312.524 156.625 312.524 158.956C312.518 162.08 311.261 165.075 309.028 167.284C306.795 169.493 303.768 170.736 300.61 170.742V170.742ZM300.61 152.848C299.389 152.848 298.195 153.206 297.18 153.878C296.165 154.549 295.373 155.503 294.906 156.619C294.439 157.735 294.316 158.963 294.555 160.148C294.793 161.333 295.381 162.421 296.244 163.275C297.108 164.129 298.208 164.711 299.406 164.947C300.603 165.182 301.845 165.061 302.973 164.599C304.101 164.137 305.065 163.354 305.744 162.35C306.422 161.345 306.784 160.164 306.784 158.956C306.784 158.154 306.625 157.36 306.314 156.619C306.004 155.878 305.549 155.204 304.976 154.637C304.403 154.07 303.722 153.62 302.973 153.313C302.224 153.006 301.421 152.848 300.61 152.848V152.848Z" fill="#522E88"/>
<path d="M458.924 142.201C463.924 146.201 468.824 150.401 473.624 154.801C478.624 159.001 483.024 163.701 486.824 168.901C490.824 173.901 494.024 179.601 496.424 186.001C498.824 192.201 500.024 199.301 500.024 207.301C500.024 213.301 498.824 219.001 496.424 224.401C494.224 229.601 491.124 234.201 487.124 238.201C483.324 242.001 478.824 245.101 473.624 247.501C468.424 249.701 462.824 250.801 456.824 250.801C450.824 250.801 445.124 249.701 439.724 247.501C434.524 245.101 429.924 242.001 425.924 238.201C422.124 234.201 419.024 229.601 416.624 224.401C414.424 219.001 413.324 213.301 413.324 207.301H423.224C423.224 211.901 424.124 216.301 425.924 220.501C427.724 224.501 430.124 228.001 433.124 231.001C436.124 234.001 439.624 236.401 443.624 238.201C447.824 240.001 452.224 240.901 456.824 240.901C461.424 240.901 465.724 240.001 469.724 238.201C473.724 236.401 477.224 234.001 480.224 231.001C483.224 228.001 485.624 224.501 487.424 220.501C489.224 216.301 490.124 211.901 490.124 207.301C490.124 200.501 489.024 194.401 486.824 189.001C484.824 183.601 482.024 178.701 478.424 174.301C475.024 169.701 471.024 165.501 466.424 161.701C462.024 157.701 457.424 153.801 452.624 150.001C447.824 146.201 443.024 142.301 438.224 138.301C433.624 134.101 429.424 129.601 425.624 124.801C422.024 120.001 419.024 114.701 416.624 108.901C414.424 103.101 413.324 96.4008 413.324 88.8008C413.324 82.8008 414.424 77.2008 416.624 72.0008C419.024 66.6008 422.124 62.0008 425.924 58.2008C429.924 54.2008 434.524 51.1008 439.724 48.9008C445.124 46.5008 450.824 45.3008 456.824 45.3008C462.824 45.3008 468.424 46.5008 473.624 48.9008C478.824 51.1008 483.324 54.2008 487.124 58.2008C491.124 62.0008 494.224 66.6008 496.424 72.0008C498.824 77.2008 500.024 82.8008 500.024 88.8008H490.124C490.124 84.2008 489.224 79.9008 487.424 75.9008C485.624 71.9008 483.224 68.4008 480.224 65.4008C477.224 62.4008 473.724 60.0008 469.724 58.2008C465.724 56.4008 461.424 55.5008 456.824 55.5008C452.224 55.5008 447.824 56.4008 443.624 58.2008C439.624 60.0008 436.124 62.4008 433.124 65.4008C430.124 68.4008 427.724 71.9008 425.924 75.9008C424.124 79.9008 423.224 84.2008 423.224 88.8008C423.224 95.2008 424.224 100.901 426.224 105.901C428.224 110.701 430.824 115.201 434.024 119.401C437.424 123.601 441.224 127.601 445.424 131.401C449.824 135.001 454.324 138.601 458.924 142.201Z" fill="#522E88"/>
<path d="M533.037 99.0008H543.237V109.201V247.201H533.037V109.201H523.137V99.0008H533.037ZM535.737 64.8008C533.537 64.8008 531.737 64.1008 530.337 62.7008C528.937 61.3008 528.237 59.5008 528.237 57.3008C528.237 55.1008 528.937 53.3008 530.337 51.9008C531.737 50.5008 533.537 49.8008 535.737 49.8008C537.737 49.8008 539.437 50.5008 540.837 51.9008C542.437 53.3008 543.237 55.1008 543.237 57.3008C543.237 59.5008 542.437 61.3008 540.837 62.7008C539.437 64.1008 537.737 64.8008 535.737 64.8008Z" fill="#522E88"/>
<path d="M612.212 99.9008C617.812 99.9008 623.012 101.001 627.812 103.201C632.812 105.201 637.112 108.001 640.712 111.601C644.312 115.201 647.112 119.501 649.112 124.501C651.312 129.301 652.412 134.501 652.412 140.101V175.201V249.301H642.512V175.201V140.101C642.512 135.901 641.712 132.001 640.112 128.401C638.512 124.601 636.312 121.401 633.512 118.801C630.912 116.001 627.712 113.801 623.912 112.201C620.312 110.601 616.412 109.801 612.212 109.801C608.012 109.801 604.012 110.601 600.212 112.201C596.612 113.801 593.412 116.001 590.612 118.801C588.012 121.401 585.912 124.601 584.312 128.401C582.712 132.001 581.912 135.901 581.912 140.101V175.201V249.301H572.012V175.201V140.101V101.401H581.912V113.701C585.712 109.301 590.212 105.901 595.412 103.501C600.612 101.101 606.212 99.9008 612.212 99.9008Z" fill="#522E88"/>
<path d="M685.279 175.201V210.601C685.279 214.801 685.979 218.801 687.379 222.601C688.779 226.201 690.679 229.401 693.079 232.201C695.479 234.801 698.279 236.901 701.479 238.501C704.679 240.101 708.079 240.901 711.679 240.901V250.801C706.679 250.801 701.979 249.801 697.579 247.801C693.179 245.601 689.279 242.701 685.879 239.101C682.679 235.501 680.079 231.301 678.079 226.501C676.279 221.501 675.379 216.201 675.379 210.601V175.201V111.301V101.401V59.4008H685.279V101.401H717.679V111.301H685.279V175.201Z" fill="#522E88"/>
<path d="M769.141 250.801C763.541 250.801 758.241 249.801 753.241 247.801C748.441 245.601 744.241 242.701 740.641 239.101C737.041 235.501 734.141 231.301 731.941 226.501C729.941 221.501 728.941 216.201 728.941 210.601V140.101C728.941 134.501 729.941 129.301 731.941 124.501C734.141 119.501 737.041 115.201 740.641 111.601C744.241 108.001 748.441 105.201 753.241 103.201C758.241 101.001 763.541 99.9008 769.141 99.9008C774.741 99.9008 779.941 101.001 784.741 103.201C789.741 105.201 794.041 108.001 797.641 111.601C801.241 115.201 804.041 119.501 806.041 124.501C808.241 129.301 809.341 134.501 809.341 140.101V210.601C809.341 216.201 808.241 221.501 806.041 226.501C804.041 231.301 801.241 235.501 797.641 239.101C794.041 242.701 789.741 245.601 784.741 247.801C779.941 249.801 774.741 250.801 769.141 250.801ZM769.141 109.801C764.941 109.801 760.941 110.601 757.141 112.201C753.541 113.801 750.341 116.001 747.541 118.801C744.941 121.401 742.841 124.601 741.241 128.401C739.641 132.001 738.841 135.901 738.841 140.101V210.601C738.841 214.801 739.641 218.801 741.241 222.601C742.841 226.201 744.941 229.401 747.541 232.201C750.341 234.801 753.541 236.901 757.141 238.501C760.941 240.101 764.941 240.901 769.141 240.901C773.341 240.901 777.241 240.101 780.841 238.501C784.641 236.901 787.841 234.801 790.441 232.201C793.241 229.401 795.441 226.201 797.041 222.601C798.641 218.801 799.441 214.801 799.441 210.601V140.101C799.441 135.901 798.641 132.001 797.041 128.401C795.441 124.601 793.241 121.401 790.441 118.801C787.841 116.001 784.641 113.801 780.841 112.201C777.241 110.601 773.341 109.801 769.141 109.801Z" fill="#522E88"/>
<path d="M872.509 99.9008C878.109 99.9008 883.309 101.001 888.109 103.201C893.109 105.201 897.409 108.001 901.009 111.601C904.609 115.201 907.409 119.501 909.409 124.501C911.609 129.301 912.709 134.501 912.709 140.101V175.201V249.301H902.809V175.201V140.101C902.809 135.901 902.009 132.001 900.409 128.401C898.809 124.601 896.609 121.401 893.809 118.801C891.209 116.001 888.009 113.801 884.209 112.201C880.609 110.601 876.709 109.801 872.509 109.801C868.309 109.801 864.309 110.601 860.509 112.201C856.909 113.801 853.709 116.001 850.909 118.801C848.309 121.401 846.209 124.601 844.609 128.401C843.009 132.001 842.209 135.901 842.209 140.101V175.201V249.301H832.309V175.201V140.101V101.401H842.209V113.701C846.009 109.301 850.509 105.901 855.709 103.501C860.909 101.101 866.509 99.9008 872.509 99.9008Z" fill="#522E88"/>
<path d="M938.676 99.0008H948.576H958.776V109.201V247.201H948.576V109.201H938.676V99.0008ZM920.676 67.8008L978.276 49.8008L981.276 59.4008L923.676 77.4008L920.676 67.8008Z" fill="#522E88"/>
<path d="M1028.91 99.9008C1034.51 99.9008 1039.61 101.001 1044.21 103.201C1048.81 105.201 1052.71 108.001 1055.91 111.601C1059.31 115.201 1061.91 119.501 1063.71 124.501C1065.71 129.301 1066.71 134.501 1066.71 140.101V175.201V210.601V249.301H1056.81V237.001C1053.01 241.201 1048.51 244.601 1043.31 247.201C1038.11 249.601 1032.51 250.801 1026.51 250.801C1020.91 250.801 1015.61 249.801 1010.61 247.801C1005.81 245.601 1001.61 242.701 998.009 239.101C994.409 235.501 991.509 231.301 989.309 226.501C987.309 221.501 986.309 216.201 986.309 210.601V202.201C986.309 189.801 993.909 180.801 1009.11 175.201C1010.91 174.401 1013.91 173.201 1018.11 171.601C1022.51 170.001 1027.11 168.301 1031.91 166.501C1036.91 164.501 1041.71 162.701 1046.31 161.101C1050.91 159.301 1054.41 157.901 1056.81 156.901V140.101C1056.81 131.701 1054.21 124.601 1049.01 118.801C1044.01 112.801 1037.31 109.801 1028.91 109.801C1024.71 109.801 1020.81 110.601 1017.21 112.201C1013.61 113.801 1010.41 116.001 1007.61 118.801C1004.81 121.401 1002.61 124.601 1001.01 128.401C999.409 132.001 998.609 135.901 998.609 140.101H988.709C988.709 134.501 989.709 129.301 991.709 124.501C993.909 119.501 996.809 115.201 1000.41 111.601C1004.01 108.001 1008.21 105.201 1013.01 103.201C1018.01 101.001 1023.31 99.9008 1028.91 99.9008ZM1056.81 175.201V167.701C1053.81 168.901 1050.11 170.301 1045.71 171.901C1041.31 173.501 1036.91 175.201 1032.51 177.001C1028.11 178.601 1024.11 180.101 1020.51 181.501C1016.91 182.901 1014.31 183.901 1012.71 184.501C1008.91 185.901 1005.21 188.001 1001.61 190.801C998.009 193.601 996.209 197.401 996.209 202.201V210.601C996.209 214.801 997.009 218.801 998.609 222.601C1000.21 226.201 1002.31 229.401 1004.91 232.201C1007.71 234.801 1010.91 236.901 1014.51 238.501C1018.31 240.101 1022.31 240.901 1026.51 240.901C1030.71 240.901 1034.61 240.101 1038.21 238.501C1042.01 236.901 1045.21 234.801 1047.81 232.201C1050.61 229.401 1052.81 226.201 1054.41 222.601C1056.01 218.801 1056.81 214.801 1056.81 210.601V175.201Z" fill="#522E88"/>
<path d="M1116.02 241.001C1116.02 244.001 1114.92 246.601 1112.72 248.801C1110.72 251.001 1108.22 252.101 1105.22 252.101C1102.22 252.101 1099.62 251.001 1097.42 248.801C1095.42 246.601 1094.42 244.001 1094.42 241.001C1094.42 238.201 1095.42 235.701 1097.42 233.501C1099.62 231.301 1102.22 230.201 1105.22 230.201C1108.22 230.201 1110.72 231.301 1112.72 233.501C1114.92 235.701 1116.02 238.201 1116.02 241.001Z" fill="#939393"/>
<path d="M1184.5 143.201C1189.5 147.201 1194.4 151.401 1199.2 155.801C1204.2 160.001 1208.6 164.701 1212.4 169.901C1216.4 174.901 1219.6 180.601 1222 187.001C1224.4 193.201 1225.6 200.301 1225.6 208.301C1225.6 214.301 1224.4 220.001 1222 225.401C1219.8 230.601 1216.7 235.201 1212.7 239.201C1208.9 243.001 1204.4 246.101 1199.2 248.501C1194 250.701 1188.4 251.801 1182.4 251.801C1176.4 251.801 1170.7 250.701 1165.3 248.501C1160.1 246.101 1155.5 243.001 1151.5 239.201C1147.7 235.201 1144.6 230.601 1142.2 225.401C1140 220.001 1138.9 214.301 1138.9 208.301H1148.8C1148.8 212.901 1149.7 217.301 1151.5 221.501C1153.3 225.501 1155.7 229.001 1158.7 232.001C1161.7 235.001 1165.2 237.401 1169.2 239.201C1173.4 241.001 1177.8 241.901 1182.4 241.901C1187 241.901 1191.3 241.001 1195.3 239.201C1199.3 237.401 1202.8 235.001 1205.8 232.001C1208.8 229.001 1211.2 225.501 1213 221.501C1214.8 217.301 1215.7 212.901 1215.7 208.301C1215.7 201.501 1214.6 195.401 1212.4 190.001C1210.4 184.601 1207.6 179.701 1204 175.301C1200.6 170.701 1196.6 166.501 1192 162.701C1187.6 158.701 1183 154.801 1178.2 151.001C1173.4 147.201 1168.6 143.301 1163.8 139.301C1159.2 135.101 1155 130.601 1151.2 125.801C1147.6 121.001 1144.6 115.701 1142.2 109.901C1140 104.101 1138.9 97.4008 1138.9 89.8008C1138.9 83.8008 1140 78.2008 1142.2 73.0008C1144.6 67.6008 1147.7 63.0008 1151.5 59.2008C1155.5 55.2008 1160.1 52.1008 1165.3 49.9008C1170.7 47.5008 1176.4 46.3008 1182.4 46.3008C1188.4 46.3008 1194 47.5008 1199.2 49.9008C1204.4 52.1008 1208.9 55.2008 1212.7 59.2008C1216.7 63.0008 1219.8 67.6008 1222 73.0008C1224.4 78.2008 1225.6 83.8008 1225.6 89.8008H1215.7C1215.7 85.2008 1214.8 80.9008 1213 76.9008C1211.2 72.9008 1208.8 69.4008 1205.8 66.4008C1202.8 63.4008 1199.3 61.0008 1195.3 59.2008C1191.3 57.4008 1187 56.5008 1182.4 56.5008C1177.8 56.5008 1173.4 57.4008 1169.2 59.2008C1165.2 61.0008 1161.7 63.4008 1158.7 66.4008C1155.7 69.4008 1153.3 72.9008 1151.5 76.9008C1149.7 80.9008 1148.8 85.2008 1148.8 89.8008C1148.8 96.2008 1149.8 101.901 1151.8 106.901C1153.8 111.701 1156.4 116.201 1159.6 120.401C1163 124.601 1166.8 128.601 1171 132.401C1175.4 136.001 1179.9 139.601 1184.5 143.201Z" fill="#939393"/>
<path d="M1288.91 251.801C1283.31 251.801 1278.01 250.801 1273.01 248.801C1268.21 246.601 1264.01 243.701 1260.41 240.101C1256.81 236.501 1253.91 232.301 1251.71 227.501C1249.71 222.501 1248.71 217.201 1248.71 211.601V141.101C1248.71 135.501 1249.71 130.301 1251.71 125.501C1253.91 120.501 1256.81 116.201 1260.41 112.601C1264.01 109.001 1268.21 106.201 1273.01 104.201C1278.01 102.001 1283.31 100.901 1288.91 100.901C1294.51 100.901 1299.71 102.001 1304.51 104.201C1309.51 106.201 1313.81 109.001 1317.41 112.601C1321.01 116.201 1323.81 120.501 1325.81 125.501C1328.01 130.301 1329.11 135.501 1329.11 141.101V211.601C1329.11 217.201 1328.01 222.501 1325.81 227.501C1323.81 232.301 1321.01 236.501 1317.41 240.101C1313.81 243.701 1309.51 246.601 1304.51 248.801C1299.71 250.801 1294.51 251.801 1288.91 251.801ZM1288.91 110.801C1284.71 110.801 1280.71 111.601 1276.91 113.201C1273.31 114.801 1270.11 117.001 1267.31 119.801C1264.71 122.401 1262.61 125.601 1261.01 129.401C1259.41 133.001 1258.61 136.901 1258.61 141.101V211.601C1258.61 215.801 1259.41 219.801 1261.01 223.601C1262.61 227.201 1264.71 230.401 1267.31 233.201C1270.11 235.801 1273.31 237.901 1276.91 239.501C1280.71 241.101 1284.71 241.901 1288.91 241.901C1293.11 241.901 1297.01 241.101 1300.61 239.501C1304.41 237.901 1307.61 235.801 1310.21 233.201C1313.01 230.401 1315.21 227.201 1316.81 223.601C1318.41 219.801 1319.21 215.801 1319.21 211.601V141.101C1319.21 136.901 1318.41 133.001 1316.81 129.401C1315.21 125.601 1313.01 122.401 1310.21 119.801C1307.61 117.001 1304.41 114.801 1300.61 113.201C1297.01 111.601 1293.11 110.801 1288.91 110.801Z" fill="#939393"/>
<path d="M1425.28 102.401H1435.48L1382.98 317.501H1372.78L1388.38 252.701L1346.08 102.401H1356.28L1393.18 233.201L1425.28 102.401Z" fill="#939393"/>
</svg>
