<svg width="32" height="44" viewBox="0 0 32 44" fill="none" xmlns="http://www.w3.org/2000/svg">
<path d="M3.4071 39.9308C3.4071 39.5058 3.4921 39.1333 3.6621 38.8133C3.8371 38.4883 4.0771 38.2383 4.3821 38.0633C4.6871 37.8883 5.0371 37.8008 5.4321 37.8008C5.9321 37.8008 6.3446 37.9208 6.6696 38.1608C6.9996 38.3958 7.22211 38.7333 7.33711 39.1733H6.4146C6.3396 38.9683 6.2196 38.8083 6.0546 38.6933C5.8896 38.5783 5.6821 38.5208 5.4321 38.5208C5.0821 38.5208 4.8021 38.6458 4.5921 38.8958C4.3871 39.1408 4.2846 39.4858 4.2846 39.9308C4.2846 40.3758 4.3871 40.7233 4.5921 40.9733C4.8021 41.2233 5.0821 41.3483 5.4321 41.3483C5.9271 41.3483 6.2546 41.1308 6.4146 40.6958H7.33711C7.2171 41.1158 6.9921 41.4508 6.6621 41.7008C6.3321 41.9458 5.9221 42.0683 5.4321 42.0683C5.0371 42.0683 4.6871 41.9808 4.3821 41.8058C4.0771 41.6258 3.8371 41.3758 3.6621 41.0558C3.4921 40.7308 3.4071 40.3558 3.4071 39.9308Z" fill="#2F855A"/>
<path d="M11.9317 37.8683V42.0008H11.0767V41.5133C10.9417 41.6833 10.7642 41.8183 10.5442 41.9183C10.3292 42.0133 10.0992 42.0608 9.85417 42.0608C9.52917 42.0608 9.23667 41.9933 8.97667 41.8583C8.72167 41.7233 8.51917 41.5233 8.36917 41.2583C8.22417 40.9933 8.15167 40.6733 8.15167 40.2983V37.8683H8.99917V40.1708C8.99917 40.5408 9.09167 40.8258 9.27667 41.0258C9.46167 41.2208 9.71417 41.3183 10.0342 41.3183C10.3542 41.3183 10.6067 41.2208 10.7917 41.0258C10.9817 40.8258 11.0767 40.5408 11.0767 40.1708V37.8683H11.9317Z" fill="#2F855A"/>
<path d="M16.8473 39.8333C16.8473 39.9883 16.8373 40.1283 16.8173 40.2533H13.6598C13.6848 40.5833 13.8073 40.8483 14.0273 41.0483C14.2473 41.2483 14.5173 41.3483 14.8373 41.3483C15.2973 41.3483 15.6223 41.1558 15.8123 40.7708H16.7348C16.6098 41.1508 16.3823 41.4633 16.0523 41.7083C15.7273 41.9483 15.3223 42.0683 14.8373 42.0683C14.4423 42.0683 14.0873 41.9808 13.7723 41.8058C13.4623 41.6258 13.2173 41.3758 13.0373 41.0558C12.8623 40.7308 12.7748 40.3558 12.7748 39.9308C12.7748 39.5058 12.8598 39.1333 13.0298 38.8133C13.2048 38.4883 13.4473 38.2383 13.7573 38.0633C14.0723 37.8883 14.4323 37.8008 14.8373 37.8008C15.2273 37.8008 15.5748 37.8858 15.8798 38.0558C16.1848 38.2258 16.4223 38.4658 16.5923 38.7758C16.7623 39.0808 16.8473 39.4333 16.8473 39.8333ZM15.9548 39.5633C15.9498 39.2483 15.8373 38.9958 15.6173 38.8058C15.3973 38.6158 15.1248 38.5208 14.7998 38.5208C14.5048 38.5208 14.2523 38.6158 14.0423 38.8058C13.8323 38.9908 13.7073 39.2433 13.6673 39.5633H15.9548Z" fill="#2F855A"/>
<path d="M18.5437 38.4683C18.6687 38.2583 18.8337 38.0958 19.0387 37.9808C19.2487 37.8608 19.4962 37.8008 19.7812 37.8008V38.6858H19.5637C19.2287 38.6858 18.9737 38.7708 18.7987 38.9408C18.6287 39.1108 18.5437 39.4058 18.5437 39.8258V42.0008H17.6887V37.8683H18.5437V38.4683Z" fill="#2F855A"/>
<path d="M21.4221 38.4758C21.5671 38.2858 21.7646 38.1258 22.0146 37.9958C22.2646 37.8658 22.5471 37.8008 22.8621 37.8008C23.2221 37.8008 23.5496 37.8908 23.8446 38.0708C24.1446 38.2458 24.3796 38.4933 24.5496 38.8133C24.7196 39.1333 24.8046 39.5008 24.8046 39.9158C24.8046 40.3308 24.7196 40.7033 24.5496 41.0333C24.3796 41.3583 24.1446 41.6133 23.8446 41.7983C23.5496 41.9783 23.2221 42.0683 22.8621 42.0683C22.5471 42.0683 22.2671 42.0058 22.0221 41.8808C21.7771 41.7508 21.5771 41.5908 21.4221 41.4008V43.9658H20.5671V37.8683H21.4221V38.4758ZM23.9346 39.9158C23.9346 39.6308 23.8746 39.3858 23.7546 39.1808C23.6396 38.9708 23.4846 38.8133 23.2896 38.7083C23.0996 38.5983 22.8946 38.5433 22.6746 38.5433C22.4596 38.5433 22.2546 38.5983 22.0596 38.7083C21.8696 38.8183 21.7146 38.9783 21.5946 39.1883C21.4796 39.3983 21.4221 39.6458 21.4221 39.9308C21.4221 40.2158 21.4796 40.4658 21.5946 40.6808C21.7146 40.8908 21.8696 41.0508 22.0596 41.1608C22.2546 41.2708 22.4596 41.3258 22.6746 41.3258C22.8946 41.3258 23.0996 41.2708 23.2896 41.1608C23.4846 41.0458 23.6396 40.8808 23.7546 40.6658C23.8746 40.4508 23.9346 40.2008 23.9346 39.9158Z" fill="#2F855A"/>
<path d="M27.4426 42.0683C27.0526 42.0683 26.7001 41.9808 26.3851 41.8058C26.0701 41.6258 25.8226 41.3758 25.6426 41.0558C25.4626 40.7308 25.3726 40.3558 25.3726 39.9308C25.3726 39.5108 25.4651 39.1383 25.6501 38.8133C25.8351 38.4883 26.0876 38.2383 26.4076 38.0633C26.7276 37.8883 27.0851 37.8008 27.4801 37.8008C27.8751 37.8008 28.2326 37.8883 28.5526 38.0633C28.8726 38.2383 29.1251 38.4883 29.3101 38.8133C29.4951 39.1383 29.5876 39.5108 29.5876 39.9308C29.5876 40.3508 29.4926 40.7233 29.3026 41.0483C29.1126 41.3733 28.8526 41.6258 28.5226 41.8058C28.1976 41.9808 27.8376 42.0683 27.4426 42.0683ZM27.4426 41.3258C27.6626 41.3258 27.8676 41.2733 28.0576 41.1683C28.2526 41.0633 28.4101 40.9058 28.5301 40.6958C28.6501 40.4858 28.7101 40.2308 28.7101 39.9308C28.7101 39.6308 28.6526 39.3783 28.5376 39.1733C28.4226 38.9633 28.2701 38.8058 28.0801 38.7008C27.8901 38.5958 27.6851 38.5433 27.4651 38.5433C27.2451 38.5433 27.0401 38.5958 26.8501 38.7008C26.6651 38.8058 26.5176 38.9633 26.4076 39.1733C26.2976 39.3783 26.2426 39.6308 26.2426 39.9308C26.2426 40.3758 26.3551 40.7208 26.5801 40.9658C26.8101 41.2058 27.0976 41.3258 27.4426 41.3258Z" fill="#2F855A"/>
<path d="M32 16.0008C32 7.17795 24.8232 0 16.0017 0C7.17846 0 8.69863e-05 7.17795 0 16.0008C0 24.8227 7.17837 32 16.0017 32C24.8232 32 32 24.8227 32 16.0008ZM1.04384 16.0008C1.04392 7.75347 7.75405 1.04388 16.0017 1.04388C24.2476 1.04388 30.9562 7.75347 30.9562 16.0008C30.9562 24.2472 24.2477 30.9561 16.0017 30.9561C7.75396 30.9561 1.04384 24.2472 1.04384 16.0008Z" fill="#2F855A"/>
<mask id="path-3-inside-1_1400_1377" fill="white">
<path d="M16.0909 9.83568C16.4969 9.83568 16.8937 9.7232 17.2313 9.51246C17.5689 9.30173 17.832 9.0022 17.9874 8.65176C18.1428 8.30132 18.1834 7.91571 18.1042 7.54369C18.025 7.17166 17.8295 6.82994 17.5424 6.56172C17.2553 6.29351 16.8895 6.11085 16.4913 6.03685C16.0931 5.96285 15.6804 6.00083 15.3053 6.14599C14.9302 6.29114 14.6096 6.53696 14.384 6.85234C14.1585 7.16773 14.0381 7.53853 14.0381 7.91784C14.0381 8.42648 14.2544 8.91429 14.6393 9.27395C15.0243 9.63362 15.5464 9.83568 16.0909 9.83568V9.83568ZM16.0909 6.54795C16.3809 6.54795 16.6644 6.6283 16.9055 6.77882C17.1466 6.92935 17.3345 7.14329 17.4455 7.39361C17.5565 7.64392 17.5855 7.91936 17.529 8.18509C17.4724 8.45082 17.3327 8.69491 17.1277 8.88649C16.9226 9.07807 16.6613 9.20854 16.3769 9.2614C16.0925 9.31426 15.7977 9.28713 15.5297 9.18345C15.2618 9.07976 15.0328 8.90418 14.8717 8.6789C14.7106 8.45363 14.6246 8.18878 14.6246 7.91784C14.6246 7.55452 14.7791 7.20609 15.0541 6.94918C15.329 6.69228 15.702 6.54795 16.0909 6.54795V6.54795Z"/>
</mask>
<path d="M14.6246 7.91784L13.6246 7.91784L14.6246 7.91784ZM16.0909 10.8357C16.6801 10.8357 17.2611 10.6727 17.7609 10.3607L16.7018 8.66418C16.5264 8.77367 16.3136 8.83568 16.0909 8.83568L16.0909 10.8357ZM17.7609 10.3607C18.2612 10.0484 18.6619 9.59755 18.9016 9.05707L17.0732 8.24645C17.0021 8.40685 16.8766 8.55505 16.7018 8.66418L17.7609 10.3607ZM18.9016 9.05707C19.1416 8.51558 19.2057 7.91534 19.0823 7.33545L17.1261 7.75193C17.1611 7.91608 17.1439 8.08707 17.0732 8.24645L18.9016 9.05707ZM19.0823 7.33545C18.959 6.75622 18.6566 6.23412 18.2251 5.83101L16.8597 7.29244C17.0024 7.42575 17.091 7.58711 17.1261 7.75193L19.0823 7.33545ZM18.2251 5.83101C17.7943 5.42856 17.2534 5.16136 16.674 5.05368L16.3086 7.02002C16.5256 7.06035 16.7163 7.15846 16.8597 7.29244L18.2251 5.83101ZM16.674 5.05368C16.0948 4.94604 15.4938 5.00078 14.9444 5.21338L15.6662 7.07859C15.867 7.00088 16.0915 6.97966 16.3086 7.02002L16.674 5.05368ZM14.9444 5.21338C14.3947 5.42612 13.914 5.79054 13.5707 6.27062L15.1974 7.43407C15.3052 7.28338 15.4657 7.15616 15.6662 7.07859L14.9444 5.21338ZM13.5707 6.27062C13.2266 6.75166 13.0381 7.32499 13.0381 7.91784H15.0381C15.0381 7.75207 15.0903 7.5838 15.1974 7.43407L13.5707 6.27062ZM13.0381 7.91784C13.0381 8.71449 13.3774 9.46354 13.9566 10.0047L15.322 8.54324C15.1313 8.36504 15.0381 8.13848 15.0381 7.91784H13.0381ZM13.9566 10.0047C14.5336 10.5437 15.3023 10.8357 16.0909 10.8357V8.83568C15.7905 8.83568 15.515 8.72358 15.322 8.54324L13.9566 10.0047ZM16.0909 7.54795C16.1976 7.54795 16.297 7.57782 16.3759 7.6271L17.435 5.93054C17.0317 5.67877 16.5641 5.54795 16.0909 5.54795V7.54795ZM16.3759 7.6271C16.4543 7.67602 16.5046 7.73864 16.5313 7.79892L18.3597 6.9883C18.1645 6.54794 17.8389 6.18267 17.435 5.93054L16.3759 7.6271ZM16.5313 7.79892C16.5576 7.85818 16.5632 7.91899 16.5509 7.97685L18.507 8.39333C18.6079 7.91973 18.5554 7.42966 18.3597 6.9883L16.5313 7.79892ZM16.5509 7.97685C16.5384 8.03538 16.5057 8.0991 16.445 8.15578L17.8104 9.61721C18.1598 9.29072 18.4063 8.86627 18.507 8.39333L16.5509 7.97685ZM16.445 8.15578C16.3836 8.21313 16.2974 8.25905 16.1942 8.27823L16.5596 10.2446C17.0253 10.158 17.4616 9.94302 17.8104 9.61721L16.445 8.15578ZM16.1942 8.27823C16.0908 8.29745 15.9843 8.28708 15.8906 8.25084L15.1688 10.116C15.6111 10.2872 16.0942 10.3311 16.5596 10.2446L16.1942 8.27823ZM15.8906 8.25084C15.7974 8.21474 15.7284 8.15776 15.6851 8.09718L14.0583 9.26063C14.3372 9.6506 14.7263 9.94478 15.1688 10.116L15.8906 8.25084ZM15.6851 8.09718C15.6424 8.03756 15.6246 7.97524 15.6246 7.91784L13.6246 7.91784C13.6246 8.40231 13.7787 8.8697 14.0583 9.26063L15.6851 8.09718ZM15.6246 7.91784C15.6246 7.84253 15.656 7.75533 15.7367 7.6799L14.3714 6.21847C13.9022 6.65684 13.6246 7.26652 13.6246 7.91784H15.6246ZM15.7367 7.6799C15.8198 7.60232 15.9461 7.54795 16.0909 7.54795V5.54795C15.4579 5.54795 14.8383 5.78224 14.3714 6.21847L15.7367 7.6799Z" fill="#2F855A" mask="url(#path-3-inside-1_1400_1377)"/>
<mask id="path-5-inside-2_1400_1377" fill="white">
<path d="M24.0087 10.6576H21.695L23.6891 9.72059C23.8271 9.65602 23.9502 9.56663 24.0512 9.45753C24.1522 9.34844 24.2291 9.22179 24.2776 9.08484C24.3261 8.9479 24.3452 8.80336 24.3338 8.65952C24.3224 8.51567 24.2807 8.37534 24.2111 8.24659C24.071 7.98728 23.8264 7.79054 23.5311 7.69961C23.2358 7.60868 22.914 7.631 22.6363 7.76165L16.475 10.6576H15.7419L9.58063 7.76165C9.30295 7.631 8.9811 7.60868 8.68582 7.69961C8.39053 7.79054 8.14597 7.98728 8.00586 8.24659C7.86602 8.50602 7.84213 8.80671 7.93946 9.08259C8.03679 9.35846 8.24737 9.58695 8.52492 9.71785L10.519 10.6576H8.17302C7.86191 10.6576 7.56355 10.7731 7.34357 10.9786C7.12359 11.1841 7 11.4629 7 11.7535C7 12.0442 7.12359 12.3229 7.34357 12.5284C7.56355 12.734 7.86191 12.8494 8.17302 12.8494H13.4516V16.0577L8.93841 22.5976C8.85624 22.7195 8.80062 22.8554 8.77472 22.9974C8.74882 23.1394 8.75315 23.2849 8.78747 23.4253C8.82179 23.5658 8.88542 23.6986 8.97473 23.816C9.06403 23.9335 9.17725 24.0334 9.30791 24.1099L9.55424 24.2551C9.74115 24.3656 9.95768 24.4245 10.1789 24.425C10.2657 24.4248 10.3523 24.4156 10.4369 24.3976C10.5872 24.3657 10.7294 24.3065 10.8552 24.2233C10.981 24.1401 11.088 24.0345 11.1701 23.9126L13.4516 20.5208V24.9045C13.4516 25.1951 13.5752 25.4739 13.7952 25.6794C14.0151 25.8849 14.3135 26.0004 14.6246 26.0004H15.2111C15.3777 26.0002 15.5423 25.9668 15.6939 25.9026C15.8456 25.8383 15.9809 25.7447 16.0909 25.6278C16.2008 25.7447 16.3361 25.8383 16.4878 25.9026C16.6395 25.9668 16.8041 26.0002 16.9706 26.0004H17.5571C17.8682 26.0004 18.1666 25.8849 18.3866 25.6794C18.6066 25.4739 18.7302 25.1951 18.7302 24.9045V20.5208L21.0087 23.9017C21.0908 24.0236 21.1979 24.1291 21.3237 24.2123C21.4494 24.2955 21.5916 24.3548 21.7419 24.3866C21.8275 24.4049 21.915 24.4141 22.0029 24.414C22.2231 24.413 22.4385 24.3542 22.6246 24.2442L22.8738 24.099C23.0047 24.0222 23.1179 23.922 23.2072 23.8042C23.2965 23.6864 23.36 23.5533 23.394 23.4126C23.4281 23.2718 23.4321 23.1261 23.4057 22.9839C23.3793 22.8417 23.3232 22.7057 23.2404 22.5839L18.7302 16.0577V12.8494H24.0087C24.3198 12.8494 24.6182 12.734 24.8382 12.5284C25.0582 12.3229 25.1817 12.0442 25.1817 11.7535C25.1817 11.4629 25.0582 11.1841 24.8382 10.9786C24.6182 10.7731 24.3198 10.6576 24.0087 10.6576ZM22.9002 8.24933C22.9691 8.21682 23.0442 8.19734 23.1212 8.192C23.1982 8.18666 23.2756 8.19558 23.3488 8.21823C23.4221 8.24088 23.4899 8.27683 23.5483 8.32401C23.6067 8.37119 23.6545 8.42868 23.6891 8.49317C23.7301 8.5687 23.7512 8.65231 23.7507 8.73701C23.7509 8.83971 23.7202 8.9404 23.6621 9.02759C23.6041 9.11479 23.5209 9.18498 23.4222 9.23017L20.39 10.6576H17.78L22.9002 8.24933ZM8.78592 9.22743C8.68974 9.18152 8.609 9.11169 8.5526 9.02564C8.4962 8.93958 8.46632 8.84065 8.46627 8.73975C8.46591 8.65419 8.487 8.56974 8.52785 8.49317C8.56241 8.42868 8.61025 8.37119 8.66864 8.32401C8.72702 8.27683 8.7948 8.24088 8.86809 8.21823C8.94138 8.19558 9.01873 8.18666 9.09572 8.192C9.1727 8.19734 9.2478 8.21682 9.31671 8.24933L14.4369 10.6576H11.827L8.78592 9.22743ZM10.6745 23.6195C10.5908 23.7411 10.4591 23.8269 10.3081 23.8582C10.157 23.8895 9.99886 23.8638 9.86802 23.7866L9.61876 23.6414C9.48763 23.5641 9.39458 23.4415 9.35996 23.3003C9.32534 23.1591 9.35196 23.0109 9.43401 22.888L13.4516 17.0687V19.5043L10.6745 23.6195ZM22.7448 22.8852C22.786 22.946 22.814 23.0138 22.8272 23.0847C22.8403 23.1556 22.8384 23.2283 22.8216 23.2985C22.8047 23.3687 22.7731 23.4352 22.7288 23.494C22.6844 23.5528 22.6281 23.6029 22.563 23.6414L22.3108 23.7894C22.1796 23.8663 22.0212 23.8916 21.8701 23.8597C21.719 23.8279 21.5875 23.7415 21.5043 23.6195L18.7302 19.5043V17.0687L22.7448 22.8852ZM24.0087 12.3015H18.1436V24.9045C18.1436 25.0498 18.0819 25.1892 17.9719 25.2919C17.8619 25.3947 17.7127 25.4524 17.5571 25.4524H16.9706C16.8151 25.4524 16.6659 25.3947 16.5559 25.2919C16.4459 25.1892 16.3841 25.0498 16.3841 24.9045V17.507H15.7976V24.9045C15.7976 25.0498 15.7358 25.1892 15.6258 25.2919C15.5158 25.3947 15.3667 25.4524 15.2111 25.4524H14.6246C14.469 25.4524 14.3199 25.3947 14.2099 25.2919C14.0999 25.1892 14.0381 25.0498 14.0381 24.9045V12.3015H8.17302C8.01746 12.3015 7.86828 12.2437 7.75829 12.141C7.6483 12.0382 7.58651 11.8988 7.58651 11.7535C7.58651 11.6082 7.6483 11.4688 7.75829 11.366C7.86828 11.2633 8.01746 11.2056 8.17302 11.2056H24.0087C24.1643 11.2056 24.3135 11.2633 24.4235 11.366C24.5334 11.4688 24.5952 11.6082 24.5952 11.7535C24.5952 11.8988 24.5334 12.0382 24.4235 12.141C24.3135 12.2437 24.1643 12.3015 24.0087 12.3015Z"/>
</mask>
<path d="M24.0087 10.6576H21.695L23.6891 9.72059C23.8271 9.65602 23.9502 9.56663 24.0512 9.45753C24.1522 9.34844 24.2291 9.22179 24.2776 9.08484C24.3261 8.9479 24.3452 8.80336 24.3338 8.65952C24.3224 8.51567 24.2807 8.37534 24.2111 8.24659C24.071 7.98728 23.8264 7.79054 23.5311 7.69961C23.2358 7.60868 22.914 7.631 22.6363 7.76165L16.475 10.6576H15.7419L9.58063 7.76165C9.30295 7.631 8.9811 7.60868 8.68582 7.69961C8.39053 7.79054 8.14597 7.98728 8.00586 8.24659C7.86602 8.50602 7.84213 8.80671 7.93946 9.08259C8.03679 9.35846 8.24737 9.58695 8.52492 9.71785L10.519 10.6576H8.17302C7.86191 10.6576 7.56355 10.7731 7.34357 10.9786C7.12359 11.1841 7 11.4629 7 11.7535C7 12.0442 7.12359 12.3229 7.34357 12.5284C7.56355 12.734 7.86191 12.8494 8.17302 12.8494H13.4516V16.0577L8.93841 22.5976C8.85624 22.7195 8.80062 22.8554 8.77472 22.9974C8.74882 23.1394 8.75315 23.2849 8.78747 23.4253C8.82179 23.5658 8.88542 23.6986 8.97473 23.816C9.06403 23.9335 9.17725 24.0334 9.30791 24.1099L9.55424 24.2551C9.74115 24.3656 9.95768 24.4245 10.1789 24.425C10.2657 24.4248 10.3523 24.4156 10.4369 24.3976C10.5872 24.3657 10.7294 24.3065 10.8552 24.2233C10.981 24.1401 11.088 24.0345 11.1701 23.9126L13.4516 20.5208V24.9045C13.4516 25.1951 13.5752 25.4739 13.7952 25.6794C14.0151 25.8849 14.3135 26.0004 14.6246 26.0004H15.2111C15.3777 26.0002 15.5423 25.9668 15.6939 25.9026C15.8456 25.8383 15.9809 25.7447 16.0909 25.6278C16.2008 25.7447 16.3361 25.8383 16.4878 25.9026C16.6395 25.9668 16.8041 26.0002 16.9706 26.0004H17.5571C17.8682 26.0004 18.1666 25.8849 18.3866 25.6794C18.6066 25.4739 18.7302 25.1951 18.7302 24.9045V20.5208L21.0087 23.9017C21.0908 24.0236 21.1979 24.1291 21.3237 24.2123C21.4494 24.2955 21.5916 24.3548 21.7419 24.3866C21.8275 24.4049 21.915 24.4141 22.0029 24.414C22.2231 24.413 22.4385 24.3542 22.6246 24.2442L22.8738 24.099C23.0047 24.0222 23.1179 23.922 23.2072 23.8042C23.2965 23.6864 23.36 23.5533 23.394 23.4126C23.4281 23.2718 23.4321 23.1261 23.4057 22.9839C23.3793 22.8417 23.3232 22.7057 23.2404 22.5839L18.7302 16.0577V12.8494H24.0087C24.3198 12.8494 24.6182 12.734 24.8382 12.5284C25.0582 12.3229 25.1817 12.0442 25.1817 11.7535C25.1817 11.4629 25.0582 11.1841 24.8382 10.9786C24.6182 10.7731 24.3198 10.6576 24.0087 10.6576ZM22.9002 8.24933C22.9691 8.21682 23.0442 8.19734 23.1212 8.192C23.1982 8.18666 23.2756 8.19558 23.3488 8.21823C23.4221 8.24088 23.4899 8.27683 23.5483 8.32401C23.6067 8.37119 23.6545 8.42868 23.6891 8.49317C23.7301 8.5687 23.7512 8.65231 23.7507 8.73701C23.7509 8.83971 23.7202 8.9404 23.6621 9.02759C23.6041 9.11479 23.5209 9.18498 23.4222 9.23017L20.39 10.6576H17.78L22.9002 8.24933ZM8.78592 9.22743C8.68974 9.18152 8.609 9.11169 8.5526 9.02564C8.4962 8.93958 8.46632 8.84065 8.46627 8.73975C8.46591 8.65419 8.487 8.56974 8.52785 8.49317C8.56241 8.42868 8.61025 8.37119 8.66864 8.32401C8.72702 8.27683 8.7948 8.24088 8.86809 8.21823C8.94138 8.19558 9.01873 8.18666 9.09572 8.192C9.1727 8.19734 9.2478 8.21682 9.31671 8.24933L14.4369 10.6576H11.827L8.78592 9.22743ZM10.6745 23.6195C10.5908 23.7411 10.4591 23.8269 10.3081 23.8582C10.157 23.8895 9.99886 23.8638 9.86802 23.7866L9.61876 23.6414C9.48763 23.5641 9.39458 23.4415 9.35996 23.3003C9.32534 23.1591 9.35196 23.0109 9.43401 22.888L13.4516 17.0687V19.5043L10.6745 23.6195ZM22.7448 22.8852C22.786 22.946 22.814 23.0138 22.8272 23.0847C22.8403 23.1556 22.8384 23.2283 22.8216 23.2985C22.8047 23.3687 22.7731 23.4352 22.7288 23.494C22.6844 23.5528 22.6281 23.6029 22.563 23.6414L22.3108 23.7894C22.1796 23.8663 22.0212 23.8916 21.8701 23.8597C21.719 23.8279 21.5875 23.7415 21.5043 23.6195L18.7302 19.5043V17.0687L22.7448 22.8852ZM24.0087 12.3015H18.1436V24.9045C18.1436 25.0498 18.0819 25.1892 17.9719 25.2919C17.8619 25.3947 17.7127 25.4524 17.5571 25.4524H16.9706C16.8151 25.4524 16.6659 25.3947 16.5559 25.2919C16.4459 25.1892 16.3841 25.0498 16.3841 24.9045V17.507H15.7976V24.9045C15.7976 25.0498 15.7358 25.1892 15.6258 25.2919C15.5158 25.3947 15.3667 25.4524 15.2111 25.4524H14.6246C14.469 25.4524 14.3199 25.3947 14.2099 25.2919C14.0999 25.1892 14.0381 25.0498 14.0381 24.9045V12.3015H8.17302C8.01746 12.3015 7.86828 12.2437 7.75829 12.141C7.6483 12.0382 7.58651 11.8988 7.58651 11.7535C7.58651 11.6082 7.6483 11.4688 7.75829 11.366C7.86828 11.2633 8.01746 11.2056 8.17302 11.2056H24.0087C24.1643 11.2056 24.3135 11.2633 24.4235 11.366C24.5334 11.4688 24.5952 11.6082 24.5952 11.7535C24.5952 11.8988 24.5334 12.0382 24.4235 12.141C24.3135 12.2437 24.1643 12.3015 24.0087 12.3015Z" stroke="#2F855A" stroke-width="2" mask="url(#path-5-inside-2_1400_1377)"/>
</svg>
