<svg width="42" height="48" viewBox="0 0 42 48" fill="none" xmlns="http://www.w3.org/2000/svg">
<path d="M4.0725 45.1075C4.0725 45.2625 4.0625 45.4025 4.0425 45.5275H0.885C0.91 45.8575 1.0325 46.1225 1.2525 46.3225C1.4725 46.5225 1.7425 46.6225 2.0625 46.6225C2.5225 46.6225 2.8475 46.43 3.0375 46.045H3.96C3.835 46.425 3.6075 46.7375 3.2775 46.9825C2.9525 47.2225 2.5475 47.3425 2.0625 47.3425C1.6675 47.3425 1.3125 47.255 0.9975 47.08C0.6875 46.9 0.4425 46.65 0.2625 46.33C0.0875 46.005 0 45.63 0 45.205C0 44.78 0.085 44.4075 0.255 44.0875C0.43 43.7625 0.6725 43.5125 0.9825 43.3375C1.2975 43.1625 1.6575 43.075 2.0625 43.075C2.4525 43.075 2.8 43.16 3.105 43.33C3.41 43.5 3.6475 43.74 3.8175 44.05C3.9875 44.355 4.0725 44.7075 4.0725 45.1075ZM3.18 44.8375C3.175 44.5225 3.0625 44.27 2.8425 44.08C2.6225 43.89 2.35 43.795 2.025 43.795C1.73 43.795 1.4775 43.89 1.2675 44.08C1.0575 44.265 0.9325 44.5175 0.8925 44.8375H3.18Z" fill="#2F855A"/>
<path d="M9.91641 43.075C10.2414 43.075 10.5314 43.1425 10.7864 43.2775C11.0464 43.4125 11.2489 43.6125 11.3939 43.8775C11.5439 44.1425 11.6189 44.4625 11.6189 44.8375V47.275H10.7714V44.965C10.7714 44.595 10.6789 44.3125 10.4939 44.1175C10.3089 43.9175 10.0564 43.8175 9.73641 43.8175C9.41641 43.8175 9.16141 43.9175 8.97141 44.1175C8.78641 44.3125 8.69391 44.595 8.69391 44.965V47.275H7.84641V44.965C7.84641 44.595 7.75391 44.3125 7.56891 44.1175C7.38391 43.9175 7.13141 43.8175 6.81141 43.8175C6.49141 43.8175 6.23641 43.9175 6.04641 44.1175C5.86141 44.3125 5.76891 44.595 5.76891 44.965V47.275H4.91391V43.1425H5.76891V43.615C5.90891 43.445 6.08641 43.3125 6.30141 43.2175C6.51641 43.1225 6.74641 43.075 6.99141 43.075C7.32141 43.075 7.61641 43.145 7.87641 43.285C8.13641 43.425 8.33641 43.6275 8.47641 43.8925C8.60141 43.6425 8.79641 43.445 9.06141 43.3C9.32641 43.15 9.61141 43.075 9.91641 43.075Z" fill="#2F855A"/>
<path d="M14.4994 47.3425C14.1094 47.3425 13.7569 47.255 13.4419 47.08C13.1269 46.9 12.8794 46.65 12.6994 46.33C12.5194 46.005 12.4294 45.63 12.4294 45.205C12.4294 44.785 12.5219 44.4125 12.7069 44.0875C12.8919 43.7625 13.1444 43.5125 13.4644 43.3375C13.7844 43.1625 14.1419 43.075 14.5369 43.075C14.9319 43.075 15.2894 43.1625 15.6094 43.3375C15.9294 43.5125 16.1819 43.7625 16.3669 44.0875C16.5519 44.4125 16.6444 44.785 16.6444 45.205C16.6444 45.625 16.5494 45.9975 16.3594 46.3225C16.1694 46.6475 15.9094 46.9 15.5794 47.08C15.2544 47.255 14.8944 47.3425 14.4994 47.3425ZM14.4994 46.6C14.7194 46.6 14.9244 46.5475 15.1144 46.4425C15.3094 46.3375 15.4669 46.18 15.5869 45.97C15.7069 45.76 15.7669 45.505 15.7669 45.205C15.7669 44.905 15.7094 44.6525 15.5944 44.4475C15.4794 44.2375 15.3269 44.08 15.1369 43.975C14.9469 43.87 14.7419 43.8175 14.5219 43.8175C14.3019 43.8175 14.0969 43.87 13.9069 43.975C13.7219 44.08 13.5744 44.2375 13.4644 44.4475C13.3544 44.6525 13.2994 44.905 13.2994 45.205C13.2994 45.65 13.4119 45.995 13.6369 46.24C13.8669 46.48 14.1544 46.6 14.4994 46.6Z" fill="#2F855A"/>
<path d="M17.2046 45.205C17.2046 44.78 17.2896 44.4075 17.4596 44.0875C17.6346 43.7625 17.8746 43.5125 18.1796 43.3375C18.4846 43.1625 18.8346 43.075 19.2296 43.075C19.7296 43.075 20.1421 43.195 20.4671 43.435C20.7971 43.67 21.0196 44.0075 21.1346 44.4475H20.2121C20.1371 44.2425 20.0171 44.0825 19.8521 43.9675C19.6871 43.8525 19.4796 43.795 19.2296 43.795C18.8796 43.795 18.5996 43.92 18.3896 44.17C18.1846 44.415 18.0821 44.76 18.0821 45.205C18.0821 45.65 18.1846 45.9975 18.3896 46.2475C18.5996 46.4975 18.8796 46.6225 19.2296 46.6225C19.7246 46.6225 20.0521 46.405 20.2121 45.97H21.1346C21.0146 46.39 20.7896 46.725 20.4596 46.975C20.1296 47.22 19.7196 47.3425 19.2296 47.3425C18.8346 47.3425 18.4846 47.255 18.1796 47.08C17.8746 46.9 17.6346 46.65 17.4596 46.33C17.2896 46.005 17.2046 45.63 17.2046 45.205Z" fill="#2F855A"/>
<path d="M22.4217 42.595C22.2667 42.595 22.1367 42.5425 22.0317 42.4375C21.9267 42.3325 21.8742 42.2025 21.8742 42.0475C21.8742 41.8925 21.9267 41.7625 22.0317 41.6575C22.1367 41.5525 22.2667 41.5 22.4217 41.5C22.5717 41.5 22.6992 41.5525 22.8042 41.6575C22.9092 41.7625 22.9617 41.8925 22.9617 42.0475C22.9617 42.2025 22.9092 42.3325 22.8042 42.4375C22.6992 42.5425 22.5717 42.595 22.4217 42.595ZM22.8417 43.1425V47.275H21.9867V43.1425H22.8417Z" fill="#2F855A"/>
<path d="M25.7567 47.3425C25.3667 47.3425 25.0142 47.255 24.6992 47.08C24.3842 46.9 24.1367 46.65 23.9567 46.33C23.7767 46.005 23.6867 45.63 23.6867 45.205C23.6867 44.785 23.7792 44.4125 23.9642 44.0875C24.1492 43.7625 24.4017 43.5125 24.7217 43.3375C25.0417 43.1625 25.3992 43.075 25.7942 43.075C26.1892 43.075 26.5467 43.1625 26.8667 43.3375C27.1867 43.5125 27.4392 43.7625 27.6242 44.0875C27.8092 44.4125 27.9017 44.785 27.9017 45.205C27.9017 45.625 27.8067 45.9975 27.6167 46.3225C27.4267 46.6475 27.1667 46.9 26.8367 47.08C26.5117 47.255 26.1517 47.3425 25.7567 47.3425ZM25.7567 46.6C25.9767 46.6 26.1817 46.5475 26.3717 46.4425C26.5667 46.3375 26.7242 46.18 26.8442 45.97C26.9642 45.76 27.0242 45.505 27.0242 45.205C27.0242 44.905 26.9667 44.6525 26.8517 44.4475C26.7367 44.2375 26.5842 44.08 26.3942 43.975C26.2042 43.87 25.9992 43.8175 25.7792 43.8175C25.5592 43.8175 25.3542 43.87 25.1642 43.975C24.9792 44.08 24.8317 44.2375 24.7217 44.4475C24.6117 44.6525 24.5567 44.905 24.5567 45.205C24.5567 45.65 24.6692 45.995 24.8942 46.24C25.1242 46.48 25.4117 46.6 25.7567 46.6Z" fill="#2F855A"/>
<path d="M30.8319 43.075C31.1569 43.075 31.4469 43.1425 31.7019 43.2775C31.9619 43.4125 32.1644 43.6125 32.3094 43.8775C32.4544 44.1425 32.5269 44.4625 32.5269 44.8375V47.275H31.6794V44.965C31.6794 44.595 31.5869 44.3125 31.4019 44.1175C31.2169 43.9175 30.9644 43.8175 30.6444 43.8175C30.3244 43.8175 30.0694 43.9175 29.8794 44.1175C29.6944 44.3125 29.6019 44.595 29.6019 44.965V47.275H28.7469V43.1425H29.6019V43.615C29.7419 43.445 29.9194 43.3125 30.1344 43.2175C30.3544 43.1225 30.5869 43.075 30.8319 43.075Z" fill="#2F855A"/>
<path d="M37.405 45.1075C37.405 45.2625 37.395 45.4025 37.375 45.5275H34.2175C34.2425 45.8575 34.365 46.1225 34.585 46.3225C34.805 46.5225 35.075 46.6225 35.395 46.6225C35.855 46.6225 36.18 46.43 36.37 46.045H37.2925C37.1675 46.425 36.94 46.7375 36.61 46.9825C36.285 47.2225 35.88 47.3425 35.395 47.3425C35 47.3425 34.645 47.255 34.33 47.08C34.02 46.9 33.775 46.65 33.595 46.33C33.42 46.005 33.3325 45.63 33.3325 45.205C33.3325 44.78 33.4175 44.4075 33.5875 44.0875C33.7625 43.7625 34.005 43.5125 34.315 43.3375C34.63 43.1625 34.99 43.075 35.395 43.075C35.785 43.075 36.1325 43.16 36.4375 43.33C36.7425 43.5 36.98 43.74 37.15 44.05C37.32 44.355 37.405 44.7075 37.405 45.1075ZM36.5125 44.8375C36.5075 44.5225 36.395 44.27 36.175 44.08C35.955 43.89 35.6825 43.795 35.3575 43.795C35.0625 43.795 34.81 43.89 34.6 44.08C34.39 44.265 34.265 44.5175 34.225 44.8375H36.5125Z" fill="#2F855A"/>
<path d="M39.7464 47.3425C39.4214 47.3425 39.1289 47.285 38.8689 47.17C38.6139 47.05 38.4114 46.89 38.2614 46.69C38.1114 46.485 38.0314 46.2575 38.0214 46.0075H38.9064C38.9214 46.1825 39.0039 46.33 39.1539 46.45C39.3089 46.565 39.5014 46.6225 39.7314 46.6225C39.9714 46.6225 40.1564 46.5775 40.2864 46.4875C40.4214 46.3925 40.4889 46.2725 40.4889 46.1275C40.4889 45.9725 40.4139 45.8575 40.2639 45.7825C40.1189 45.7075 39.8864 45.625 39.5664 45.535C39.2564 45.45 39.0039 45.3675 38.8089 45.2875C38.6139 45.2075 38.4439 45.085 38.2989 44.92C38.1589 44.755 38.0889 44.5375 38.0889 44.2675C38.0889 44.0475 38.1539 43.8475 38.2839 43.6675C38.4139 43.4825 38.5989 43.3375 38.8389 43.2325C39.0839 43.1275 39.3639 43.075 39.6789 43.075C40.1489 43.075 40.5264 43.195 40.8114 43.435C41.1014 43.67 41.2564 43.9925 41.2764 44.4025H40.4214C40.4064 44.2175 40.3314 44.07 40.1964 43.96C40.0614 43.85 39.8789 43.795 39.6489 43.795C39.4239 43.795 39.2514 43.8375 39.1314 43.9225C39.0114 44.0075 38.9514 44.12 38.9514 44.26C38.9514 44.37 38.9914 44.4625 39.0714 44.5375C39.1514 44.6125 39.2489 44.6725 39.3639 44.7175C39.4789 44.7575 39.6489 44.81 39.8739 44.875C40.1739 44.955 40.4189 45.0375 40.6089 45.1225C40.8039 45.2025 40.9714 45.3225 41.1114 45.4825C41.2514 45.6425 41.3239 45.855 41.3289 46.12C41.3289 46.355 41.2639 46.565 41.1339 46.75C41.0039 46.935 40.8189 47.08 40.5789 47.185C40.3439 47.29 40.0664 47.3425 39.7464 47.3425Z" fill="#2F855A"/>
<path d="M39 19.0009C39 8.7995 30.7018 0.5 20.502 0.5C10.3001 0.5 2.0001 8.7995 2 19.0009C2 29.2013 10.3 37.5 20.502 37.5C30.7018 37.5 39 29.2013 39 19.0009ZM3.20694 19.0009C3.20704 9.46495 10.9656 1.70698 20.502 1.70698C30.0363 1.70698 37.7931 9.46495 37.7931 19.0009C37.7931 28.5359 30.0364 36.293 20.502 36.293C10.9655 36.293 3.20694 28.5359 3.20694 19.0009Z" fill="#2F855A"/>
<path d="M18.1872 11.1505H17.1289C16.0742 11.1505 15.083 11.5534 14.3376 12.2852L9.22421 17.3022C9.14197 17.3829 9.0957 17.4924 9.0957 17.6065C9.0957 17.7206 9.14197 17.8301 9.22421 17.9108L11.4175 20.0627C11.5888 20.2309 11.8664 20.2309 12.0377 20.0627L16.1141 16.0631V20.5465L12.6293 30.3769C12.5826 30.5084 12.6036 30.6541 12.6858 30.7678C12.7685 30.8813 12.9017 30.9487 13.0435 30.9487H16.9914C17.1781 30.9487 17.3443 30.8327 17.4056 30.6598L20.525 21.861L24.0397 30.6751C24.1057 30.8401 24.2676 30.9487 24.4484 30.9487H28.3962C28.541 30.9487 28.6768 30.8785 28.7586 30.7611C28.8404 30.6434 28.8575 30.4939 28.8048 30.3616L24.887 20.5381V16.0631L28.9633 20.0627C29.1347 20.2309 29.4123 20.2309 29.5836 20.0627L31.7769 17.9108C31.8591 17.8301 31.9054 17.7206 31.9054 17.6065C31.9054 17.4924 31.8591 17.3829 31.7769 17.3022L26.6634 12.2852C25.9181 11.5534 24.9268 11.1505 23.8722 11.1505H22.8138C23.5451 10.5191 24.0097 9.59684 24.0097 8.56816C24.0097 6.66963 22.4355 5.125 20.5005 5.125C18.5656 5.125 16.9914 6.66963 16.9914 8.56816C16.9914 9.59684 17.4559 10.5191 18.1872 11.1505ZM23.8722 12.0113C24.6925 12.0113 25.4632 12.3247 26.0432 12.8938L30.8464 17.6065L29.2735 19.1498L24.7585 14.7198C24.633 14.5966 24.4445 14.5603 24.2804 14.6265C24.1164 14.6931 24.0097 14.8501 24.0097 15.0241V20.6192C24.0097 20.6728 24.02 20.726 24.0397 20.776L27.7536 30.0879H24.7478L20.9092 20.4625C20.8432 20.2973 20.6809 20.1888 20.5005 20.1888C20.498 20.1888 20.495 20.1888 20.492 20.1888C20.3086 20.1924 20.1467 20.3076 20.0863 20.4778L16.6795 30.0879H13.6604L16.9669 20.7607C16.9832 20.7151 16.9914 20.6674 16.9914 20.6192V15.0241C16.9914 14.8501 16.8847 14.6931 16.7206 14.6265C16.5566 14.5601 16.3681 14.5966 16.2426 14.7198L11.7276 19.1498L10.1546 17.6065L14.9579 12.8938C15.5379 12.3247 16.3085 12.0113 17.1289 12.0113H23.8722ZM20.5005 5.98579C21.9518 5.98579 23.1324 7.14416 23.1324 8.56816C23.1324 9.99217 21.9518 11.1505 20.5005 11.1505C19.0492 11.1505 17.8686 9.99217 17.8686 8.56816C17.8686 7.14416 19.0492 5.98579 20.5005 5.98579Z" fill="#2F855A"/>
<path d="M20.1983 18.3514C20.2831 18.4302 20.3915 18.4695 20.5003 18.4695C20.6091 18.4695 20.7175 18.4302 20.8023 18.3514L22.6833 16.5998C22.9728 16.3305 23.1322 15.9708 23.1322 15.5868C23.1322 15.2028 22.9728 14.843 22.6837 14.5738C22.1024 14.0333 21.1561 14.0325 20.5748 14.5738C20.5744 14.5738 20.5744 14.5738 20.5744 14.574L20.5003 14.643L20.4258 14.5738C19.8453 14.0329 18.8986 14.0325 18.3173 14.5738C18.0278 14.843 17.8684 15.2028 17.8684 15.5868C17.8684 15.9708 18.0278 16.3305 18.3169 16.5998L20.1983 18.3514ZM18.9209 15.1984C19.0451 15.0826 19.2083 15.0248 19.3715 15.0248C19.5348 15.0248 19.698 15.0826 19.8222 15.1982L20.1983 15.5485C20.3679 15.7062 20.6327 15.7062 20.8023 15.5485L21.1784 15.1982C21.4268 14.967 21.8308 14.9672 22.0801 15.1984C22.1928 15.3035 22.2549 15.4414 22.2549 15.5868C22.2549 15.7322 22.1928 15.8701 22.0797 15.9752L20.5003 17.4459L18.9205 15.9752C18.8078 15.8701 18.7457 15.7322 18.7457 15.5868C18.7457 15.4414 18.8078 15.3035 18.9209 15.1984Z" fill="#2F855A"/>
<path d="M29.5936 9.31287C29.379 9.09768 29.1554 8.88921 28.9296 8.69336L28.3488 9.33851C28.5587 9.52049 28.7668 9.71467 28.9673 9.91515L29.5936 9.31287Z" fill="#2F855A"/>
<path d="M30.0696 11.1947L30.7781 10.6866C30.5978 10.4449 30.4072 10.2074 30.211 9.98047L29.5419 10.5369C29.7244 10.7484 29.9021 10.9696 30.0696 11.1947Z" fill="#2F855A"/>
<path d="M26.6916 7.13443C26.4252 6.98836 26.1506 6.8505 25.8756 6.72461L25.5046 7.50473C25.7604 7.62179 26.0161 7.74999 26.2641 7.88597L26.6916 7.13443Z" fill="#2F855A"/>
<path d="M30.9741 12.6095L31.7494 12.2065C31.6063 11.9419 31.4526 11.6799 31.2915 11.4277L30.5479 11.8846C30.6978 12.1193 30.8413 12.3633 30.9741 12.6095Z" fill="#2F855A"/>
<path d="M32.3264 17.4099L33.2028 17.364C33.1861 17.0639 33.1591 16.7628 33.1214 16.4688L32.251 16.5759C32.2861 16.8496 32.3114 17.1301 32.3264 17.4099Z" fill="#2F855A"/>
<path d="M31.6605 14.1426L32.4872 13.8534C32.3849 13.5722 32.2709 13.291 32.148 13.0176L31.3452 13.3652C31.4596 13.6193 31.5658 13.8809 31.6605 14.1426Z" fill="#2F855A"/>
<path d="M31.9542 23.471L31.1652 23.0957C31.0422 23.3441 30.9077 23.5929 30.7655 23.8352L31.5254 24.2652C31.6784 24.005 31.8227 23.7379 31.9542 23.471Z" fill="#2F855A"/>
<path d="M32.6316 21.7984L31.7954 21.5391C31.7093 21.8055 31.6134 22.0705 31.5093 22.3263L32.324 22.6453C32.4358 22.3698 32.5395 22.0848 32.6316 21.7984Z" fill="#2F855A"/>
<path d="M31.0395 25.0274L30.313 24.5449C30.1554 24.7736 29.9862 25.0007 29.8097 25.2203L30.4985 25.7533C30.6883 25.5173 30.8703 25.2731 31.0395 25.0274Z" fill="#2F855A"/>
<path d="M28.6605 26.452L29.2654 27.0758C29.4851 26.8706 29.7006 26.6546 29.9062 26.4335L29.2577 25.8535C29.0666 26.0595 28.8657 26.2608 28.6605 26.452Z" fill="#2F855A"/>
<path d="M32.1156 15.7524L32.9758 15.5843C32.9162 15.2896 32.8447 14.9952 32.7642 14.709L31.9186 14.9389C31.9935 15.2047 32.0599 15.4784 32.1156 15.7524Z" fill="#2F855A"/>
<path d="M33.0555 20.0543L32.1893 19.916C32.1439 20.1903 32.0878 20.4662 32.0227 20.7363L32.876 20.9351C32.9463 20.645 33.0067 20.3487 33.0555 20.0543Z" fill="#2F855A"/>
<path d="M33.2186 18.2628L32.3413 18.248C32.3366 18.5259 32.3212 18.8068 32.2959 19.0832L33.1698 19.1601C33.1968 18.8631 33.2135 18.5614 33.2186 18.2628Z" fill="#2F855A"/>
<path d="M28.2228 8.12189C27.9829 7.94158 27.7315 7.76653 27.4757 7.60156L26.9943 8.32111C27.2324 8.47452 27.4663 8.63759 27.6899 8.80529L28.2228 8.12189Z" fill="#2F855A"/>
<path d="M8.70309 19.0708C8.67825 18.7959 8.66326 18.5145 8.65854 18.2344L7.78125 18.2491C7.78682 18.5496 7.80267 18.8514 7.82923 19.1465L8.70309 19.0708Z" fill="#2F855A"/>
<path d="M8.75115 16.5635L7.88071 16.4551C7.84301 16.7489 7.81517 17.05 7.79846 17.3502L8.67404 17.3972C8.6899 17.1175 8.7156 16.8369 8.75115 16.5635Z" fill="#2F855A"/>
<path d="M9.08706 14.9272L8.24146 14.6973C8.16093 14.9827 8.08939 15.2767 8.02856 15.5713L8.88873 15.7415C8.94527 15.4669 9.01166 15.193 9.08706 14.9272Z" fill="#2F855A"/>
<path d="M15.5091 7.49926L15.139 6.71875C14.8623 6.84484 14.5877 6.98228 14.3225 7.12729L14.7492 7.87921C14.9959 7.74451 15.2516 7.61673 15.5091 7.49926Z" fill="#2F855A"/>
<path d="M10.4613 11.8753L9.71763 11.418C9.55614 11.6712 9.4015 11.9329 9.25928 12.196L10.0338 12.5999C10.1666 12.3551 10.3105 12.1113 10.4613 11.8753Z" fill="#2F855A"/>
<path d="M9.66119 13.3435L8.85843 12.9961C8.73421 13.2729 8.61983 13.5538 8.51917 13.8312L9.34505 14.1204C9.43887 13.8627 9.5451 13.6013 9.66119 13.3435Z" fill="#2F855A"/>
<path d="M12.6636 9.3307L12.0827 8.68555C11.8531 8.88456 11.6299 9.0926 11.4183 9.30422L12.0446 9.90692C12.2417 9.71002 12.4498 9.51605 12.6636 9.3307Z" fill="#2F855A"/>
<path d="M12.333 26.4487C12.1248 26.2537 11.9243 26.0522 11.7367 25.8496L11.0873 26.4283C11.289 26.6461 11.5041 26.8623 11.7273 27.0712L12.333 26.4487Z" fill="#2F855A"/>
<path d="M11.4689 10.5187L10.8007 9.96094C10.6032 10.1885 10.4122 10.426 10.2327 10.6666L10.9403 11.1752C11.1074 10.9514 11.2852 10.7305 11.4689 10.5187Z" fill="#2F855A"/>
<path d="M9.48749 22.3182C9.38297 22.0595 9.28659 21.7941 9.20177 21.5293L8.36475 21.7882C8.45641 22.0725 8.55965 22.3577 8.67189 22.6355L9.48749 22.3182Z" fill="#2F855A"/>
<path d="M14.0198 8.31609L13.5392 7.5957C13.2865 7.75794 13.035 7.93278 12.7913 8.11477L13.3233 8.79943C13.5499 8.62963 13.7842 8.46697 14.0198 8.31609Z" fill="#2F855A"/>
<path d="M7.94238 20.0331C7.99036 20.3267 8.05076 20.6236 8.12144 20.9157L8.97474 20.7174C8.90921 20.4454 8.85309 20.1693 8.80854 19.8965L7.94238 20.0331Z" fill="#2F855A"/>
<path d="M10.2299 23.8302C10.0893 23.5906 9.95527 23.3416 9.83104 23.0898L9.04114 23.4652C9.17479 23.7352 9.31872 24.0025 9.46993 24.2598L10.2299 23.8302Z" fill="#2F855A"/>
<path d="M11.1846 25.2127C11.0107 24.9961 10.8415 24.7689 10.6817 24.5371L9.9552 25.0192C10.1265 25.2682 10.3086 25.5126 10.4958 25.7457L11.1846 25.2127Z" fill="#2F855A"/>
<path d="M20.9566 30.5048C21.2621 30.4939 21.5696 30.472 21.8712 30.4396L21.7752 29.584C21.4951 29.6142 21.2089 29.6344 20.9249 29.6445L20.9566 30.5048Z" fill="#2F855A"/>
<path d="M20.0404 30.505L20.073 29.6447C19.7907 29.6346 19.5041 29.6142 19.2218 29.584L19.1267 30.4397C19.43 30.472 19.7376 30.4941 20.0404 30.505Z" fill="#2F855A"/>
</svg>
