<svg width="32" height="42" viewBox="0 0 32 42" fill="none" xmlns="http://www.w3.org/2000/svg">
<path d="M4 41.8727H4.87761V38.9518C4.87761 38.3133 5.30321 37.8691 5.80218 37.8691C6.28942 37.8691 6.62696 38.2084 6.62696 38.7235V41.8727H7.50164V38.8531C7.50164 38.2825 7.83331 37.8691 8.40566 37.8691C8.86942 37.8691 9.25099 38.1406 9.25099 38.7821V41.8727H10.1286V38.6958C10.1286 37.6131 9.55331 37.0734 8.73733 37.0734C8.08867 37.0734 7.60143 37.4003 7.38423 37.9062H7.33727C7.14061 37.388 6.72676 37.0734 6.12505 37.0734C5.52921 37.0734 5.08601 37.3849 4.89816 37.9062H4.84239V37.1351H4V41.8727Z" fill="#2F855A"/>
<path d="M13.2479 41.9683C14.2312 41.9683 14.9268 41.4594 15.1264 40.6883L14.2958 40.531C14.1373 40.9782 13.7557 41.2065 13.2567 41.2065C12.5053 41.2065 12.0005 40.6945 11.977 39.7815H15.1822V39.4545C15.1822 37.7427 14.2077 37.0734 13.1863 37.0734C11.93 37.0734 11.1023 38.0789 11.1023 39.5347C11.1023 41.006 11.9183 41.9683 13.2479 41.9683ZM11.9799 39.0906C12.0152 38.4182 12.4789 37.8352 13.1922 37.8352C13.8731 37.8352 14.3193 38.3657 14.3222 39.0906H11.9799Z" fill="#2F855A"/>
<path d="M17.0335 39.0597C17.0335 38.304 17.4738 37.8722 18.0843 37.8722C18.6802 37.8722 19.0412 38.2825 19.0412 38.9703V41.8727H19.9188V38.8592C19.9188 37.6872 19.3053 37.0734 18.3837 37.0734C17.7057 37.0734 17.2625 37.4034 17.0541 37.9062H16.9983V37.1351H16.1559V41.8727H17.0335V39.0597Z" fill="#2F855A"/>
<path d="M23.2003 37.1351H22.2757V36H21.3981V37.1351H20.7377V37.8753H21.3981V40.6729C21.3952 41.5334 22.0204 41.9498 22.7131 41.9344C22.9919 41.9313 23.1797 41.8758 23.2825 41.8357L23.124 41.0738C23.0653 41.0862 22.9567 41.1139 22.8158 41.1139C22.5311 41.1139 22.2757 41.0152 22.2757 40.4816V37.8753H23.2003V37.1351Z" fill="#2F855A"/>
<path d="M26.0657 41.9683C27.049 41.9683 27.7446 41.4594 27.9442 40.6883L27.1136 40.531C26.9551 40.9782 26.5735 41.2065 26.0745 41.2065C25.3231 41.2065 24.8183 40.6945 24.7948 39.7815H28V39.4545C28 37.7427 27.0255 37.0734 26.0041 37.0734C24.7479 37.0734 23.9201 38.0789 23.9201 39.5347C23.9201 41.006 24.7361 41.9683 26.0657 41.9683ZM24.7977 39.0906C24.833 38.4182 25.2967 37.8352 26.01 37.8352C26.6909 37.8352 27.1371 38.3657 27.14 39.0906H24.7977Z" fill="#2F855A"/>
<path d="M32 16.0008C32 7.17795 24.8232 0 16.0017 0C7.17846 0 8.69863e-05 7.17795 0 16.0008C0 24.8227 7.17837 32 16.0017 32C24.8232 32 32 24.8227 32 16.0008ZM1.04384 16.0008C1.04392 7.75347 7.75405 1.04388 16.0017 1.04388C24.2476 1.04388 30.9562 7.75347 30.9562 16.0008C30.9562 24.2472 24.2477 30.9561 16.0017 30.9561C7.75396 30.9561 1.04384 24.2472 1.04384 16.0008Z" fill="#2F855A"/>
<path d="M12.8518 7.16655C12.7778 7.16655 12.7047 7.17024 12.6321 7.17593C12.2862 7.05963 11.9242 7 11.5548 7C9.85254 7 8.44591 8.26275 8.25501 9.88368C7.76498 10.1647 7.38792 10.5943 7.17259 11.0966C6.11411 11.6732 5.45989 12.7545 5.45989 13.9466C5.45989 14.4258 5.56984 14.8968 5.77683 15.328C5.29243 15.8945 5 16.6241 5 17.4198C5 18.2599 5.31694 19.0426 5.89585 19.6473C5.85337 19.855 5.83082 20.0696 5.83082 20.2894C5.83082 22.051 6.94828 23.3611 8.53331 23.5258C8.94329 24.3951 9.8402 25 10.879 25C11.2927 25 11.6965 24.9037 12.0604 24.7197C12.3145 24.7955 12.5797 24.8338 12.8518 24.8338C14.3743 24.8338 15.613 23.6198 15.613 22.1278C15.613 22.1198 15.6122 22.1122 15.6118 22.1043C15.6121 22.0964 15.613 22.0887 15.613 22.0808V9.67826C15.613 9.62816 15.6052 9.57983 15.5907 9.53447C15.4201 8.20143 14.2574 7.16655 12.8518 7.16655ZM6.99909 12.4566C7.10945 13.1661 7.52057 13.7796 8.10022 14.1679C7.53618 14.2046 7.01045 14.3799 6.55774 14.6595C6.4808 14.4303 6.44004 14.1899 6.44004 13.9464C6.44004 13.3884 6.64409 12.865 6.99909 12.4566ZM12.8518 23.8717C12.6227 23.8717 12.4024 23.83 12.1969 23.7474C12.0487 23.688 11.8803 23.7032 11.7457 23.7883C11.4875 23.9517 11.1878 24.038 10.8789 24.038C9.99483 24.038 9.27559 23.3324 9.27559 22.4652C9.27559 21.6853 9.8674 21.0156 10.6522 20.9074C10.9202 20.8706 11.107 20.6274 11.0694 20.3644C11.0318 20.1015 10.7842 19.9179 10.5159 19.9551C9.24994 20.1294 8.29536 21.2086 8.29536 22.4652C8.29536 22.4782 8.29618 22.491 8.29634 22.504C7.39894 22.2532 6.81097 21.4125 6.81097 20.2892C6.81097 19.0219 7.86177 17.9908 9.15339 17.9908C9.42401 17.9908 9.6435 17.7755 9.6435 17.5099C9.6435 17.2444 9.42401 17.029 9.15339 17.029C7.9504 17.029 6.89478 17.6596 6.31154 18.6015C6.09573 18.2493 5.98015 17.845 5.98015 17.4195C5.98015 16.1524 7.03087 15.1215 8.3224 15.1215C8.59303 15.1215 8.81251 14.9061 8.81251 14.6406C8.81251 14.5898 8.80435 14.5408 8.7894 14.4948C9.03086 14.5683 9.28735 14.6079 9.55308 14.6079C9.8237 14.6079 10.0432 14.3925 10.0432 14.127C10.0432 13.8615 9.8237 13.6461 9.55308 13.6461C8.66899 13.6461 7.94975 12.9402 7.94975 12.0725C7.94975 11.6947 8.09066 11.3357 8.33261 11.0558C8.69554 12.47 10.0023 13.5201 11.5547 13.5201C11.8253 13.5201 12.0448 13.3048 12.0448 13.0392C12.0448 12.7737 11.8253 12.5583 11.5547 12.5583C10.2631 12.5583 9.21228 11.5273 9.21228 10.26C9.21228 9.25988 9.86683 8.4075 10.7775 8.09227C10.3524 8.56851 10.0939 9.19135 10.0939 9.8727C10.0939 10.1382 10.3134 10.3536 10.584 10.3536C10.8547 10.3536 11.0741 10.1382 11.0741 9.8727C11.0741 8.91083 11.8716 8.12826 12.8518 8.12826C13.8338 8.12826 14.6328 8.91083 14.6328 9.8727V22.0805C14.6328 22.0884 14.6336 22.0961 14.634 22.104C14.6337 22.1118 14.6328 22.1195 14.6328 22.1275C14.6328 23.0892 13.8338 23.8717 12.8518 23.8717Z" fill="#2F855A"/>
<path d="M16.6133 9.876V22.0808C16.6133 22.0887 16.6141 22.0964 16.6145 22.1043C16.6141 22.1121 16.6133 22.1198 16.6133 22.1278C16.6133 23.6198 17.8505 24.8338 19.3714 24.8338C19.6435 24.8338 19.9087 24.7955 20.1629 24.7197C20.5269 24.9037 20.9307 25 21.3443 25C22.3831 25 23.28 24.3951 23.69 23.5258C25.2749 23.3609 26.3922 22.051 26.3922 20.2894C26.3922 20.0697 26.3697 19.8551 26.3272 19.6474C26.9061 19.0427 27.2231 18.2598 27.2231 17.4197C27.2231 16.6241 26.9307 15.8945 26.4463 15.3279C26.6532 14.8967 26.7632 14.4256 26.7632 13.9465C26.7632 12.7545 26.1092 11.6731 25.0509 11.0964C24.8356 10.5934 24.4584 10.1637 23.968 9.88329C23.7768 8.26259 22.3703 7 20.6682 7C20.299 7 19.9371 7.05971 19.5909 7.17593C19.5183 7.17032 19.4453 7.16655 19.3712 7.16655C17.967 7.16655 16.8053 8.20184 16.6353 9.5352C16.621 9.58041 16.6132 9.6285 16.6132 9.67827V9.86662C16.6132 9.8687 16.613 9.87071 16.613 9.87279C16.6131 9.87391 16.6133 9.87487 16.6133 9.876ZM25.6652 14.6597C25.2124 14.3801 24.6867 14.2048 24.1226 14.168C24.7024 13.7796 25.1135 13.166 25.2237 12.4565C25.5789 12.8649 25.7829 13.3885 25.7829 13.9466C25.7829 14.1899 25.7421 14.4304 25.6652 14.6597ZM19.3712 8.12842C20.3513 8.12842 21.1487 8.911 21.1487 9.87287C21.1487 10.1384 21.3682 10.3538 21.6388 10.3538C21.9095 10.3538 22.129 10.1384 22.129 9.87287C22.129 9.19152 21.8705 8.56868 21.4455 8.09243C22.356 8.40774 23.0106 9.26013 23.0106 10.2602C23.0106 11.5275 21.9598 12.5585 20.6682 12.5585C20.3975 12.5585 20.1781 12.7739 20.1781 13.0394C20.1781 13.3049 20.3975 13.5203 20.6682 13.5203C22.2209 13.5203 23.5278 12.4697 23.8904 11.055C24.1323 11.3346 24.2731 11.694 24.2731 12.0727C24.2731 12.9404 23.5539 13.6463 22.6698 13.6463C22.3992 13.6463 22.1797 13.8617 22.1797 14.1272C22.1797 14.3927 22.3992 14.6081 22.6698 14.6081C22.9355 14.6081 23.1919 14.5684 23.4333 14.495C23.4184 14.541 23.4103 14.59 23.4103 14.6408C23.4103 14.9063 23.6298 15.1217 23.9004 15.1217C25.1921 15.1217 26.2429 16.1526 26.2429 17.4197C26.2429 17.8452 26.1273 18.2496 25.9114 18.6018C25.3283 17.6598 24.2726 17.0292 23.0695 17.0292C22.7989 17.0292 22.5794 17.2446 22.5794 17.5101C22.5794 17.7757 22.7989 17.991 23.0695 17.991C24.3612 17.991 25.412 19.0221 25.412 20.2894C25.412 21.4126 24.8242 22.2534 23.9268 22.5042C23.927 22.4912 23.9278 22.4784 23.9278 22.4654C23.9278 21.2081 22.973 20.1291 21.7068 19.9552C21.4388 19.9189 21.191 20.1018 21.1535 20.3649C21.1161 20.6279 21.303 20.8709 21.571 20.9077C22.3558 21.0155 22.9477 21.6851 22.9477 22.4654C22.9477 23.3327 22.2285 24.0382 21.3444 24.0382C21.0357 24.0382 20.7359 23.9519 20.4774 23.7885C20.3427 23.7033 20.1743 23.6881 20.0264 23.7477C19.8209 23.8301 19.6006 23.872 19.3715 23.872C18.3912 23.872 17.5936 23.0895 17.5936 22.1278C17.5936 22.1198 17.5928 22.1121 17.5924 22.1043C17.5928 22.0964 17.5936 22.0887 17.5936 22.0808V9.8667C17.5969 8.90763 18.393 8.12842 19.3712 8.12842Z" fill="#2F855A"/>
</svg>
