<svg width="37" height="44" viewBox="0 0 37 44" fill="none" xmlns="http://www.w3.org/2000/svg">
<path d="M1.834 38.4754C1.979 38.2854 2.1765 38.1254 2.4265 37.9954C2.6765 37.8654 2.959 37.8004 3.274 37.8004C3.634 37.8004 3.9615 37.8904 4.2565 38.0704C4.5565 38.2454 4.7915 38.4929 4.9615 38.8129C5.1315 39.1329 5.2165 39.5004 5.2165 39.9154C5.2165 40.3304 5.1315 40.7029 4.9615 41.0329C4.7915 41.3579 4.5565 41.6129 4.2565 41.7979C3.9615 41.9779 3.634 42.0679 3.274 42.0679C2.959 42.0679 2.679 42.0054 2.434 41.8804C2.189 41.7504 1.989 41.5904 1.834 41.4004V43.9654H0.979004V37.8679H1.834V38.4754ZM4.3465 39.9154C4.3465 39.6304 4.2865 39.3854 4.1665 39.1804C4.0515 38.9704 3.8965 38.8129 3.7015 38.7079C3.5115 38.5979 3.3065 38.5429 3.0865 38.5429C2.8715 38.5429 2.6665 38.5979 2.4715 38.7079C2.2815 38.8179 2.1265 38.9779 2.0065 39.1879C1.8915 39.3979 1.834 39.6454 1.834 39.9304C1.834 40.2154 1.8915 40.4654 2.0065 40.6804C2.1265 40.8904 2.2815 41.0504 2.4715 41.1604C2.6665 41.2704 2.8715 41.3254 3.0865 41.3254C3.3065 41.3254 3.5115 41.2704 3.7015 41.1604C3.8965 41.0454 4.0515 40.8804 4.1665 40.6654C4.2865 40.4504 4.3465 40.2004 4.3465 39.9154Z" fill="#2F855A"/>
<path d="M6.91701 38.4679C7.04201 38.2579 7.20701 38.0954 7.41201 37.9804C7.62201 37.8604 7.86951 37.8004 8.15451 37.8004V38.6854H7.93701C7.60201 38.6854 7.34701 38.7704 7.17201 38.9404C7.00201 39.1104 6.91701 39.4054 6.91701 39.8254V42.0004H6.06201V37.8679H6.91701V38.4679Z" fill="#2F855A"/>
<path d="M10.7329 42.0679C10.3429 42.0679 9.99043 41.9804 9.67543 41.8054C9.36043 41.6254 9.11293 41.3754 8.93293 41.0554C8.75293 40.7304 8.66293 40.3554 8.66293 39.9304C8.66293 39.5104 8.75543 39.1379 8.94043 38.8129C9.12543 38.4879 9.37793 38.2379 9.69793 38.0629C10.0179 37.8879 10.3754 37.8004 10.7704 37.8004C11.1654 37.8004 11.5229 37.8879 11.8429 38.0629C12.1629 38.2379 12.4154 38.4879 12.6004 38.8129C12.7854 39.1379 12.8779 39.5104 12.8779 39.9304C12.8779 40.3504 12.7829 40.7229 12.5929 41.0479C12.4029 41.3729 12.1429 41.6254 11.8129 41.8054C11.4879 41.9804 11.1279 42.0679 10.7329 42.0679ZM10.7329 41.3254C10.9529 41.3254 11.1579 41.2729 11.3479 41.1679C11.5429 41.0629 11.7004 40.9054 11.8204 40.6954C11.9404 40.4854 12.0004 40.2304 12.0004 39.9304C12.0004 39.6304 11.9429 39.3779 11.8279 39.1729C11.7129 38.9629 11.5604 38.8054 11.3704 38.7004C11.1804 38.5954 10.9754 38.5429 10.7554 38.5429C10.5354 38.5429 10.3304 38.5954 10.1404 38.7004C9.95543 38.8054 9.80793 38.9629 9.69793 39.1729C9.58793 39.3779 9.53293 39.6304 9.53293 39.9304C9.53293 40.3754 9.64543 40.7204 9.87043 40.9654C10.1004 41.2054 10.3879 41.3254 10.7329 41.3254Z" fill="#2F855A"/>
<path d="M14.5781 38.4754C14.7231 38.2854 14.9206 38.1254 15.1706 37.9954C15.4206 37.8654 15.7031 37.8004 16.0181 37.8004C16.3781 37.8004 16.7056 37.8904 17.0006 38.0704C17.3006 38.2454 17.5356 38.4929 17.7056 38.8129C17.8756 39.1329 17.9606 39.5004 17.9606 39.9154C17.9606 40.3304 17.8756 40.7029 17.7056 41.0329C17.5356 41.3579 17.3006 41.6129 17.0006 41.7979C16.7056 41.9779 16.3781 42.0679 16.0181 42.0679C15.7031 42.0679 15.4231 42.0054 15.1781 41.8804C14.9331 41.7504 14.7331 41.5904 14.5781 41.4004V43.9654H13.7231V37.8679H14.5781V38.4754ZM17.0906 39.9154C17.0906 39.6304 17.0306 39.3854 16.9106 39.1804C16.7956 38.9704 16.6406 38.8129 16.4456 38.7079C16.2556 38.5979 16.0506 38.5429 15.8306 38.5429C15.6156 38.5429 15.4106 38.5979 15.2156 38.7079C15.0256 38.8179 14.8706 38.9779 14.7506 39.1879C14.6356 39.3979 14.5781 39.6454 14.5781 39.9304C14.5781 40.2154 14.6356 40.4654 14.7506 40.6804C14.8706 40.8904 15.0256 41.0504 15.2156 41.1604C15.4106 41.2704 15.6156 41.3254 15.8306 41.3254C16.0506 41.3254 16.2556 41.2704 16.4456 41.1604C16.6406 41.0454 16.7956 40.8804 16.9106 40.6654C17.0306 40.4504 17.0906 40.2004 17.0906 39.9154Z" fill="#2F855A"/>
<path d="M20.5987 42.0679C20.2087 42.0679 19.8562 41.9804 19.5412 41.8054C19.2262 41.6254 18.9787 41.3754 18.7987 41.0554C18.6187 40.7304 18.5287 40.3554 18.5287 39.9304C18.5287 39.5104 18.6212 39.1379 18.8062 38.8129C18.9912 38.4879 19.2437 38.2379 19.5637 38.0629C19.8837 37.8879 20.2412 37.8004 20.6362 37.8004C21.0312 37.8004 21.3887 37.8879 21.7087 38.0629C22.0287 38.2379 22.2812 38.4879 22.4662 38.8129C22.6512 39.1379 22.7437 39.5104 22.7437 39.9304C22.7437 40.3504 22.6487 40.7229 22.4587 41.0479C22.2687 41.3729 22.0087 41.6254 21.6787 41.8054C21.3537 41.9804 20.9937 42.0679 20.5987 42.0679ZM20.5987 41.3254C20.8187 41.3254 21.0237 41.2729 21.2137 41.1679C21.4087 41.0629 21.5662 40.9054 21.6862 40.6954C21.8062 40.4854 21.8662 40.2304 21.8662 39.9304C21.8662 39.6304 21.8087 39.3779 21.6937 39.1729C21.5787 38.9629 21.4262 38.8054 21.2362 38.7004C21.0462 38.5954 20.8412 38.5429 20.6212 38.5429C20.4012 38.5429 20.1962 38.5954 20.0062 38.7004C19.8212 38.8054 19.6737 38.9629 19.5637 39.1729C19.4537 39.3779 19.3987 39.6304 19.3987 39.9304C19.3987 40.3754 19.5112 40.7204 19.7362 40.9654C19.9662 41.2054 20.2537 41.3254 20.5987 41.3254ZM21.4087 36.6904L19.7512 37.5079V36.8779L21.4087 35.9629V36.6904Z" fill="#2F855A"/>
<path d="M25.0889 42.0679C24.7639 42.0679 24.4714 42.0104 24.2114 41.8954C23.9564 41.7754 23.7539 41.6154 23.6039 41.4154C23.4539 41.2104 23.3739 40.9829 23.3639 40.7329H24.2489C24.2639 40.9079 24.3464 41.0554 24.4964 41.1754C24.6514 41.2904 24.8439 41.3479 25.0739 41.3479C25.3139 41.3479 25.4989 41.3029 25.6289 41.2129C25.7639 41.1179 25.8314 40.9979 25.8314 40.8529C25.8314 40.6979 25.7564 40.5829 25.6064 40.5079C25.4614 40.4329 25.2289 40.3504 24.9089 40.2604C24.5989 40.1754 24.3464 40.0929 24.1514 40.0129C23.9564 39.9329 23.7864 39.8104 23.6414 39.6454C23.5014 39.4804 23.4314 39.2629 23.4314 38.9929C23.4314 38.7729 23.4964 38.5729 23.6264 38.3929C23.7564 38.2079 23.9414 38.0629 24.1814 37.9579C24.4264 37.8529 24.7064 37.8004 25.0214 37.8004C25.4914 37.8004 25.8689 37.9204 26.1539 38.1604C26.4439 38.3954 26.5989 38.7179 26.6189 39.1279H25.7639C25.7489 38.9429 25.6739 38.7954 25.5389 38.6854C25.4039 38.5754 25.2214 38.5204 24.9914 38.5204C24.7664 38.5204 24.5939 38.5629 24.4739 38.6479C24.3539 38.7329 24.2939 38.8454 24.2939 38.9854C24.2939 39.0954 24.3339 39.1879 24.4139 39.2629C24.4939 39.3379 24.5914 39.3979 24.7064 39.4429C24.8214 39.4829 24.9914 39.5354 25.2164 39.6004C25.5164 39.6804 25.7614 39.7629 25.9514 39.8479C26.1464 39.9279 26.3139 40.0479 26.4539 40.2079C26.5939 40.3679 26.6664 40.5804 26.6714 40.8454C26.6714 41.0804 26.6064 41.2904 26.4764 41.4754C26.3464 41.6604 26.1614 41.8054 25.9214 41.9104C25.6864 42.0154 25.4089 42.0679 25.0889 42.0679Z" fill="#2F855A"/>
<path d="M28.0302 37.3204C27.8752 37.3204 27.7452 37.2679 27.6402 37.1629C27.5352 37.0579 27.4827 36.9279 27.4827 36.7729C27.4827 36.6179 27.5352 36.4879 27.6402 36.3829C27.7452 36.2779 27.8752 36.2254 28.0302 36.2254C28.1802 36.2254 28.3077 36.2779 28.4127 36.3829C28.5177 36.4879 28.5702 36.6179 28.5702 36.7729C28.5702 36.9279 28.5177 37.0579 28.4127 37.1629C28.3077 37.2679 28.1802 37.3204 28.0302 37.3204ZM28.4502 37.8679V42.0004H27.5952V37.8679H28.4502Z" fill="#2F855A"/>
<path d="M30.5703 38.5654V40.8529C30.5703 41.0079 30.6053 41.1204 30.6753 41.1904C30.7503 41.2554 30.8753 41.2879 31.0503 41.2879H31.5753V42.0004H30.9003C30.5153 42.0004 30.2203 41.9104 30.0153 41.7304C29.8103 41.5504 29.7078 41.2579 29.7078 40.8529V38.5654H29.2203V37.8679H29.7078V36.8404H30.5703V37.8679H31.5753V38.5654H30.5703Z" fill="#2F855A"/>
<path d="M34.1558 42.0679C33.7658 42.0679 33.4133 41.9804 33.0983 41.8054C32.7833 41.6254 32.5358 41.3754 32.3558 41.0554C32.1758 40.7304 32.0858 40.3554 32.0858 39.9304C32.0858 39.5104 32.1783 39.1379 32.3633 38.8129C32.5483 38.4879 32.8008 38.2379 33.1208 38.0629C33.4408 37.8879 33.7983 37.8004 34.1933 37.8004C34.5883 37.8004 34.9458 37.8879 35.2658 38.0629C35.5858 38.2379 35.8383 38.4879 36.0233 38.8129C36.2083 39.1379 36.3008 39.5104 36.3008 39.9304C36.3008 40.3504 36.2058 40.7229 36.0158 41.0479C35.8258 41.3729 35.5658 41.6254 35.2358 41.8054C34.9108 41.9804 34.5508 42.0679 34.1558 42.0679ZM34.1558 41.3254C34.3758 41.3254 34.5808 41.2729 34.7708 41.1679C34.9658 41.0629 35.1233 40.9054 35.2433 40.6954C35.3633 40.4854 35.4233 40.2304 35.4233 39.9304C35.4233 39.6304 35.3658 39.3779 35.2508 39.1729C35.1358 38.9629 34.9833 38.8054 34.7933 38.7004C34.6033 38.5954 34.3983 38.5429 34.1783 38.5429C33.9583 38.5429 33.7533 38.5954 33.5633 38.7004C33.3783 38.8054 33.2308 38.9629 33.1208 39.1729C33.0108 39.3779 32.9558 39.6304 32.9558 39.9304C32.9558 40.3754 33.0683 40.7204 33.2933 40.9654C33.5233 41.2054 33.8108 41.3254 34.1558 41.3254Z" fill="#2F855A"/>
<path d="M35 16.0008C35 7.17795 27.8232 0 19.0017 0C10.1785 0 3.00009 7.17795 3 16.0008C3 24.8227 10.1784 32 19.0017 32C27.8232 32 35 24.8227 35 16.0008ZM4.04384 16.0008C4.04392 7.75347 10.754 1.04388 19.0017 1.04388C27.2476 1.04388 33.9562 7.75347 33.9562 16.0008C33.9562 24.2472 27.2477 30.9561 19.0017 30.9561C10.754 30.9561 4.04384 24.2472 4.04384 16.0008Z" fill="#2F855A"/>
<path d="M9.33275 21.3453H10.331V25.2632C10.331 25.3498 10.3661 25.4329 10.4285 25.4941C10.4909 25.5553 10.5755 25.5897 10.6638 25.5897H13.9913C14.0795 25.5897 14.1642 25.5553 14.2266 25.4941C14.289 25.4329 14.324 25.3498 14.324 25.2632V21.3453H15.3223C15.4105 21.3453 15.4952 21.3109 15.5576 21.2497C15.62 21.1884 15.655 21.1054 15.655 21.0188V18.5812C15.6542 18.0435 15.4465 17.5259 15.0735 17.1319C14.7005 16.7379 14.1897 16.4965 13.6432 16.4561C13.8674 16.1737 13.9898 15.8263 13.9913 15.4684C13.9913 15.0354 13.816 14.6202 13.504 14.3141C13.192 14.0079 12.7688 13.8359 12.3275 13.8359C11.8863 13.8359 11.4631 14.0079 11.1511 14.3141C10.8391 14.6202 10.6638 15.0354 10.6638 15.4684C10.6652 15.8263 10.7876 16.1737 11.0118 16.4561C10.4653 16.4965 9.95453 16.7379 9.58155 17.1319C9.20857 17.5259 9.00088 18.0435 9 18.5812V21.0188C9 21.1054 9.03506 21.1884 9.09746 21.2497C9.15986 21.3109 9.2445 21.3453 9.33275 21.3453ZM12.3275 14.4889C12.525 14.4889 12.718 14.5464 12.8821 14.654C13.0463 14.7616 13.1742 14.9146 13.2498 15.0936C13.3253 15.2726 13.3451 15.4695 13.3066 15.6595C13.2681 15.8495 13.173 16.024 13.0334 16.161C12.8938 16.298 12.7159 16.3913 12.5223 16.4291C12.3286 16.4669 12.1279 16.4475 11.9455 16.3733C11.7631 16.2992 11.6072 16.1737 11.4975 16.0126C11.3878 15.8515 11.3293 15.6621 11.3293 15.4684C11.3293 15.2086 11.4344 14.9595 11.6216 14.7758C11.8089 14.5921 12.0628 14.4889 12.3275 14.4889V14.4889ZM9.6655 18.5812C9.66595 18.1887 9.82504 17.8124 10.1079 17.5349C10.3907 17.2574 10.7742 17.1013 11.1742 17.1009H13.4808C13.8808 17.1013 14.2643 17.2574 14.5472 17.5349C14.83 17.8124 14.9891 18.1887 14.9895 18.5812V20.6923H14.324V18.0804H13.6585V24.9367H12.6603V21.3453H11.9948V24.9367H10.9965V18.0804H10.331V20.6923H9.6655V18.5812Z" fill="#2F855A"/>
<path d="M28.7463 7.32566L25.086 6.01969C25.0357 6.00173 24.9818 5.99594 24.9287 6.0028C24.8757 6.00965 24.8251 6.02896 24.7813 6.05908C24.7375 6.08919 24.7017 6.12923 24.677 6.1758C24.6523 6.22237 24.6394 6.2741 24.6394 6.32659V12.2035H22.6429C22.5547 12.2035 22.47 12.2379 22.4076 12.2991C22.3452 12.3603 22.3102 12.4434 22.3102 12.53V15.4684C22.3102 15.555 22.3452 15.6381 22.4076 15.6993C22.47 15.7605 22.5547 15.7949 22.6429 15.7949H27.3015C27.3897 15.7949 27.4744 15.7605 27.5368 15.6993C27.5992 15.6381 27.6342 15.555 27.6342 15.4684V12.53C27.6342 12.4434 27.5992 12.3603 27.5368 12.2991C27.4744 12.2379 27.3897 12.2035 27.3015 12.2035H25.305V9.16709L28.7463 7.93947C28.8105 7.9166 28.866 7.87487 28.9052 7.81996C28.9445 7.76505 28.9655 7.69962 28.9655 7.63257C28.9655 7.56552 28.9445 7.50009 28.9052 7.44518C28.866 7.39027 28.8105 7.34854 28.7463 7.32566ZM26.9687 12.8565V15.1419H22.9757V12.8565H24.6394V14.1624H25.305V12.8565H26.9687ZM25.305 8.47231V6.79283L27.6588 7.63257L25.305 8.47231Z" fill="#2F855A"/>
<path d="M21.6446 23.3046H15.9878V23.9576H21.6446C22.6153 23.9576 23.5464 23.5792 24.2328 22.9057C24.9192 22.2322 25.3049 21.3187 25.3049 20.3662C25.3049 19.4137 24.9192 18.5002 24.2328 17.8267C23.5464 17.1531 22.6153 16.7748 21.6446 16.7748H17.9843C17.6313 16.7748 17.2928 16.6372 17.0431 16.3923C16.7935 16.1473 16.6533 15.8152 16.6533 15.4688C16.6533 15.1224 16.7935 14.7903 17.0431 14.5453C17.2928 14.3004 17.6313 14.1628 17.9843 14.1628H20.3928L19.1024 15.218L19.5283 15.7195L21.5248 14.0871C21.5622 14.0564 21.5924 14.0181 21.613 13.9748C21.6337 13.9314 21.6444 13.8842 21.6444 13.8363C21.6444 13.7885 21.6337 13.7412 21.613 13.6979C21.5924 13.6546 21.5622 13.6162 21.5248 13.5856L19.5283 11.9531L19.1024 12.4546L20.3928 13.5098H17.9843C17.4548 13.5098 16.947 13.7162 16.5726 14.0836C16.1981 14.451 15.9878 14.9492 15.9878 15.4688C15.9878 15.9883 16.1981 16.4866 16.5726 16.854C16.947 17.2214 17.4548 17.4277 17.9843 17.4277H21.6446C22.4388 17.4277 23.2006 17.7373 23.7622 18.2884C24.3238 18.8395 24.6394 19.5869 24.6394 20.3662C24.6394 21.1455 24.3238 21.8929 23.7622 22.444C23.2006 22.995 22.4388 23.3046 21.6446 23.3046Z" fill="#2F855A"/>
</svg>
